<svg width="148" height="48" viewBox="0 0 148 48" fill="none" xmlns="http://www.w3.org/2000/svg">
<g clip-path="url(#clip0_1_4742)">
<rect width="148" height="48" fill="white"/>
<rect width="148" height="48" fill="white"/>
<path d="M38.1188 24.0001C38.1188 31.9541 31.7083 38.4001 23.7971 38.4001C15.886 38.4001 9.47363 31.9541 9.47363 24.0001C9.47363 16.047 15.886 9.6001 23.7971 9.6001C31.7083 9.6001 38.1188 16.047 38.1188 24.0001Z" fill="white"/>
<path d="M17.2235 24.0001L23.7965 30.6075L30.3685 24.0001L23.7956 17.3926L17.2235 24.0001ZM10.4863 24.0001C10.4863 16.6084 16.4455 10.6172 23.7965 10.6172C31.1465 10.6172 37.1057 16.6084 37.1057 24.0001C37.1057 31.3917 31.1465 37.383 23.7965 37.383C16.4455 37.383 10.4863 31.3917 10.4863 24.0001Z" fill="#E2001A"/>
<path d="M87.7439 13.0102C87.7439 13.7677 87.6772 14.2115 87.5446 14.3431C87.4268 14.4746 86.9837 14.5391 86.2154 14.5391H85.3292V19.3908C85.3292 20.1044 85.6248 20.4619 86.2154 20.4619C86.9392 20.4619 87.3608 20.527 87.4779 20.6585C87.5965 20.7901 87.6557 21.2486 87.6557 22.0346C87.3608 22.0492 87.0867 22.0565 86.8362 22.0565C85.6248 22.0565 84.7467 21.8532 84.2006 21.4452C83.6687 21.0226 83.4034 20.3383 83.4034 19.3908V14.5616H82.1846L82.2068 13.4467C82.8566 13.4467 83.2189 13.4029 83.2923 13.3151C83.367 13.2281 83.4034 12.9072 83.4034 12.3537V10.7591H85.2855V13.0102L87.7439 13.0102ZM81.1664 21.9693C80.221 21.9693 79.6674 21.9048 79.5045 21.7733C79.357 21.6417 79.2836 21.1759 79.2836 20.3746V13.01C80.229 13.01 80.7745 13.0751 80.9226 13.206C81.0842 13.3229 81.1664 13.7675 81.1664 14.5389V21.9693ZM81.1664 12.4419C80.221 12.4419 79.6674 12.3768 79.5045 12.2446C79.357 12.1137 79.2836 11.6479 79.2836 10.8466V10.2346C80.3024 10.2346 80.8485 10.2559 80.9226 10.2998C81.0842 10.3868 81.1664 10.7954 81.1664 11.5236V12.4419ZM77.4234 21.9693C76.6995 21.9693 76.2786 21.9188 76.1608 21.8171C76.0423 21.7002 75.9837 21.3208 75.9837 20.6809C75.4814 21.6131 74.3225 22.0782 72.5064 22.0782C69.9227 22.0782 68.6298 20.5421 68.6298 17.4677C68.6298 14.394 69.9153 12.8565 72.4842 12.8565C74.0202 12.8565 75.0464 13.2651 75.5629 14.0811V9.6001C76.4935 9.6001 77.0315 9.66654 77.1789 9.7981C77.3412 9.92899 77.4234 10.3868 77.4234 11.1735V21.9693ZM75.5851 17.4677C75.5851 16.477 75.4302 15.7561 75.1198 15.3043C74.7366 14.7209 74.0498 14.4306 73.0599 14.4306C71.8048 14.4306 71.0748 14.5615 70.8674 14.8226C70.6614 15.0711 70.5577 15.9528 70.5577 17.4677C70.5577 18.473 70.7126 19.2085 71.0223 19.675C71.4061 20.2431 72.0782 20.5268 73.0377 20.5268C74.3077 20.5268 75.0464 20.4032 75.2531 20.1554C75.4746 19.8936 75.5851 18.9979 75.5851 17.4677ZM67.6338 16.7465C67.6338 17.49 67.553 17.9265 67.3908 18.0574C67.2278 18.1743 66.6595 18.2328 65.6851 18.2328H60.9453C60.9453 18.9172 61.1594 19.4633 61.5877 19.8713C62.0307 20.2793 62.6576 20.4839 63.4697 20.4839H65.4629C66.2016 20.4839 66.6298 20.549 66.7484 20.6806C66.881 20.7969 66.9477 21.2341 66.9477 21.9909H63.5371C60.5392 21.9909 59.041 20.4839 59.041 17.468C59.041 14.4229 60.554 12.9007 63.5808 12.9007C64.8952 12.9007 65.9141 13.2715 66.6379 14.015C67.3019 14.7 67.6338 15.6103 67.6338 16.7465ZM65.6851 16.7465C65.6999 16.7172 65.6999 16.7026 65.6851 16.7026C65.7147 15.1292 64.9538 14.3432 63.4037 14.3432C62.1923 14.3432 61.4772 14.4442 61.2557 14.6488C61.049 14.8528 60.9453 15.5518 60.9453 16.7465H65.6851ZM58.7972 12.9667C58.7972 13.7819 58.7447 14.255 58.6417 14.3866C58.5534 14.5035 58.2067 14.5613 57.6013 14.5613C56.8478 14.5613 56.3838 14.7141 56.2054 15.0204C56.0728 15.2676 56.0061 15.9307 56.0061 17.0091V21.9691C55.0613 21.9691 54.5078 21.9047 54.3449 21.7731C54.1974 21.6416 54.124 21.1904 54.124 20.4183V13.0105C54.8472 13.0105 55.2674 13.0603 55.3859 13.162C55.5038 13.265 55.5637 13.6284 55.5637 14.255C56.0209 13.3228 57.099 12.8929 58.7972 12.9667ZM52.5294 22.0129H49.075C47.1256 22.0129 45.7223 21.4521 44.8665 20.3312C44.187 19.4269 43.8477 18.1086 43.8477 16.3758C43.8477 12.631 45.5897 10.7593 49.075 10.7593H52.5294C52.5294 11.5599 52.4628 12.0264 52.3301 12.1573C52.2123 12.2888 51.7759 12.3539 51.0238 12.3539H49.075C47.8495 12.3539 47.0886 12.3978 46.7937 12.4855C46.3506 12.6018 46.0698 12.936 45.9519 13.4908C45.8779 13.8987 45.8408 14.8595 45.8408 16.3758C45.8408 17.6721 46.0476 18.6249 46.461 19.2375C46.9633 20.0102 47.834 20.3956 49.075 20.3956H50.9127C51.7247 20.3956 52.1968 20.4614 52.3301 20.593C52.4628 20.7245 52.5294 21.1969 52.5294 22.0129Z" fill="#1C297B"/>
<path d="M138.089 34.9473C136.865 34.9473 136.127 34.9181 135.875 34.8596C135.565 34.7878 135.226 34.5473 134.857 34.1393L131.977 30.9268C131.741 30.6643 131.623 30.4457 131.623 30.271C131.623 30.0962 131.741 29.8776 131.977 29.6159L135.189 25.9661H137.736L133.372 30.2278L138.089 34.9473ZM131.468 34.9473C130.523 34.9473 129.97 34.8829 129.806 34.7513C129.659 34.6197 129.585 34.1613 129.585 33.3739V22.5781C130.531 22.5781 131.077 22.6446 131.224 22.7761C131.387 22.8924 131.468 23.3356 131.468 24.1083V34.9473ZM127.881 34.9473C126.935 34.9473 126.382 34.8829 126.219 34.7513C126.072 34.6197 125.999 34.1613 125.999 33.3739V29.9647C125.999 29.0763 125.873 28.4571 125.621 28.1069C125.296 27.6558 124.684 27.4299 123.782 27.4299C122.616 27.4299 121.931 27.5395 121.723 27.7581C121.532 27.9621 121.435 28.6976 121.435 29.9647V34.9473C120.49 34.9473 119.938 34.8829 119.775 34.7513C119.627 34.6197 119.553 34.1613 119.553 33.3739V26.0093C120.276 26.0093 120.697 26.0611 120.816 26.1628C120.933 26.2644 120.993 26.6285 120.993 27.2558C121.465 26.3375 122.572 25.8784 124.315 25.8784C125.703 25.8784 126.669 26.2644 127.216 27.0365C127.659 27.6784 127.881 28.7049 127.881 30.1182V34.9473ZM117.937 34.9473C117.227 34.9473 116.815 34.8902 116.697 34.7732C116.578 34.6569 116.519 34.2629 116.519 33.5919C116.283 33.9859 115.876 34.3134 115.301 34.5765C114.636 34.8829 113.868 35.0343 112.998 35.0343C111.964 35.0343 111.13 34.8157 110.495 34.3799C109.801 33.8988 109.454 33.2138 109.454 32.3248C109.454 31.4371 109.749 30.7301 110.34 30.2052C110.99 29.6371 111.949 29.3534 113.219 29.3534H116.076C116.076 28.6976 115.876 28.2312 115.479 27.9548C115.095 27.6784 114.467 27.5395 113.595 27.5395H111.735C111.042 27.5395 110.636 27.4817 110.517 27.3647C110.399 27.2332 110.34 26.7893 110.34 26.0319H113.529C115.227 26.0319 116.408 26.3734 117.072 27.0591C117.648 27.6265 117.937 28.5587 117.937 29.8557V34.9473ZM116.076 31.1015V30.8172H113.507C112.459 30.8172 111.846 30.8823 111.669 31.0138C111.492 31.1308 111.403 31.5593 111.403 32.3028C111.403 33.1626 112.082 33.5919 113.44 33.5919C114.755 33.5919 115.523 33.4909 115.744 33.2862C115.965 33.0689 116.076 32.3401 116.076 31.1015ZM108.326 31.6916C108.326 33.8763 106.819 34.9693 103.807 34.9693H101.15C100.234 34.9693 99.6944 34.9035 99.5328 34.7733C99.3846 34.6411 99.3105 34.1826 99.3105 33.3959V25.3542C99.3105 24.5522 99.3846 24.0871 99.5328 23.9549C99.6944 23.8247 100.234 23.7582 101.15 23.7582H103.74C106.561 23.7582 107.97 24.735 107.97 26.6871C107.97 27.998 107.468 28.7701 106.464 29.0033C107.039 29.1634 107.505 29.5129 107.86 30.0525C108.169 30.5335 108.326 31.0797 108.326 31.6916ZM106.065 26.9495C106.065 25.8851 105.312 25.3542 103.807 25.3542H101.26V28.5223H103.918C104.996 28.5223 105.623 28.4571 105.8 28.3262C105.977 28.1947 106.065 27.7362 106.065 26.9495ZM106.331 31.6697C106.331 30.5627 105.527 30.0086 103.918 30.0086H101.26V33.3959H103.873C105.099 33.3959 105.815 33.3235 106.021 33.1773C106.229 33.0318 106.331 32.5288 106.331 31.6697Z" fill="#E2001A"/>
<path d="M97.2648 29.7241C97.2648 30.4676 97.184 30.9041 97.0217 31.035C96.8588 31.152 96.2905 31.2105 95.3161 31.2105H90.5776C90.5776 31.8948 90.791 32.441 91.2193 32.849C91.6624 33.2569 92.2893 33.4616 93.1014 33.4616H95.0946C95.8332 33.4616 96.2615 33.5267 96.3793 33.6582C96.512 33.7745 96.5787 34.2117 96.5787 34.9685H93.1681C90.1716 34.9685 88.6726 33.4616 88.6726 30.4457C88.6726 27.4006 90.1857 25.8783 93.2118 25.8783C94.5262 25.8783 95.545 26.2491 96.2689 26.9926C96.9329 27.6776 97.2648 28.5879 97.2648 29.7241ZM95.3161 29.7241C95.3309 29.6949 95.3309 29.6803 95.3161 29.6803C95.3464 28.1069 94.5848 27.3208 93.0347 27.3208C91.8247 27.3208 91.1089 27.4218 90.8873 27.6265C90.6806 27.8305 90.5776 28.5295 90.5776 29.7241H95.3161ZM87.4983 30.4885C87.4983 33.5636 86.2216 35.1004 83.6675 35.1004C82.1316 35.1004 81.106 34.6924 80.5889 33.8765V38.4C79.6583 38.4 79.1115 38.3349 78.9492 38.2027C78.8024 38.0864 78.729 37.6425 78.729 36.8705V25.9876C79.4374 25.9876 79.8515 26.0461 79.968 26.1624C80.0866 26.264 80.1458 26.6361 80.1458 27.2767C80.6919 26.3444 81.8515 25.878 83.6231 25.878C86.2062 25.878 87.4983 27.4149 87.4983 30.4885ZM85.5927 30.4885C85.5927 29.4839 85.4385 28.7404 85.1287 28.26C84.7301 27.6919 84.0588 27.4082 83.114 27.4082C81.844 27.4082 81.098 27.5391 80.8771 27.8002C80.6697 28.0633 80.5673 28.959 80.5673 30.4885C80.5673 31.4945 80.7141 32.2227 81.0097 32.6745C81.3942 33.2573 82.0797 33.5489 83.0682 33.5489C84.3389 33.5489 85.0782 33.4247 85.2829 33.1775C85.4917 32.9151 85.5927 32.0187 85.5927 30.4885ZM77.2235 30.4674C77.2235 33.5265 75.7165 35.0561 72.7052 35.0561C69.7222 35.0561 68.2307 33.5265 68.2307 30.4674C68.2307 27.4217 69.7303 25.9008 72.7267 25.9008C75.7239 25.9008 77.2235 27.4217 77.2235 30.4674ZM75.2957 30.4674C75.2957 29.5053 75.1334 28.7924 74.8095 28.326C74.4102 27.728 73.7159 27.4296 72.7267 27.4296C71.4426 27.4296 70.6891 27.5605 70.4676 27.823C70.2615 28.0715 70.1578 28.9519 70.1578 30.4674C70.1578 32.5073 71.0063 33.5265 72.7052 33.5265C74.0041 33.5265 74.7576 33.4036 74.9637 33.1558C75.1859 32.8926 75.2957 31.997 75.2957 30.4674ZM68.0094 25.9443C68.0094 26.7596 67.9576 27.2327 67.8552 27.3642C67.7663 27.4812 67.4202 27.539 66.8135 27.539C66.0613 27.539 65.5967 27.6918 65.4183 27.9981C65.2856 28.2453 65.219 28.9084 65.219 29.9868V34.9468C64.2742 34.9468 63.7214 34.8824 63.5584 34.7508C63.4103 34.6192 63.3376 34.1681 63.3376 33.396V25.9882C64.0594 25.9882 64.4803 26.038 64.5995 26.1397C64.7166 26.2427 64.7752 26.6061 64.7752 27.2327C65.2338 26.3005 66.3118 25.8706 68.0094 25.9443ZM61.498 34.9469C60.7748 34.9469 60.3539 34.8965 60.2354 34.7948C60.1189 34.6779 60.059 34.2985 60.059 33.6586C59.5721 34.5908 58.4651 35.0559 56.7379 35.0559C55.3339 35.0559 54.3596 34.6779 53.8135 33.9197C53.3704 33.2938 53.1495 32.2812 53.1495 30.8819V25.9877C54.0788 25.9877 54.6181 26.0528 54.7656 26.1837C54.9279 26.3152 55.0094 26.789 55.0094 27.6042V31.0354C55.0094 31.9091 55.142 32.5138 55.408 32.8493C55.7326 33.2719 56.3534 33.4825 57.2685 33.4825C58.4348 33.4825 59.1136 33.3809 59.3055 33.1769C59.4987 32.959 59.5943 32.2154 59.5943 30.9477V25.9877C60.5391 25.9877 61.0845 26.0528 61.2333 26.1837C61.3943 26.3152 61.4771 26.789 61.4771 27.6042L61.498 34.9469ZM51.7321 34.9469H45.7735C44.8153 34.9469 44.253 34.8825 44.0901 34.7509C43.9278 34.6194 43.8477 34.1536 43.8477 33.3523V25.3545C43.8477 24.5518 43.9278 24.0867 44.0901 23.9545C44.253 23.8243 44.8153 23.7578 45.7735 23.7578H50.1376C50.9349 23.7578 51.3995 23.8243 51.5322 23.9545C51.6655 24.0867 51.7321 24.5518 51.7321 25.3545H45.7735V28.4567H49.6056C50.3881 28.4567 50.846 28.5218 50.9793 28.6534C51.1113 28.7843 51.178 29.2368 51.178 30.0082H45.7735V33.3523H50.005C50.8763 33.3523 51.378 33.4167 51.5106 33.549C51.6581 33.6792 51.7321 34.147 51.7321 34.9469Z" fill="#1C297B"/>
</g>
<defs>
<clipPath id="clip0_1_4742">
<rect width="148" height="48" fill="white"/>
</clipPath>
</defs>
</svg>
