<svg width="24" height="24" viewBox="0 0 24 24" fill="none" xmlns="http://www.w3.org/2000/svg">
<g clip-path="url(#clip0_1_2881)">
<path fill-rule="evenodd" clip-rule="evenodd" d="M2.60545 3.75753C2.00831 4.01881 1.9762 4.88909 2.55356 5.16307C2.69939 5.23226 3.27047 5.23934 8.71889 5.23934H14.7235V7.94815V10.657L14.829 10.8634C15.0484 11.2927 14.7834 11.261 18.2837 11.2755L21.3683 11.2882L21.9131 11.9919L22.4579 12.6956V14.6406V16.5856L21.7709 16.5726L21.0839 16.5597L20.9995 16.311C20.0952 13.6488 16.098 13.6669 15.253 16.337L15.1752 16.5831H12.9609H10.7467L10.6677 16.337C9.80934 13.6638 5.83711 13.6458 4.932 16.311L4.84753 16.5597L3.75037 16.5831C2.36179 16.6128 2.14167 16.7187 2.14115 17.3582C2.14059 18.0042 2.41237 18.13 3.80901 18.13H4.86492L4.92333 18.3292C5.68889 20.9415 9.65029 21.0239 10.6187 18.4476L10.7293 18.1534L12.9549 18.1412L15.1805 18.1291L15.2872 18.4145C16.2508 20.991 20.1068 20.9823 20.9792 18.4017L21.0696 18.1342L22.2995 18.1204C23.6686 18.105 23.6601 18.1069 23.8993 17.7554L24.0048 17.6005L24.0046 14.9004C24.0045 12.3373 24 12.1929 23.916 12.0553C23.8674 11.9756 23.5171 11.5117 23.1376 11.0244L22.4476 10.1386L21.2799 7.80617C20.1825 5.61425 20.1005 5.46598 19.9175 5.34481L19.7227 5.2159L17.9966 5.20156L16.2704 5.18717V4.74298C16.2704 4.21676 16.209 4.03897 15.9626 3.851L15.7855 3.7159L9.26625 3.70578C3.94987 3.69748 2.72086 3.70704 2.60545 3.75753ZM1.77623 6.83253C1.13911 7.02462 1.03444 7.84404 1.59806 8.22762L1.75303 8.33309H5.1929C8.92551 8.33309 8.83575 8.33909 9.04364 8.07486C9.38062 7.64642 9.18544 6.97362 8.68378 6.83426C8.47673 6.77679 1.96669 6.77515 1.77623 6.83253ZM19.7521 8.23207C20.1575 9.02731 20.4892 9.69176 20.4892 9.70864C20.4892 9.72551 19.5399 9.73934 18.3798 9.73934H16.2704V8.26278V6.78621H17.6427H19.0151L19.7521 8.23207ZM0.37317 9.88737C-0.147143 10.1891 -0.117424 10.9534 0.425248 11.2276L0.634029 11.3331H3.98915H7.34428L7.55306 11.2276C8.09906 10.9518 8.12508 10.1815 7.59834 9.8855C7.32089 9.72954 0.642279 9.73128 0.37317 9.88737ZM1.64381 12.8448C1.12022 13.1091 1.08136 13.8014 1.56965 14.1661C1.69495 14.2597 1.76278 14.2632 3.70223 14.2759L5.70544 14.2891L5.8657 14.1811C6.39323 13.8255 6.3674 13.1264 5.81634 12.8448C5.61244 12.7406 5.58708 12.7393 3.73134 12.7393C1.87636 12.7393 1.85015 12.7407 1.64381 12.8448ZM8.41842 15.9925C9.34162 16.4211 9.55875 17.6646 8.83542 18.3807C7.90753 19.2992 6.32465 18.6388 6.32465 17.3331C6.32465 16.2449 7.43329 15.5351 8.41842 15.9925ZM18.4361 15.8857C20.157 16.2502 19.8821 18.8018 18.122 18.8018C16.8264 18.8018 16.1707 17.2313 17.0767 16.2978C17.4422 15.9211 17.9198 15.7764 18.4361 15.8857Z" fill="#38A868"/>
</g>
<defs>
<clipPath id="clip0_1_2881">
<rect width="24" height="24" fill="white"/>
</clipPath>
</defs>
</svg>
