<svg width="72" height="72" viewBox="0 0 72 72" fill="none" xmlns="http://www.w3.org/2000/svg">
<g clip-path="url(#clip0_1_450)">
<path d="M8.08134 60.614H0.496833C0.365065 60.614 0.238693 60.5616 0.145519 60.4684C0.0523448 60.3753 0 60.2489 0 60.1171L0 9.82899C0 9.69722 0.0523448 9.57085 0.145519 9.47767C0.238693 9.3845 0.365065 9.33215 0.496833 9.33215H8.08134C8.14658 9.33215 8.21119 9.345 8.27147 9.36997C8.33175 9.39494 8.38652 9.43154 8.43265 9.47767C8.47879 9.52381 8.51538 9.57858 8.54035 9.63886C8.56532 9.69914 8.57817 9.76374 8.57817 9.82899V60.1171C8.57817 60.1824 8.56532 60.247 8.54035 60.3073C8.51538 60.3675 8.47879 60.4223 8.43265 60.4684C8.38652 60.5146 8.33175 60.5512 8.27147 60.5761C8.21119 60.6011 8.14658 60.614 8.08134 60.614ZM0.993666 59.6203H7.58451V10.3258H0.993666V59.6203Z" fill="#373331"/>
<path d="M31.7856 63.0454C31.7459 63.0453 31.7065 63.0405 31.668 63.031L9.06567 57.5298C8.95707 57.5045 8.86015 57.4434 8.7905 57.3563C8.72084 57.2693 8.6825 57.1613 8.68164 57.0498V36.718C8.68164 36.5863 8.73399 36.4599 8.82716 36.3667C8.92033 36.2735 9.04671 36.2212 9.17847 36.2212L31.7904 36.4012C31.9213 36.4025 32.0465 36.4554 32.1386 36.5484C32.2307 36.6414 32.2824 36.7671 32.2824 36.898V62.5485C32.2827 62.6139 32.2701 62.6786 32.2452 62.739C32.2204 62.7995 32.1838 62.8544 32.1376 62.9006C32.0914 62.9468 32.0365 62.9834 31.9761 63.0082C31.9157 63.0331 31.8509 63.0457 31.7856 63.0454ZM9.67531 56.6538L31.2887 61.9173V37.3901L28.759 37.3709L9.67531 37.2197V56.6538Z" fill="#373331"/>
<path d="M9.18087 35.8419C9.11575 35.8429 9.0511 35.8307 8.99085 35.8059C8.93061 35.7812 8.87604 35.7444 8.83045 35.6979C8.73615 35.6046 8.68264 35.4777 8.68164 35.3451V15.2389C8.68312 15.1243 8.72438 15.0137 8.79837 14.9262C8.87237 14.8386 8.97449 14.7795 9.08727 14.7589L31.6824 9.31054C31.7551 9.2932 31.8308 9.2925 31.9038 9.30849C31.9769 9.32448 32.0454 9.35675 32.1042 9.4029C32.163 9.44904 32.2107 9.50786 32.2436 9.57499C32.2766 9.64211 32.2939 9.71581 32.2944 9.79057V35.1651C32.2944 35.296 32.2427 35.4217 32.1506 35.5147C32.0585 35.6077 31.9333 35.6606 31.8024 35.6619L9.19768 35.8419H9.18087ZM9.67531 15.6398V34.841L31.2887 34.6706V10.429L9.67531 15.6398Z" fill="#373331"/>
<path d="M9.18043 35.8419C9.1153 35.843 9.05065 35.8307 8.99041 35.806C8.93016 35.7812 8.87559 35.7444 8.83 35.6979C8.73636 35.6044 8.68369 35.4775 8.68359 35.3451V15.1117C8.68447 15.0013 8.72193 14.8943 8.79012 14.8075C8.8583 14.7206 8.95336 14.6588 9.06042 14.6317L11.0622 14.1373C11.1357 14.1196 11.2122 14.1187 11.2861 14.1345C11.36 14.1502 11.4295 14.1824 11.4894 14.2285C11.5487 14.2749 11.5966 14.3343 11.6295 14.4021C11.6624 14.4699 11.6793 14.5444 11.679 14.6197V35.3211C11.6791 35.45 11.629 35.5739 11.5395 35.6666C11.4499 35.7593 11.3278 35.8136 11.199 35.8179L9.19723 35.8347L9.18043 35.8419ZM9.67726 15.5006V34.8411H10.6853V15.251L9.67726 15.5006Z" fill="#373331"/>
<path d="M11.1822 57.7795C11.1417 57.7796 11.1014 57.7747 11.0622 57.7651L9.06042 57.2658C8.95336 57.2388 8.8583 57.177 8.79012 57.0901C8.72193 57.0032 8.68447 56.8962 8.68359 56.7858V36.7205C8.68369 36.5881 8.73636 36.4612 8.83 36.3676C8.92606 36.2766 9.05291 36.2252 9.18523 36.2236L11.187 36.2404C11.3158 36.2448 11.4379 36.2991 11.5275 36.3918C11.617 36.4845 11.6671 36.6084 11.667 36.7373V57.2826C11.6681 57.3584 11.6513 57.4333 11.6179 57.5013C11.5846 57.5693 11.5356 57.6284 11.475 57.6739C11.3918 57.7406 11.2888 57.7778 11.1822 57.7795ZM9.67726 56.3946L10.6853 56.6346V37.2269H9.67726V56.3946Z" fill="#373331"/>
<path d="M12.4944 35.8155C12.4293 35.8165 12.3647 35.8043 12.3044 35.7795C12.2442 35.7548 12.1896 35.718 12.144 35.6715C12.0518 35.5782 12.0001 35.4523 12 35.3211V14.3965C12.0006 14.2856 12.0383 14.1782 12.107 14.0912C12.1757 14.0042 12.2715 13.9427 12.3792 13.9165L14.5394 13.386C14.6125 13.3684 14.6886 13.3675 14.7622 13.3832C14.8357 13.399 14.9048 13.4312 14.9642 13.4772C15.0235 13.5237 15.0714 13.5831 15.1043 13.6509C15.1372 13.7187 15.1541 13.7931 15.1538 13.8685V35.3043C15.1539 35.4332 15.1039 35.5571 15.0143 35.6498C14.9247 35.7425 14.8026 35.7968 14.6738 35.8011L12.5136 35.8179L12.4944 35.8155ZM12.9913 14.7853V34.8171H14.1601V14.4997L12.9913 14.7853Z" fill="#373331"/>
<path d="M14.657 58.7491C14.6165 58.7492 14.5762 58.7443 14.537 58.7347L12.3768 58.1946C12.2698 58.1675 12.1747 58.1057 12.1065 58.0189C12.0383 57.932 12.0009 57.825 12 57.7146V36.7444C12.0001 36.612 12.0528 36.4851 12.1464 36.3916C12.2426 36.3008 12.3694 36.2494 12.5016 36.2476L14.6618 36.2644C14.7906 36.2687 14.9127 36.323 15.0023 36.4157C15.0919 36.5084 15.1419 36.6323 15.1418 36.7612V58.2522C15.1429 58.328 15.1261 58.4029 15.0928 58.4709C15.0594 58.5389 15.0104 58.598 14.9498 58.6435C14.8666 58.7102 14.7636 58.7474 14.657 58.7491ZM12.9913 57.3234L14.1601 57.6162V37.2532H12.9913V57.3234Z" fill="#373331"/>
<path d="M16.0808 35.7867C15.949 35.7867 15.8227 35.7344 15.7295 35.6412C15.6363 35.548 15.584 35.4217 15.584 35.2899V13.518C15.5846 13.4072 15.6222 13.2997 15.691 13.2127C15.7597 13.1258 15.8555 13.0642 15.9632 13.038L18.3034 12.4644C18.3763 12.4461 18.4524 12.4447 18.526 12.4603C18.5995 12.4759 18.6685 12.5081 18.7278 12.5544C18.787 12.6007 18.8349 12.6599 18.8678 12.7274C18.9008 12.795 18.9179 12.8692 18.9178 12.9444V35.2659C18.9179 35.3948 18.8678 35.5187 18.7783 35.6114C18.6887 35.7041 18.5666 35.7584 18.4378 35.7627L16.0976 35.7819L16.0808 35.7867ZM16.5777 13.9069V34.7883H17.9241V13.578L16.5777 13.9069Z" fill="#373331"/>
<path d="M18.4171 59.6899C18.3766 59.69 18.3363 59.6852 18.2971 59.6755L15.9569 59.0827C15.8498 59.0556 15.7548 58.9938 15.6866 58.9069C15.6184 58.8201 15.581 58.713 15.5801 58.6026V36.7612C15.5802 36.6288 15.6328 36.5019 15.7265 36.4083C15.774 36.3642 15.83 36.3302 15.8911 36.3084C15.9521 36.2865 16.017 36.2772 16.0817 36.2811L18.4219 36.3003C18.5507 36.3047 18.6728 36.359 18.7624 36.4517C18.8519 36.5444 18.902 36.6683 18.9019 36.7972V59.1979C18.903 59.2736 18.8862 59.3485 18.8528 59.4165C18.8195 59.4845 18.7705 59.5437 18.7099 59.5891C18.6261 59.6541 18.5231 59.6896 18.4171 59.6899ZM16.5737 58.2186L17.9202 58.557V37.2844H16.5737V58.2186Z" fill="#373331"/>
<path d="M19.9519 35.7556C19.8868 35.7566 19.8221 35.7444 19.7619 35.7196C19.7016 35.6949 19.6471 35.6581 19.6015 35.6116C19.5078 35.518 19.4552 35.3911 19.4551 35.2588V12.5652C19.4557 12.4544 19.4933 12.3469 19.562 12.2599C19.6308 12.173 19.7266 12.1114 19.8343 12.0852L22.3761 11.4612C22.4497 11.4445 22.5262 11.4448 22.5997 11.4618C22.6733 11.4788 22.7421 11.5123 22.8009 11.5596C22.8602 11.606 22.9082 11.6654 22.941 11.7332C22.9739 11.801 22.9908 11.8755 22.9905 11.9508V35.2491C22.9905 35.3801 22.9388 35.5057 22.8467 35.5988C22.7546 35.6918 22.6294 35.7447 22.4985 35.746L19.9567 35.7652L19.9519 35.7556ZM20.4487 12.9541V34.7571H21.9968V12.5748L20.4487 12.9541Z" fill="#373331"/>
<path d="M22.4937 60.7124C22.4532 60.7125 22.4129 60.7076 22.3737 60.698L19.8319 60.0619C19.7248 60.0348 19.6298 59.973 19.5616 59.8862C19.4934 59.7993 19.456 59.6923 19.4551 59.5819V36.8044C19.4552 36.672 19.5078 36.5451 19.6015 36.4515C19.6476 36.4044 19.703 36.3673 19.7641 36.3425C19.8252 36.3178 19.8908 36.3058 19.9567 36.3075L22.4985 36.3267C22.6294 36.328 22.7546 36.3809 22.8467 36.4739C22.9388 36.567 22.9905 36.6926 22.9905 36.8236V60.2155C22.9916 60.2913 22.9748 60.3662 22.9415 60.4342C22.9081 60.5022 22.8591 60.5613 22.7985 60.6068C22.7121 60.6761 22.6044 60.7134 22.4937 60.7124ZM20.4487 59.1907L21.9968 59.5795V37.3156H20.4487V59.1907Z" fill="#373331"/>
<path d="M24.1668 35.7219C24.1016 35.7229 24.037 35.7107 23.9767 35.6859C23.9165 35.6612 23.8619 35.6244 23.8163 35.5779C23.7227 35.4843 23.67 35.3574 23.6699 35.2251V11.5307C23.6705 11.4198 23.7082 11.3124 23.7769 11.2254C23.8456 11.1384 23.9414 11.0769 24.0491 11.0507L26.8189 10.3594C26.8921 10.3418 26.9682 10.3408 27.0417 10.3566C27.1153 10.3724 27.1843 10.4045 27.2438 10.4506C27.3031 10.4971 27.351 10.5565 27.3839 10.6243C27.4167 10.6921 27.4337 10.7665 27.4334 10.8418V35.2035C27.4334 35.3324 27.3834 35.4563 27.2938 35.549C27.2043 35.6417 27.0822 35.6959 26.9533 35.7003L24.1836 35.7219H24.1668ZM24.6636 11.9195V34.721L26.4397 34.7066V11.4851L24.6636 11.9195Z" fill="#373331"/>
<path d="M26.9365 61.8237C26.8961 61.8238 26.8558 61.8189 26.8165 61.8093L24.0467 61.1156C23.9397 61.0886 23.8446 61.0268 23.7764 60.9399C23.7083 60.853 23.6708 60.746 23.6699 60.6356V36.838C23.67 36.7057 23.7227 36.5787 23.8163 36.4852C23.9129 36.395 24.0394 36.3437 24.1716 36.3412L26.9413 36.3628C27.0702 36.3671 27.1923 36.4214 27.2818 36.5141C27.3714 36.6068 27.4214 36.7307 27.4214 36.8596V61.3269C27.4225 61.4026 27.4057 61.4775 27.3723 61.5455C27.3389 61.6135 27.29 61.6726 27.2294 61.7181C27.1462 61.7848 27.0432 61.822 26.9365 61.8237ZM24.6636 60.2468L26.4397 60.6908V37.3517H24.6636V60.2468Z" fill="#373331"/>
<path d="M31.7958 63.0406C31.7562 63.0405 31.7167 63.0357 31.6782 63.0262L28.6444 62.2677C28.5373 62.2407 28.4423 62.1788 28.3741 62.092C28.3059 62.0051 28.2685 61.8981 28.2676 61.7877V36.874C28.2676 36.7423 28.3199 36.6159 28.4131 36.5227C28.5063 36.4295 28.6326 36.3772 28.7644 36.3772L31.791 36.4012C31.9228 36.4012 32.0492 36.4535 32.1423 36.5467C32.2355 36.6399 32.2878 36.7663 32.2878 36.898V62.5437C32.2882 62.6091 32.2755 62.6738 32.2507 62.7342C32.2258 62.7947 32.1892 62.8496 32.143 62.8958C32.0968 62.942 32.0419 62.9785 31.9815 63.0034C31.9211 63.0283 31.8563 63.0409 31.791 63.0406H31.7958ZM29.2612 61.3965L31.299 61.9077V37.3901L29.2612 37.3757V61.3965Z" fill="#373331"/>
<path d="M28.7644 35.6859C28.6993 35.687 28.6346 35.6747 28.5744 35.65C28.5141 35.6252 28.4596 35.5884 28.414 35.5419C28.3203 35.4484 28.2677 35.3215 28.2676 35.1891V10.4026C28.2682 10.2918 28.3058 10.1843 28.3745 10.0973C28.4433 10.0104 28.5391 9.94885 28.6468 9.92261L31.683 9.17616C31.7559 9.15791 31.8321 9.15654 31.9056 9.17214C31.9791 9.18774 32.0482 9.2199 32.1074 9.26618C32.1667 9.31247 32.2146 9.37165 32.2475 9.43923C32.2804 9.50681 32.2975 9.58102 32.2974 9.65619V35.1651C32.2974 35.2969 32.2451 35.4232 32.1519 35.5164C32.0588 35.6096 31.9324 35.6619 31.8006 35.6619L28.774 35.6859H28.7644ZM29.2612 10.7915V34.6875L31.299 34.6731V10.2922L29.2612 10.7915Z" fill="#373331"/>
<path d="M8.82374 14.0341H7.83008V35.3523H8.82374V14.0341Z" fill="#373331"/>
<path d="M8.82374 36.7108H7.83008V58.041H8.82374V36.7108Z" fill="#373331"/>
<path d="M33.7612 36.91H32.7676V64.4639H33.7612V36.91Z" fill="#373331"/>
<path d="M33.7612 7.61365H32.7676V35.1531H33.7612V7.61365Z" fill="#373331"/>
<path d="M9.26191 15.5702C9.18969 15.5715 9.11806 15.557 9.0521 15.5275C8.98615 15.4981 8.92749 15.4545 8.88028 15.3998L7.94422 14.2693C7.88853 14.2042 7.85082 14.1256 7.83482 14.0414C7.81882 13.9572 7.82509 13.8703 7.85301 13.7893C7.87921 13.7099 7.92474 13.6383 7.98549 13.5809C8.04624 13.5235 8.12031 13.4821 8.20104 13.4605L33.1387 7.01603C33.237 6.99044 33.3407 6.99559 33.436 7.03078C33.5313 7.06597 33.6135 7.12951 33.6715 7.21284C33.7291 7.29651 33.76 7.39569 33.76 7.49726C33.76 7.59883 33.7291 7.69801 33.6715 7.78168L32.1906 9.89382C32.1231 9.99412 32.0203 10.0653 31.9026 10.093L9.37952 15.5558C9.34104 15.5653 9.30155 15.5702 9.26191 15.5702ZM9.2067 14.2285L9.44672 14.5189L31.485 9.17137L32.085 8.31451L9.2067 14.2285Z" fill="#373331"/>
<path d="M33.2637 37.4068L8.32602 37.2076C8.19508 37.2064 8.06994 37.1535 7.9778 37.0604C7.88566 36.9674 7.83398 36.8417 7.83398 36.7108V35.3523C7.83398 35.2214 7.88566 35.0957 7.9778 35.0027C8.06994 34.9096 8.19508 34.8567 8.32602 34.8555L33.2637 34.6562C33.3963 34.6564 33.5237 34.708 33.6189 34.8003C33.7126 34.8938 33.7652 35.0207 33.7653 35.1531V36.91C33.7653 37.0418 33.713 37.1681 33.6198 37.2613C33.5266 37.3545 33.4002 37.4068 33.2685 37.4068H33.2637ZM8.82285 36.2068L32.7668 36.3964V35.6427L8.82285 35.8323V36.2068Z" fill="#373331"/>
<path d="M33.2635 65.0639C33.2213 65.0643 33.1793 65.0586 33.1387 65.0471L8.20104 58.6027C8.12031 58.5811 8.04624 58.5397 7.98549 58.4823C7.92474 58.4249 7.87921 58.3533 7.85301 58.2739C7.82509 58.1929 7.81882 58.1059 7.83482 58.0218C7.85082 57.9376 7.88853 57.859 7.94422 57.7939L8.88028 56.6826C8.9393 56.6106 9.01754 56.5568 9.10591 56.5275C9.19428 56.4982 9.28916 56.4945 9.37952 56.517L31.9026 61.9629C32.0203 61.9907 32.1231 62.0618 32.1906 62.1621L33.6715 64.2743C33.7291 64.358 33.76 64.4571 33.76 64.5587C33.76 64.6603 33.7291 64.7595 33.6715 64.8431C33.6269 64.9106 33.5664 64.9661 33.4952 65.0046C33.424 65.0432 33.3444 65.0635 33.2635 65.0639ZM9.2067 57.8347L32.085 63.7487L31.485 62.8918L9.44672 57.5466L9.2067 57.8347Z" fill="#373331"/>
<path d="M39.3621 58.4778C39.2967 58.4781 39.232 58.4655 39.1716 58.4407C39.1111 58.4158 39.0563 58.3792 39.0101 58.333C38.9639 58.2868 38.9273 58.2319 38.9024 58.1715C38.8776 58.1111 38.8649 58.0463 38.8652 57.981V36.7468C38.8652 36.615 38.9176 36.4886 39.0108 36.3955C39.1039 36.3023 39.2303 36.25 39.3621 36.25L61.2035 36.2115C61.3351 36.2122 61.4611 36.2647 61.5541 36.3578C61.6472 36.4508 61.6997 36.5768 61.7004 36.7084V56.5505C61.737 56.6244 61.7547 56.7061 61.752 56.7885C61.7493 56.8709 61.7263 56.9514 61.6849 57.0227C61.6436 57.094 61.5852 57.1539 61.515 57.1972C61.4448 57.2404 61.365 57.2656 61.2827 57.2705H61.2251L39.3837 58.4706L39.3621 58.4778ZM39.8565 37.2412V57.453L60.7091 56.3129V37.2052L39.8565 37.2412Z" fill="#373331"/>
<path d="M61.2035 35.8516L39.3621 35.8132C39.2303 35.8132 39.1039 35.7608 39.0108 35.6676C38.9176 35.5745 38.8652 35.4481 38.8652 35.3163V14.3125C38.8647 14.2446 38.8783 14.1772 38.9051 14.1148C38.9319 14.0523 38.9714 13.9961 39.021 13.9496C39.0706 13.9032 39.1293 13.8675 39.1933 13.8449C39.2574 13.8222 39.3255 13.8131 39.3933 13.8181H39.4293L61.2347 14.9942C61.3636 14.9985 61.4857 15.0528 61.5752 15.1455C61.6648 15.2382 61.7148 15.3621 61.7148 15.491V35.3523C61.7148 35.4841 61.6624 35.6105 61.5693 35.7036C61.4761 35.7968 61.3497 35.8492 61.2179 35.8492L61.2035 35.8516ZM39.8541 34.8195L60.7067 34.8579V15.9638L39.8541 14.8382V34.8195Z" fill="#373331"/>
<path d="M59.0203 57.4026C58.8887 57.402 58.7627 57.3494 58.6697 57.2564C58.5766 57.1633 58.5241 57.0373 58.5234 56.9058V36.7108C58.5234 36.5791 58.5758 36.4527 58.669 36.3595C58.7621 36.2663 58.8885 36.214 59.0203 36.214H61.2044C61.336 36.2146 61.462 36.2672 61.555 36.3602C61.6481 36.4532 61.7006 36.5792 61.7013 36.7108V56.5529C61.7379 56.6268 61.7556 56.7086 61.7529 56.791C61.7502 56.8734 61.7272 56.9538 61.6858 57.0251C61.6444 57.0964 61.5861 57.1564 61.5159 57.1996C61.4457 57.2429 61.3659 57.2681 61.2836 57.273H61.226L59.0443 57.4026H59.0203ZM59.5243 37.2077V56.3801L60.7244 56.3153V37.2053L59.5243 37.2077Z" fill="#373331"/>
<path d="M61.2044 35.8515H59.0203C58.8885 35.8515 58.7621 35.7992 58.669 35.706C58.5758 35.6128 58.5234 35.4865 58.5234 35.3547V15.2294C58.5237 15.1621 58.5375 15.0957 58.5641 15.0339C58.5907 14.9722 58.6294 14.9164 58.6781 14.8701C58.7267 14.8237 58.7842 14.7876 58.8471 14.7639C58.9101 14.7403 58.9771 14.7296 59.0443 14.7325L61.2308 14.8525C61.3597 14.8569 61.4817 14.9112 61.5713 15.0039C61.6609 15.0966 61.7109 15.2205 61.7108 15.3494V35.3547C61.7108 35.4865 61.6585 35.6128 61.5653 35.706C61.4722 35.7992 61.3458 35.8515 61.214 35.8515H61.2044ZM59.5243 34.8555H60.7244V15.8198L59.5243 15.755V34.8555Z" fill="#373331"/>
<path d="M57.5687 35.8444H55.2429C55.1112 35.8444 54.9848 35.792 54.8916 35.6988C54.7984 35.6057 54.7461 35.4793 54.7461 35.3475V15.0254C54.7463 14.9579 54.7602 14.8913 54.787 14.8294C54.8137 14.7674 54.8527 14.7116 54.9016 14.6652C54.9505 14.6187 55.0083 14.5827 55.0715 14.5592C55.1347 14.5357 55.202 14.5253 55.2693 14.5285L57.5951 14.6557C57.7239 14.6601 57.846 14.7144 57.9356 14.8071C58.0252 14.8998 58.0752 15.0237 58.0751 15.1526V35.3475C58.0751 35.4793 58.0228 35.6057 57.9296 35.6988C57.8364 35.792 57.7101 35.8444 57.5783 35.8444H57.5687ZM55.7398 34.8411H57.0718V15.623L55.7398 15.551V34.8411Z" fill="#373331"/>
<path d="M55.2429 57.609C55.1114 57.6084 54.9853 57.5558 54.8923 57.4628C54.7993 57.3698 54.7467 57.2438 54.7461 57.1122V36.7108C54.7461 36.5791 54.7984 36.4527 54.8916 36.3595C54.9848 36.2663 55.1112 36.214 55.2429 36.214H57.5687C57.7003 36.2146 57.8263 36.2672 57.9193 36.3602C58.0123 36.4532 58.0649 36.5792 58.0655 36.7108V56.9802C58.0656 57.1091 58.0156 57.233 57.926 57.3257C57.8364 57.4184 57.7143 57.4726 57.5855 57.477L55.2597 57.6042L55.2429 57.609ZM55.7398 37.2077V56.5865L57.0718 56.5145V37.2125L55.7398 37.2077Z" fill="#373331"/>
<path d="M53.7632 35.8395H51.3894C51.2576 35.8395 51.1313 35.7872 51.0381 35.694C50.9449 35.6008 50.8926 35.4744 50.8926 35.3427V14.8165C50.8928 14.7491 50.9067 14.6824 50.9334 14.6205C50.9602 14.5586 50.9992 14.5027 51.048 14.4563C51.0969 14.4099 51.1547 14.3738 51.2179 14.3503C51.2812 14.3269 51.3485 14.3164 51.4158 14.3197L53.7896 14.4469C53.9184 14.4512 54.0405 14.5055 54.1301 14.5982C54.2196 14.6909 54.2697 14.8148 54.2696 14.9437V35.3451C54.2696 35.4768 54.2173 35.6032 54.1241 35.6964C54.0309 35.7896 53.9045 35.8419 53.7728 35.8419L53.7632 35.8395ZM51.8838 34.841H53.2639V15.3997L51.8838 15.3253V34.841Z" fill="#373331"/>
<path d="M51.3875 57.8202C51.2559 57.8196 51.1299 57.7671 51.0368 57.674C50.9438 57.581 50.8913 57.455 50.8906 57.3234V36.7252C50.8906 36.5935 50.943 36.4671 51.0361 36.3739C51.1293 36.2807 51.2557 36.2284 51.3875 36.2284H53.7612C53.8928 36.229 54.0188 36.2816 54.1118 36.3746C54.2049 36.4676 54.2574 36.5937 54.258 36.7252V57.1986C54.2581 57.3275 54.2081 57.4514 54.1185 57.5441C54.0289 57.6368 53.9069 57.6911 53.778 57.6954L51.4043 57.825L51.3875 57.8202ZM51.8843 37.2221V56.7978L53.2644 56.7234V37.2173L51.8843 37.2221Z" fill="#373331"/>
<path d="M49.8776 35.8323H47.4559C47.3241 35.8323 47.1977 35.7799 47.1045 35.6868C47.0114 35.5936 46.959 35.4672 46.959 35.3355V14.6005C46.9582 14.5329 46.9717 14.4658 46.9986 14.4038C47.0254 14.3417 47.0651 14.2861 47.115 14.2404C47.1632 14.1931 47.2208 14.1564 47.284 14.1329C47.3473 14.1093 47.4149 14.0993 47.4823 14.1036L49.904 14.2356C50.0329 14.24 50.1549 14.2943 50.2445 14.387C50.3341 14.4797 50.3841 14.6036 50.384 14.7325V35.3355C50.384 35.4672 50.3317 35.5936 50.2385 35.6868C50.1454 35.7799 50.019 35.8323 49.8872 35.8323H49.8776ZM47.9575 34.8338H49.3976V15.2029L47.9575 15.1261V34.8338Z" fill="#373331"/>
<path d="M47.4558 58.0362C47.3242 58.0356 47.1982 57.9831 47.1052 57.89C47.0122 57.797 46.9596 57.671 46.959 57.5394V36.7324C46.959 36.6007 47.0113 36.4743 47.1045 36.3811C47.1977 36.2879 47.3241 36.2356 47.4558 36.2356H49.8776C50.0092 36.2362 50.1352 36.2888 50.2282 36.3818C50.3212 36.4749 50.3738 36.6009 50.3744 36.7324V57.4026C50.3745 57.5315 50.3245 57.6554 50.2349 57.7481C50.1453 57.8408 50.0232 57.8951 49.8944 57.8994L47.4726 58.0338L47.4558 58.0362ZM47.9527 37.2413V57.0258L49.3927 56.9466V37.2245L47.9527 37.2413Z" fill="#373331"/>
<path d="M45.9159 35.8252H43.4461C43.3143 35.8252 43.1879 35.7729 43.0948 35.6797C43.0016 35.5865 42.9493 35.4601 42.9493 35.3284V14.3846C42.9484 14.317 42.9619 14.2499 42.9888 14.1879C43.0157 14.1259 43.0554 14.0702 43.1053 14.0246C43.1541 13.9782 43.2118 13.9421 43.2749 13.9186C43.338 13.8951 43.4052 13.8846 43.4725 13.8878L45.9423 14.0222C46.0711 14.0265 46.1932 14.0808 46.2828 14.1735C46.3723 14.2662 46.4224 14.3901 46.4223 14.519V35.3212C46.4223 35.4529 46.3699 35.5793 46.2768 35.6725C46.1836 35.7657 46.0572 35.818 45.9255 35.818L45.9159 35.8252ZM43.9429 34.8267H45.419V14.9894L43.9429 14.9198V34.8267Z" fill="#373331"/>
<path d="M43.4421 58.2547C43.3106 58.254 43.1846 58.2015 43.0915 58.1084C42.9985 58.0154 42.9459 57.8894 42.9453 57.7578V36.7396C42.9453 36.6079 42.9977 36.4815 43.0908 36.3883C43.184 36.2951 43.3104 36.2428 43.4421 36.2428H45.9119C46.0435 36.2434 46.1695 36.296 46.2625 36.389C46.3556 36.4821 46.4081 36.6081 46.4087 36.7396V57.621C46.4088 57.7499 46.3588 57.8738 46.2692 57.9665C46.1796 58.0592 46.0575 58.1135 45.9287 58.1179L43.459 58.2523L43.4421 58.2547ZM43.9414 37.2413V57.2346L45.4175 57.153V37.2413H43.9414Z" fill="#373331"/>
<path d="M39.362 58.4779C39.2329 58.4786 39.1086 58.4287 39.0158 58.339C38.923 58.2493 38.8689 58.1269 38.8651 57.9978C38.8627 57.9699 38.8627 57.9418 38.8651 57.9138V36.7468C38.8651 36.6151 38.9175 36.4887 39.0106 36.3955C39.1038 36.3023 39.2302 36.25 39.362 36.25H41.8821C42.0137 36.2506 42.1397 36.3032 42.2327 36.3962C42.3258 36.4893 42.3783 36.6153 42.379 36.7468V57.849C42.379 57.9779 42.329 58.1018 42.2394 58.1945C42.1499 58.2873 42.0278 58.3415 41.8989 58.3459L39.3908 58.4827L39.362 58.4779ZM39.842 37.2413V57.453L41.3685 57.3714V37.2413H39.842Z" fill="#373331"/>
<path d="M41.8726 35.8179H39.3524C39.2206 35.8179 39.0943 35.7656 39.0011 35.6724C38.9079 35.5792 38.8556 35.4528 38.8556 35.3211V14.1517C38.8534 14.0457 38.8854 13.9418 38.9467 13.8554C39.0081 13.769 39.0956 13.7045 39.1964 13.6716C39.2879 13.6436 39.3857 13.6436 39.4772 13.6716L41.899 13.8012C42.0278 13.8056 42.1499 13.8599 42.2395 13.9526C42.329 14.0453 42.3791 14.1692 42.379 14.2981V35.3211C42.379 35.4528 42.3267 35.5792 42.2335 35.6724C42.1403 35.7656 42.0139 35.8179 41.8822 35.8179H41.8726ZM39.842 34.8194H41.3685V14.7685L39.842 14.6797V34.8194Z" fill="#373331"/>
<path d="M62.2331 58.4274C62.1604 58.4276 62.0885 58.4117 62.0225 58.381C61.9566 58.3503 61.8982 58.3055 61.8515 58.2498L60.8242 57.0305C60.7499 56.9417 60.7091 56.8296 60.709 56.7137V36.7084C60.709 36.5766 60.7613 36.4502 60.8545 36.3571C60.9477 36.2639 61.074 36.2115 61.2058 36.2115H62.2955C62.4271 36.2122 62.5531 36.2647 62.6461 36.3578C62.7391 36.4508 62.7917 36.5768 62.7923 36.7084V57.9282C62.7921 58.0534 62.7449 58.174 62.66 58.266C62.5751 58.358 62.4587 58.4148 62.3339 58.425H62.2715L62.2331 58.4274ZM61.7026 56.5313L61.7987 56.6465V37.2052H61.7026V56.5313Z" fill="#373331"/>
<path d="M61.2039 57.2826C61.1385 57.2829 61.0738 57.2703 61.0134 57.2455C60.9529 57.2206 60.898 57.184 60.8519 57.1378C60.8057 57.0916 60.7691 57.0367 60.7442 56.9763C60.7194 56.9159 60.7067 56.8511 60.707 56.7858V56.7138C60.7073 56.6118 60.739 56.5124 60.7977 56.429C60.8564 56.3456 60.9394 56.2823 61.0353 56.2477C61.1312 56.2131 61.2355 56.2089 61.3339 56.2356C61.4324 56.2623 61.5202 56.3186 61.5855 56.397L61.6431 56.4666C61.7021 56.5377 61.7402 56.6239 61.7529 56.7155C61.7656 56.8071 61.7526 56.9004 61.7151 56.9849C61.6777 57.0695 61.6175 57.1419 61.5411 57.1941C61.4648 57.2462 61.3754 57.2761 61.2831 57.2802H61.2039V57.2826Z" fill="#373331"/>
<path d="M62.2959 35.8539H61.2039C61.0721 35.8539 60.9457 35.8015 60.8526 35.7084C60.7594 35.6152 60.707 35.4888 60.707 35.3571V15.3493C60.7069 15.2316 60.7486 15.1176 60.8246 15.0277L61.8399 13.8276C61.889 13.7674 61.952 13.7199 62.0235 13.6894C62.095 13.6589 62.1728 13.6462 62.2503 13.6524H62.3247C62.4508 13.6609 62.569 13.7169 62.6554 13.8091C62.7418 13.9013 62.79 14.0229 62.7904 14.1492V35.3571C62.7904 35.4888 62.738 35.6152 62.6449 35.7084C62.5517 35.8015 62.4253 35.8539 62.2935 35.8539H62.2959ZM61.7031 34.8578H61.7991V15.4165L61.7031 15.5317V34.8578Z" fill="#373331"/>
<path d="M38.1617 59.8172C38.0334 59.8122 37.9121 59.7581 37.8227 59.6661C37.7333 59.574 37.6828 59.4511 37.6816 59.3227V36.7612C37.6816 36.6295 37.734 36.5031 37.8272 36.4099C37.9203 36.3167 38.0467 36.2644 38.1785 36.2644H39.405C39.5367 36.2644 39.6631 36.3167 39.7563 36.4099C39.8494 36.5031 39.9018 36.6295 39.9018 36.7612V57.9787C39.9021 58.0814 39.8703 58.1817 39.8109 58.2656C39.7516 58.3495 39.6676 58.4128 39.5706 58.4467L38.6369 59.6252C38.5938 59.6791 38.54 59.7236 38.4788 59.7559C38.4177 59.7881 38.3506 59.8073 38.2817 59.8124H38.2121L38.1617 59.8172ZM38.6585 37.2557V57.9787L38.8985 57.6834V37.2413L38.6585 37.2557Z" fill="#373331"/>
<path d="M39.3954 35.8132H38.1617C38.0337 35.8089 37.9123 35.7553 37.8228 35.6636C37.7334 35.5719 37.6828 35.4492 37.6816 35.3212V12.7597C37.6821 12.6919 37.6961 12.6249 37.7229 12.5626C37.7497 12.5004 37.7887 12.4441 37.8376 12.3972C37.887 12.3511 37.9452 12.3154 38.0087 12.2923C38.0723 12.2692 38.1398 12.2592 38.2073 12.2628H38.2865C38.3563 12.2671 38.4244 12.2859 38.4864 12.3182C38.5484 12.3504 38.6029 12.3954 38.6465 12.45L39.6738 13.7461C39.7456 13.79 39.8052 13.8513 39.8472 13.9242C39.8891 13.9972 39.912 14.0796 39.9138 14.1637V35.3212C39.9132 35.3879 39.8992 35.4538 39.8726 35.5149C39.846 35.5761 39.8074 35.6313 39.759 35.6772C39.7106 35.7231 39.6535 35.7588 39.591 35.7822C39.5285 35.8055 39.462 35.8161 39.3954 35.8132ZM38.6753 34.8195H38.9153V14.3798L38.6753 14.0869V34.8195Z" fill="#373331"/>
<path d="M61.205 15.8463H61.1786L39.3227 14.6462C39.2517 14.6414 39.1826 14.6213 39.12 14.5874C39.0575 14.5534 39.003 14.5063 38.9603 14.4494L37.777 12.9565C37.7175 12.8812 37.6811 12.7904 37.6721 12.6949C37.6631 12.5994 37.682 12.5033 37.7264 12.4183C37.7708 12.3333 37.8389 12.2629 37.9224 12.2157C38.0059 12.1686 38.1013 12.1466 38.1971 12.1524L62.3235 13.5517C62.4161 13.5569 62.5055 13.588 62.5814 13.6414C62.6573 13.6948 62.7167 13.7684 62.7529 13.8538C62.7892 13.9393 62.8007 14.0331 62.7863 14.1248C62.7719 14.2165 62.7322 14.3023 62.6715 14.3726L62.5971 14.459L61.5842 15.659C61.5384 15.716 61.4808 15.7622 61.4153 15.7946C61.3498 15.8269 61.278 15.8445 61.205 15.8463ZM39.6035 13.6861L60.977 14.8478L61.2674 14.5046L39.2387 13.2253L39.6035 13.6861Z" fill="#373331"/>
<path d="M38.1617 37.2413C38.0357 37.2371 37.916 37.1852 37.8269 37.0961C37.7378 37.0069 37.6859 36.8872 37.6817 36.7613V35.3212C37.6803 35.1912 37.7297 35.0658 37.8194 34.9717C37.909 34.8776 38.0318 34.8221 38.1617 34.8171L62.2881 34.8603C62.4199 34.8603 62.5462 34.9127 62.6394 35.0059C62.7326 35.099 62.7849 35.2254 62.7849 35.3572V36.7061C62.7849 36.8378 62.7326 36.9642 62.6394 37.0574C62.5462 37.1506 62.4199 37.2029 62.2881 37.2029L38.1617 37.2413ZM38.6585 35.8012V36.2404L61.7913 36.1996V35.842L38.6585 35.8012Z" fill="#373331"/>
<path d="M38.1617 59.9011C38.0684 59.9013 37.9769 59.8751 37.8977 59.8257C37.8186 59.7763 37.755 59.7056 37.7141 59.6217C37.6733 59.5377 37.6569 59.444 37.6669 59.3513C37.6769 59.2585 37.7127 59.1704 37.7704 59.0971L38.9561 57.6018C39.0204 57.5199 39.1086 57.4602 39.2084 57.4309C39.3082 57.4017 39.4147 57.4043 39.513 57.4385C39.5386 57.4468 39.5635 57.4573 39.5874 57.4697L61.2344 56.2865C61.3085 56.2821 61.3827 56.295 61.451 56.3242C61.5193 56.3533 61.5799 56.3979 61.628 56.4545L61.664 56.4953L62.5785 57.5802L62.6073 57.6114L62.6697 57.6858C62.7282 57.7567 62.7661 57.8424 62.779 57.9334C62.7919 58.0245 62.7795 58.1173 62.743 58.2017C62.7065 58.2861 62.6474 58.3588 62.5722 58.4118C62.497 58.4647 62.4086 58.4959 62.3169 58.5018L38.1905 59.9011H38.1617ZM39.537 58.461L39.2465 58.8426L61.2752 57.5634L61.0352 57.2897L39.537 58.461Z" fill="#373331"/>
<path d="M39.3621 58.4779C39.2967 58.4782 39.232 58.4656 39.1716 58.4407C39.1111 58.4159 39.0563 58.3793 39.0101 58.3331C38.9639 58.2869 38.9273 58.232 38.9024 58.1716C38.8776 58.1112 38.8649 58.0464 38.8652 57.9811V57.9019C38.8656 57.7761 38.9135 57.6552 38.9995 57.5634C39.0855 57.4717 39.203 57.4159 39.3285 57.4074H39.3621L61.1795 56.2194C61.257 56.2141 61.3346 56.2277 61.4057 56.2591C61.4768 56.2905 61.5392 56.3386 61.5876 56.3994L61.6452 56.469C61.7042 56.5401 61.7422 56.6263 61.755 56.7179C61.7677 56.8095 61.7546 56.9028 61.7172 56.9873C61.6798 57.0719 61.6195 57.1443 61.5432 57.1965C61.4669 57.2486 61.3775 57.2785 61.2851 57.2826H61.2275L39.3861 58.4827L39.3621 58.4779Z" fill="#373331"/>
<path d="M11.7868 13.3501C11.7208 13.3514 11.6552 13.3395 11.5938 13.3151C11.5324 13.2907 11.4765 13.2543 11.4293 13.208C11.3822 13.1617 11.3447 13.1065 11.3191 13.0456C11.2936 12.9847 11.2804 12.9193 11.2804 12.8533V11.706L7.88899 10.2875C7.82879 10.2623 7.77414 10.2254 7.72817 10.1791C7.6822 10.1328 7.64581 10.0778 7.62107 10.0174C7.59633 9.95704 7.58373 9.89236 7.58399 9.82709C7.58425 9.76182 7.59736 9.69724 7.62257 9.63704C7.64779 9.57684 7.68461 9.52219 7.73095 9.47622C7.77728 9.43025 7.83222 9.39386 7.89262 9.36912C7.95302 9.34438 8.0177 9.33178 8.08297 9.33204C8.14823 9.33229 8.21281 9.3454 8.27302 9.37062L11.9789 10.9163C12.0694 10.9539 12.1467 11.0176 12.201 11.0992C12.2553 11.1808 12.284 11.2767 12.2837 11.3748V12.8533C12.2837 12.985 12.2313 13.1114 12.1382 13.2046C12.045 13.2977 11.9186 13.3501 11.7868 13.3501Z" fill="#373331"/>
<path d="M8.08221 60.614C7.9714 60.6147 7.86353 60.5784 7.77573 60.5108C7.68794 60.4432 7.62527 60.3482 7.59768 60.2409C7.57009 60.1335 7.57917 60.0201 7.62347 59.9185C7.66778 59.8169 7.74476 59.7331 7.84219 59.6803L10.1655 58.413C10.2814 58.3494 10.4178 58.3344 10.5447 58.3713C10.6717 58.4082 10.7787 58.494 10.8424 58.6098C10.906 58.7257 10.9211 58.8621 10.8842 58.989C10.8473 59.116 10.7614 59.223 10.6456 59.2867L8.32222 60.554C8.24864 60.5941 8.16602 60.6148 8.08221 60.614Z" fill="#373331"/>
<path d="M71.5032 60.614H63.9187C63.7869 60.614 63.6606 60.5616 63.5674 60.4685C63.4742 60.3753 63.4219 60.2489 63.4219 60.1172V9.82901C63.4219 9.76376 63.4347 9.69916 63.4597 9.63888C63.4847 9.5786 63.5213 9.52383 63.5674 9.4777C63.6135 9.43156 63.6683 9.39496 63.7286 9.37C63.7889 9.34503 63.8535 9.33218 63.9187 9.33218H71.5032C71.5689 9.33154 71.634 9.34392 71.6948 9.36861C71.7557 9.39329 71.811 9.42979 71.8576 9.47599C71.9043 9.52219 71.9413 9.57717 71.9666 9.63776C71.9918 9.69836 72.0049 9.76336 72.0048 9.82901V60.1172C72.0049 60.1828 71.9918 60.2478 71.9666 60.3084C71.9413 60.369 71.9043 60.424 71.8576 60.4702C71.811 60.5164 71.7557 60.5529 71.6948 60.5776C71.634 60.6022 71.5689 60.6146 71.5032 60.614ZM64.4155 59.6203H71.0064V10.3258H64.4155V59.6203Z" fill="#373331"/>
<path d="M59.4265 14.1277C59.3613 14.1277 59.2967 14.1149 59.2364 14.0899C59.1761 14.065 59.1214 14.0284 59.0752 13.9822C59.0291 13.9361 58.9925 13.8813 58.9675 13.821C58.9426 13.7608 58.9297 13.6962 58.9297 13.6309V12.0084C58.9289 11.9146 58.9548 11.8225 59.0046 11.743C59.0544 11.6635 59.1258 11.5998 59.2105 11.5596L63.7036 9.38023C63.7627 9.34713 63.828 9.32647 63.8954 9.31952C63.9628 9.31257 64.0309 9.31947 64.0955 9.3398C64.1601 9.36013 64.2199 9.39347 64.2712 9.43776C64.3224 9.48204 64.3641 9.53634 64.3936 9.59733C64.4231 9.65831 64.4398 9.72468 64.4427 9.79236C64.4457 9.86005 64.4347 9.92761 64.4105 9.9909C64.3864 10.0542 64.3495 10.1119 64.3023 10.1604C64.255 10.2089 64.1983 10.2473 64.1357 10.2731L59.9234 12.318V13.6285C59.9237 13.694 59.9111 13.7588 59.8862 13.8194C59.8614 13.8799 59.8249 13.935 59.7787 13.9814C59.7325 14.0278 59.6777 14.0646 59.6172 14.0897C59.5568 14.1148 59.492 14.1277 59.4265 14.1277Z" fill="#373331"/>
<path d="M63.9193 60.614C63.8353 60.6146 63.7525 60.5931 63.6793 60.5516L60.3959 58.7059C60.3372 58.6755 60.2852 58.6336 60.2429 58.5827C60.2007 58.5318 60.1691 58.473 60.15 58.4096C60.1309 58.3463 60.1247 58.2798 60.1317 58.214C60.1388 58.1483 60.159 58.0846 60.1911 58.0268C60.2232 57.969 60.2666 57.9182 60.3187 57.8774C60.3708 57.8367 60.4306 57.8068 60.4944 57.7896C60.5583 57.7723 60.625 57.7681 60.6905 57.777C60.756 57.786 60.8191 57.8081 60.8759 57.8419L64.1594 59.6852C64.2543 59.7391 64.3289 59.8228 64.3715 59.9234C64.4141 60.024 64.4224 60.1358 64.3951 60.2415C64.3678 60.3473 64.3064 60.4411 64.2204 60.5084C64.1344 60.5758 64.0286 60.6129 63.9193 60.614Z" fill="#373331"/>
<path d="M7.91959 14.2813H0.668708C0.53694 14.2813 0.410568 14.2289 0.317394 14.1357C0.22422 14.0426 0.171875 13.9162 0.171875 13.7844C0.171875 13.6527 0.22422 13.5263 0.317394 13.4331C0.410568 13.3399 0.53694 13.2876 0.668708 13.2876H7.91959C8.05136 13.2876 8.17773 13.3399 8.2709 13.4331C8.36408 13.5263 8.41642 13.6527 8.41642 13.7844C8.41642 13.9162 8.36408 14.0426 8.2709 14.1357C8.17773 14.2289 8.05136 14.2813 7.91959 14.2813Z" fill="#373331"/>
<path d="M7.91959 18.1192H0.668708C0.53694 18.1192 0.410568 18.0668 0.317394 17.9736C0.22422 17.8805 0.171875 17.7541 0.171875 17.6223C0.171875 17.4906 0.22422 17.3642 0.317394 17.271C0.410568 17.1778 0.53694 17.1255 0.668708 17.1255H7.91959C8.05136 17.1255 8.17773 17.1778 8.2709 17.271C8.36408 17.3642 8.41642 17.4906 8.41642 17.6223C8.41642 17.7541 8.36408 17.8805 8.2709 17.9736C8.17773 18.0668 8.05136 18.1192 7.91959 18.1192Z" fill="#373331"/>
<path d="M7.91959 21.9595H0.668708C0.53694 21.9595 0.410568 21.9071 0.317394 21.814C0.22422 21.7208 0.171875 21.5944 0.171875 21.4627C0.171875 21.3309 0.22422 21.2045 0.317394 21.1113C0.410568 21.0182 0.53694 20.9658 0.668708 20.9658H7.91959C8.05136 20.9658 8.17773 21.0182 8.2709 21.1113C8.36408 21.2045 8.41642 21.3309 8.41642 21.4627C8.41642 21.5944 8.36408 21.7208 8.2709 21.814C8.17773 21.9071 8.05136 21.9595 7.91959 21.9595Z" fill="#373331"/>
<path d="M7.91959 25.7973H0.668708C0.53694 25.7973 0.410568 25.7449 0.317394 25.6517C0.22422 25.5586 0.171875 25.4322 0.171875 25.3004C0.171875 25.1687 0.22422 25.0423 0.317394 24.9491C0.410568 24.8559 0.53694 24.8036 0.668708 24.8036H7.91959C8.05136 24.8036 8.17773 24.8559 8.2709 24.9491C8.36408 25.0423 8.41642 25.1687 8.41642 25.3004C8.41642 25.4322 8.36408 25.5586 8.2709 25.6517C8.17773 25.7449 8.05136 25.7973 7.91959 25.7973Z" fill="#373331"/>
<path d="M7.91959 29.6351H0.668708C0.53694 29.6351 0.410568 29.5828 0.317394 29.4896C0.22422 29.3965 0.171875 29.2701 0.171875 29.1383C0.171875 29.0065 0.22422 28.8802 0.317394 28.787C0.410568 28.6938 0.53694 28.6415 0.668708 28.6415H7.91959C8.05136 28.6415 8.17773 28.6938 8.2709 28.787C8.36408 28.8802 8.41642 29.0065 8.41642 29.1383C8.41642 29.2701 8.36408 29.3965 8.2709 29.4896C8.17773 29.5828 8.05136 29.6351 7.91959 29.6351Z" fill="#373331"/>
<path d="M7.9206 33.4754H0.669717C0.543604 33.4667 0.425511 33.4104 0.339274 33.318C0.253037 33.2255 0.205078 33.1038 0.205078 32.9774C0.205078 32.851 0.253037 32.7293 0.339274 32.6368C0.425511 32.5444 0.543604 32.4881 0.669717 32.4794H7.9206C8.04671 32.4881 8.16481 32.5444 8.25104 32.6368C8.33728 32.7293 8.38524 32.851 8.38524 32.9774C8.38524 33.1038 8.33728 33.2255 8.25104 33.318C8.16481 33.4104 8.04671 33.4667 7.9206 33.4754Z" fill="#373331"/>
<path d="M7.91959 37.3132H0.668708C0.53694 37.3132 0.410568 37.2609 0.317394 37.1677C0.22422 37.0746 0.171875 36.9482 0.171875 36.8164C0.171875 36.6846 0.22422 36.5583 0.317394 36.4651C0.410568 36.3719 0.53694 36.3196 0.668708 36.3196H7.91959C8.05136 36.3196 8.17773 36.3719 8.2709 36.4651C8.36408 36.5583 8.41642 36.6846 8.41642 36.8164C8.41642 36.9482 8.36408 37.0746 8.2709 37.1677C8.17773 37.2609 8.05136 37.3132 7.91959 37.3132Z" fill="#373331"/>
<path d="M7.91959 41.1511H0.668708C0.53694 41.1511 0.410568 41.0988 0.317394 41.0056C0.22422 40.9124 0.171875 40.7861 0.171875 40.6543C0.171875 40.5225 0.22422 40.3962 0.317394 40.303C0.410568 40.2098 0.53694 40.1575 0.668708 40.1575H7.91959C8.05136 40.1575 8.17773 40.2098 8.2709 40.303C8.36408 40.3962 8.41642 40.5225 8.41642 40.6543C8.41642 40.7861 8.36408 40.9124 8.2709 41.0056C8.17773 41.0988 8.05136 41.1511 7.91959 41.1511Z" fill="#373331"/>
<path d="M7.91959 44.989H0.668708C0.603463 44.989 0.538857 44.9762 0.478578 44.9512C0.4183 44.9262 0.363529 44.8896 0.317394 44.8435C0.271259 44.7974 0.234662 44.7426 0.209694 44.6823C0.184726 44.622 0.171875 44.5574 0.171875 44.4922C0.171875 44.427 0.184726 44.3623 0.209694 44.3021C0.234662 44.2418 0.271259 44.187 0.317394 44.1409C0.363529 44.0947 0.4183 44.0582 0.478578 44.0332C0.538857 44.0082 0.603463 43.9954 0.668708 43.9954H7.91959C8.05136 43.9954 8.17773 44.0477 8.2709 44.1409C8.36408 44.2341 8.41642 44.3604 8.41642 44.4922C8.41642 44.624 8.36408 44.7503 8.2709 44.8435C8.17773 44.9367 8.05136 44.989 7.91959 44.989Z" fill="#373331"/>
<path d="M7.91959 48.8292H0.668708C0.53694 48.8292 0.410568 48.7769 0.317394 48.6837C0.22422 48.5905 0.171875 48.4642 0.171875 48.3324C0.171875 48.2006 0.22422 48.0743 0.317394 47.9811C0.410568 47.8879 0.53694 47.8356 0.668708 47.8356H7.91959C8.05136 47.8356 8.17773 47.8879 8.2709 47.9811C8.36408 48.0743 8.41642 48.2006 8.41642 48.3324C8.41642 48.4642 8.36408 48.5905 8.2709 48.6837C8.17773 48.7769 8.05136 48.8292 7.91959 48.8292Z" fill="#373331"/>
<path d="M7.91959 52.667H0.668708C0.53694 52.667 0.410568 52.6147 0.317394 52.5215C0.22422 52.4283 0.171875 52.3019 0.171875 52.1702C0.171875 52.0384 0.22422 51.912 0.317394 51.8189C0.410568 51.7257 0.53694 51.6733 0.668708 51.6733H7.91959C8.05136 51.6733 8.17773 51.7257 8.2709 51.8189C8.36408 51.912 8.41642 52.0384 8.41642 52.1702C8.41642 52.3019 8.36408 52.4283 8.2709 52.5215C8.17773 52.6147 8.05136 52.667 7.91959 52.667Z" fill="#373331"/>
<path d="M7.91959 56.5049H0.668708C0.603463 56.5049 0.538857 56.492 0.478578 56.4671C0.4183 56.4421 0.363529 56.4055 0.317394 56.3594C0.271259 56.3132 0.234662 56.2585 0.209694 56.1982C0.184726 56.1379 0.171875 56.0733 0.171875 56.0081C0.171875 55.9428 0.184726 55.8782 0.209694 55.8179C0.234662 55.7577 0.271259 55.7029 0.317394 55.6568C0.363529 55.6106 0.4183 55.574 0.478578 55.5491C0.538857 55.5241 0.603463 55.5112 0.668708 55.5112H7.91959C7.98484 55.5112 8.04944 55.5241 8.10972 55.5491C8.17 55.574 8.22477 55.6106 8.2709 55.6568C8.31704 55.7029 8.35364 55.7577 8.3786 55.8179C8.40357 55.8782 8.41642 55.9428 8.41642 56.0081C8.41642 56.0733 8.40357 56.1379 8.3786 56.1982C8.35364 56.2585 8.31704 56.3132 8.2709 56.3594C8.22477 56.4055 8.17 56.4421 8.10972 56.4671C8.04944 56.492 7.98484 56.5049 7.91959 56.5049Z" fill="#373331"/>
<path d="M3.49293 17.9872C3.36116 17.9872 3.23479 17.9349 3.14161 17.8417C3.04844 17.7485 2.99609 17.6222 2.99609 17.4904V13.919C2.99609 13.7872 3.04844 13.6608 3.14161 13.5676C3.23479 13.4745 3.36116 13.4221 3.49293 13.4221C3.6247 13.4221 3.75107 13.4745 3.84424 13.5676C3.93742 13.6608 3.98976 13.7872 3.98976 13.919V17.4904C3.98976 17.5556 3.97691 17.6202 3.95194 17.6805C3.92697 17.7408 3.89038 17.7956 3.84424 17.8417C3.79811 17.8878 3.74334 17.9244 3.68306 17.9494C3.62278 17.9744 3.55817 17.9872 3.49293 17.9872Z" fill="#373331"/>
<path d="M5.39332 25.7061C5.26155 25.7061 5.13518 25.6537 5.042 25.5605C4.94883 25.4674 4.89648 25.341 4.89648 25.2092V21.5226C4.89648 21.3908 4.94883 21.2645 5.042 21.1713C5.13518 21.0781 5.26155 21.0258 5.39332 21.0258C5.52509 21.0258 5.65146 21.0781 5.74463 21.1713C5.83781 21.2645 5.89015 21.3908 5.89015 21.5226V25.2092C5.89015 25.341 5.83781 25.4674 5.74463 25.5605C5.65146 25.6537 5.52509 25.7061 5.39332 25.7061Z" fill="#373331"/>
<path d="M3.49298 33.425C3.42712 33.425 3.36192 33.4119 3.30117 33.3865C3.24042 33.3611 3.18533 33.3238 3.13909 33.2769C3.09286 33.23 3.05642 33.1744 3.03188 33.1133C3.00734 33.0522 2.99519 32.9868 2.99615 32.9209V29.3567C2.99615 29.2249 3.04849 29.0986 3.14167 29.0054C3.23484 28.9122 3.36121 28.8599 3.49298 28.8599C3.62475 28.8599 3.75112 28.9122 3.84429 29.0054C3.93747 29.0986 3.98981 29.2249 3.98981 29.3567V32.9209C3.99077 32.9868 3.97862 33.0522 3.95408 33.1133C3.92954 33.1744 3.89309 33.23 3.84686 33.2769C3.80063 33.3238 3.74554 33.3611 3.68479 33.3865C3.62403 33.4119 3.55883 33.425 3.49298 33.425Z" fill="#373331"/>
<path d="M5.39332 25.7061C5.26155 25.7061 5.13518 25.6537 5.042 25.5605C4.94883 25.4674 4.89648 25.341 4.89648 25.2092V21.5226C4.89648 21.3908 4.94883 21.2645 5.042 21.1713C5.13518 21.0781 5.26155 21.0258 5.39332 21.0258C5.52509 21.0258 5.65146 21.0781 5.74463 21.1713C5.83781 21.2645 5.89015 21.3908 5.89015 21.5226V25.2092C5.89015 25.341 5.83781 25.4674 5.74463 25.5605C5.65146 25.6537 5.52509 25.7061 5.39332 25.7061Z" fill="#373331"/>
<path d="M5.39332 41.1295C5.26155 41.1295 5.13518 41.0772 5.042 40.984C4.94883 40.8908 4.89648 40.7645 4.89648 40.6327V36.9605C4.89648 36.8287 4.94883 36.7023 5.042 36.6091C5.13518 36.516 5.26155 36.4636 5.39332 36.4636C5.52509 36.4636 5.65146 36.516 5.74463 36.6091C5.83781 36.7023 5.89015 36.8287 5.89015 36.9605V40.6327C5.89015 40.7645 5.83781 40.8908 5.74463 40.984C5.65146 41.0772 5.52509 41.1295 5.39332 41.1295Z" fill="#373331"/>
<path d="M3.49293 48.69C3.36116 48.69 3.23479 48.6376 3.14161 48.5445C3.04844 48.4513 2.99609 48.3249 2.99609 48.1932V44.6217C2.99609 44.4899 3.04844 44.3636 3.14161 44.2704C3.23479 44.1772 3.36116 44.1249 3.49293 44.1249C3.6247 44.1249 3.75107 44.1772 3.84424 44.2704C3.93742 44.3636 3.98976 44.4899 3.98976 44.6217V48.1932C3.98976 48.2584 3.97691 48.323 3.95194 48.3833C3.92697 48.4436 3.89038 48.4983 3.84424 48.5445C3.79811 48.5906 3.74334 48.6272 3.68306 48.6522C3.62278 48.6771 3.55817 48.69 3.49293 48.69Z" fill="#373331"/>
<path d="M5.39332 56.3945C5.26155 56.3945 5.13518 56.3422 5.042 56.249C4.94883 56.1559 4.89648 56.0295 4.89648 55.8977V52.2255C4.89648 52.0937 4.94883 51.9673 5.042 51.8742C5.13518 51.781 5.26155 51.7286 5.39332 51.7286C5.52509 51.7286 5.65146 51.781 5.74463 51.8742C5.83781 51.9673 5.89015 52.0937 5.89015 52.2255V55.8977C5.89015 56.0295 5.83781 56.1559 5.74463 56.249C5.65146 56.3422 5.52509 56.3945 5.39332 56.3945Z" fill="#373331"/>
<path d="M62.3641 15.1069C62.2515 15.1065 62.1423 15.0678 62.0546 14.9972C61.9668 14.9266 61.9056 14.8283 61.8811 14.7184C61.8565 14.6085 61.8701 14.4935 61.9195 14.3922C61.9688 14.291 62.0512 14.2096 62.1529 14.1613L63.9098 13.3356C63.9757 13.3037 64.0479 13.2873 64.121 13.2876H71.3791C71.5109 13.2876 71.6373 13.3399 71.7304 13.4331C71.8236 13.5263 71.876 13.6527 71.876 13.7844C71.876 13.9162 71.8236 14.0426 71.7304 14.1357C71.6373 14.2289 71.5109 14.2813 71.3791 14.2813H64.2315L62.5753 15.0589C62.5095 15.0908 62.4373 15.1072 62.3641 15.1069Z" fill="#373331"/>
<path d="M62.3712 18.82C62.2549 18.8212 62.1418 18.7815 62.0516 18.7079C61.9615 18.6343 61.9001 18.5314 61.8781 18.4171C61.8561 18.3028 61.8749 18.1844 61.9313 18.0826C61.9876 17.9808 62.0779 17.902 62.1864 17.8599L63.9362 17.159C63.9949 17.1354 64.0576 17.1232 64.121 17.123H71.379C71.5108 17.123 71.6372 17.1754 71.7304 17.2686C71.8235 17.3617 71.8759 17.4881 71.8759 17.6199C71.8759 17.7516 71.8235 17.878 71.7304 17.9712C71.6372 18.0644 71.5108 18.1167 71.379 18.1167H64.217L62.5561 18.7816C62.4975 18.8061 62.4347 18.8191 62.3712 18.82Z" fill="#373331"/>
<path d="M62.3808 22.5331C62.2668 22.5279 62.158 22.4837 62.0728 22.4078C61.9875 22.332 61.931 22.2291 61.9127 22.1164C61.8944 22.0038 61.9154 21.8883 61.9722 21.7893C62.0291 21.6903 62.1182 21.614 62.2248 21.573L63.9649 20.9994C64.0153 20.983 64.0679 20.9749 64.1209 20.9754H71.379C71.5107 20.9754 71.6371 21.0277 71.7303 21.1209C71.8235 21.2141 71.8758 21.3404 71.8758 21.4722C71.8758 21.604 71.8235 21.7303 71.7303 21.8235C71.6371 21.9167 71.5107 21.969 71.379 21.969H64.2001L62.5344 22.5163C62.4846 22.531 62.4326 22.5367 62.3808 22.5331Z" fill="#373331"/>
<path d="M62.3878 26.2461C62.2659 26.2476 62.1476 26.2042 62.0556 26.1242C61.9636 26.0442 61.9042 25.9331 61.8888 25.8121C61.8733 25.6911 61.9029 25.5687 61.972 25.4681C62.041 25.3676 62.1446 25.2959 62.263 25.2668L63.9959 24.818C64.0368 24.8083 64.0787 24.8035 64.1207 24.8036H71.3788C71.5106 24.8036 71.6369 24.8559 71.7301 24.9491C71.8233 25.0423 71.8756 25.1687 71.8756 25.3004C71.8756 25.4322 71.8233 25.5586 71.7301 25.6517C71.6369 25.7449 71.5106 25.7973 71.3788 25.7973H64.1783L62.4982 26.2293C62.4622 26.2394 62.4252 26.245 62.3878 26.2461Z" fill="#373331"/>
<path d="M62.4045 29.9592C62.2794 29.961 62.1582 29.9155 62.0652 29.8319C61.9721 29.7483 61.914 29.6327 61.9025 29.5081C61.891 29.3835 61.9269 29.2592 62.003 29.16C62.0792 29.0607 62.19 28.9938 62.3132 28.9727L64.039 28.6511C64.0693 28.6474 64.0999 28.6474 64.1302 28.6511H71.3883C71.52 28.6511 71.6464 28.7034 71.7396 28.7966C71.8327 28.8898 71.8851 29.0161 71.8851 29.1479C71.8851 29.2797 71.8327 29.406 71.7396 29.4992C71.6464 29.5924 71.52 29.6447 71.3883 29.6447H64.1662L62.4861 29.9592C62.4589 29.9619 62.4316 29.9619 62.4045 29.9592Z" fill="#373331"/>
<path d="M62.4041 33.6722C62.276 33.674 62.1521 33.6262 62.0583 33.5387C61.9646 33.4513 61.9083 33.331 61.9012 33.2031C61.894 33.0751 61.9366 32.9493 62.0201 32.852C62.1035 32.7547 62.2214 32.6934 62.3489 32.6809L64.0651 32.4841H64.1227H71.3807C71.5068 32.4929 71.6249 32.5492 71.7112 32.6416C71.7974 32.734 71.8454 32.8557 71.8454 32.9822C71.8454 33.1086 71.7974 33.2303 71.7112 33.3227C71.6249 33.4152 71.5068 33.4714 71.3807 33.4802H64.1491L62.4689 33.6722H62.4041Z" fill="#373331"/>
<path d="M62.405 37.3852C62.2732 37.3878 62.1458 37.3379 62.0508 37.2465C61.9559 37.1551 61.9011 37.0298 61.8985 36.898C61.896 36.7662 61.9459 36.6389 62.0373 36.5439C62.1286 36.4489 62.254 36.3941 62.3858 36.3916L64.0947 36.3196H71.3744C71.5061 36.3196 71.6325 36.3719 71.7257 36.4651C71.8188 36.5583 71.8712 36.6846 71.8712 36.8164C71.8712 36.9482 71.8188 37.0746 71.7257 37.1677C71.6325 37.2609 71.5061 37.3132 71.3744 37.3132H64.1211L62.441 37.3828L62.405 37.3852Z" fill="#373331"/>
<path d="M71.3788 41.1511H64.1207L62.4022 41.0959C62.3371 41.094 62.2729 41.0793 62.2135 41.0525C62.154 41.0258 62.1005 40.9876 62.0559 40.9401C62.0113 40.8926 61.9765 40.8367 61.9535 40.7757C61.9306 40.7147 61.9199 40.6498 61.9222 40.5846C61.9278 40.4537 61.9844 40.3301 62.08 40.2404C62.1755 40.1507 62.3024 40.102 62.4334 40.1046L64.1351 40.1574H71.3788C71.5106 40.1574 71.6369 40.2097 71.7301 40.3029C71.8233 40.3961 71.8756 40.5225 71.8756 40.6542C71.8756 40.786 71.8233 40.9124 71.7301 41.0055C71.6369 41.0987 71.5106 41.1511 71.3788 41.1511Z" fill="#373331"/>
<path d="M71.3776 44.989H64.0667L62.3722 44.8089C62.241 44.7949 62.1208 44.7294 62.038 44.6268C61.9552 44.5242 61.9165 44.3928 61.9305 44.2617C61.9446 44.1306 62.0101 44.0104 62.1127 43.9276C62.2153 43.8447 62.3467 43.8061 62.4778 43.8201L64.1459 43.9977H71.3776C71.5093 43.9977 71.6357 44.05 71.7289 44.1432C71.8221 44.2364 71.8744 44.3627 71.8744 44.4945C71.8744 44.6263 71.8221 44.7527 71.7289 44.8458C71.6357 44.939 71.5093 44.9913 71.3776 44.9913V44.989Z" fill="#373331"/>
<path d="M71.3778 48.8292H64.1197C64.0917 48.8316 64.0636 48.8316 64.0357 48.8292L62.3556 48.546C62.2291 48.5205 62.1175 48.4467 62.0444 48.3403C61.9713 48.234 61.9425 48.1034 61.964 47.9761C61.9855 47.8489 62.0557 47.735 62.1597 47.6586C62.2637 47.5822 62.3933 47.5492 62.5212 47.5667L64.1509 47.8427H71.3682C71.5 47.8427 71.6263 47.8951 71.7195 47.9883C71.8127 48.0814 71.865 48.2078 71.865 48.3396C71.865 48.4713 71.8127 48.5977 71.7195 48.6909C71.6263 48.7841 71.5 48.8364 71.3682 48.8364L71.3778 48.8292Z" fill="#373331"/>
<path d="M71.3788 52.6671H64.1207C64.0785 52.6674 64.0365 52.6617 63.9959 52.6503L62.3157 52.2206C62.1987 52.1798 62.101 52.0967 62.0421 51.9876C61.9832 51.8785 61.9672 51.7513 61.9973 51.631C62.0273 51.5107 62.1013 51.406 62.2047 51.3374C62.308 51.2689 62.4332 51.2415 62.5558 51.2606L64.1735 51.6758H71.374C71.5057 51.6758 71.6321 51.7281 71.7253 51.8213C71.8184 51.9145 71.8708 52.0409 71.8708 52.1726C71.8708 52.3044 71.8184 52.4308 71.7253 52.5239C71.6321 52.6171 71.5057 52.6695 71.374 52.6695L71.3788 52.6671Z" fill="#373331"/>
<path d="M71.3791 56.5049H64.121C64.068 56.5045 64.0153 56.4956 63.965 56.4785L62.2849 55.9216C62.1602 55.8802 62.0569 55.791 61.998 55.6735C61.939 55.556 61.9291 55.4199 61.9705 55.2952C62.0119 55.1704 62.1011 55.0672 62.2186 55.0082C62.3361 54.9493 62.4722 54.9394 62.5969 54.9808L64.1931 55.5112H71.3695C71.5013 55.5112 71.6277 55.5635 71.7208 55.6567C71.814 55.7499 71.8664 55.8763 71.8664 56.008C71.8664 56.1398 71.814 56.2662 71.7208 56.3593C71.6277 56.4525 71.5013 56.5049 71.3695 56.5049H71.3791Z" fill="#373331"/>
<path d="M68.5554 17.9872C68.4237 17.9872 68.2973 17.9349 68.2041 17.8417C68.1109 17.7485 68.0586 17.6222 68.0586 17.4904V13.919C68.0586 13.7872 68.1109 13.6608 68.2041 13.5676C68.2973 13.4745 68.4237 13.4221 68.5554 13.4221C68.6872 13.4221 68.8136 13.4745 68.9067 13.5676C68.9999 13.6608 69.0523 13.7872 69.0523 13.919V17.4904C69.0523 17.6222 68.9999 17.7485 68.9067 17.8417C68.8136 17.9349 68.6872 17.9872 68.5554 17.9872Z" fill="#373331"/>
<path d="M66.655 25.7061C66.5233 25.7061 66.3969 25.6537 66.3037 25.5605C66.2105 25.4674 66.1582 25.341 66.1582 25.2092V21.5226C66.1582 21.3908 66.2105 21.2645 66.3037 21.1713C66.3969 21.0781 66.5233 21.0258 66.655 21.0258C66.7868 21.0258 66.9132 21.0781 67.0063 21.1713C67.0995 21.2645 67.1519 21.3908 67.1519 21.5226V25.2092C67.1519 25.341 67.0995 25.4674 67.0063 25.5605C66.9132 25.6537 66.7868 25.7061 66.655 25.7061Z" fill="#373331"/>
<path d="M68.5554 33.425C68.4237 33.425 68.2973 33.3726 68.2041 33.2794C68.1109 33.1863 68.0586 33.0599 68.0586 32.9281V29.3567C68.0586 29.2249 68.1109 29.0986 68.2041 29.0054C68.2973 28.9122 68.4237 28.8599 68.5554 28.8599C68.6872 28.8599 68.8136 28.9122 68.9067 29.0054C68.9999 29.0986 69.0523 29.2249 69.0523 29.3567V32.9209C69.0532 32.9868 69.0411 33.0522 69.0165 33.1133C68.992 33.1744 68.9555 33.23 68.9093 33.2769C68.8631 33.3238 68.808 33.3611 68.7472 33.3865C68.6865 33.4119 68.6213 33.425 68.5554 33.425Z" fill="#373331"/>
<path d="M66.655 25.7061C66.5233 25.7061 66.3969 25.6537 66.3037 25.5605C66.2105 25.4674 66.1582 25.341 66.1582 25.2092V21.5226C66.1582 21.3908 66.2105 21.2645 66.3037 21.1713C66.3969 21.0781 66.5233 21.0258 66.655 21.0258C66.7868 21.0258 66.9132 21.0781 67.0063 21.1713C67.0995 21.2645 67.1519 21.3908 67.1519 21.5226V25.2092C67.1519 25.341 67.0995 25.4674 67.0063 25.5605C66.9132 25.6537 66.7868 25.7061 66.655 25.7061Z" fill="#373331"/>
<path d="M66.655 41.1295C66.5233 41.1295 66.3969 41.0772 66.3037 40.984C66.2105 40.8908 66.1582 40.7645 66.1582 40.6327V36.9605C66.1582 36.8287 66.2105 36.7023 66.3037 36.6091C66.3969 36.516 66.5233 36.4636 66.655 36.4636C66.7868 36.4636 66.9132 36.516 67.0063 36.6091C67.0995 36.7023 67.1519 36.8287 67.1519 36.9605V40.6327C67.1519 40.7645 67.0995 40.8908 67.0063 40.984C66.9132 41.0772 66.7868 41.1295 66.655 41.1295Z" fill="#373331"/>
<path d="M68.5554 48.69C68.4237 48.69 68.2973 48.6376 68.2041 48.5445C68.1109 48.4513 68.0586 48.3249 68.0586 48.1932V44.6217C68.0586 44.4899 68.1109 44.3636 68.2041 44.2704C68.2973 44.1772 68.4237 44.1249 68.5554 44.1249C68.6872 44.1249 68.8136 44.1772 68.9067 44.2704C68.9999 44.3636 69.0523 44.4899 69.0523 44.6217V48.1932C69.0523 48.3249 68.9999 48.4513 68.9067 48.5445C68.8136 48.6376 68.6872 48.69 68.5554 48.69Z" fill="#373331"/>
<path d="M66.655 56.3945C66.5233 56.3945 66.3969 56.3422 66.3037 56.249C66.2105 56.1559 66.1582 56.0295 66.1582 55.8977V52.2255C66.1582 52.0937 66.2105 51.9673 66.3037 51.8742C66.3969 51.781 66.5233 51.7286 66.655 51.7286C66.7868 51.7286 66.9132 51.781 67.0063 51.8742C67.0995 51.9673 67.1519 52.0937 67.1519 52.2255V55.8977C67.1519 56.0295 67.0995 56.1559 67.0063 56.249C66.9132 56.3422 66.7868 56.3945 66.655 56.3945Z" fill="#373331"/>
<path d="M33.2631 65.0639C33.1575 65.0634 33.0549 65.0292 32.97 64.9663C32.8852 64.9035 32.8226 64.8152 32.7913 64.7144C32.76 64.6135 32.7616 64.5053 32.796 64.4055C32.8303 64.3056 32.8956 64.2193 32.9823 64.1591L34.0432 63.427V8.19936L33.2079 8.10815C33.0768 8.09351 32.9569 8.02738 32.8745 7.9243C32.7921 7.82122 32.7541 7.68965 32.7687 7.55851C32.7833 7.42738 32.8495 7.30744 32.9525 7.22507C33.0556 7.14269 33.1872 7.10464 33.3183 7.11928L34.5952 7.26089C34.7174 7.27389 34.8306 7.33153 34.913 7.42276C34.9953 7.51399 35.0412 7.63241 35.0417 7.75533V63.6791C35.0413 63.7598 35.0215 63.8393 34.9839 63.9107C34.9463 63.9822 34.892 64.0435 34.8256 64.0895L33.5488 64.9679C33.4656 65.0285 33.3659 65.062 33.2631 65.0639Z" fill="#373331"/>
</g>
<defs>
<clipPath id="clip0_1_450">
<rect width="72" height="72" fill="white"/>
</clipPath>
</defs>
</svg>
