<svg width="186" height="60" viewBox="0 0 186 60" fill="none" xmlns="http://www.w3.org/2000/svg">
<g clip-path="url(#clip0_1_3851)">
<rect width="186" height="60" fill="white"/>
<rect width="186" height="60" fill="white"/>
<path d="M47.9062 30C47.9062 39.9425 39.8498 48 29.9074 48C19.965 48 11.9063 39.9425 11.9063 30C11.9062 20.0586 19.965 12 29.9074 12C39.8498 12 47.9062 20.0586 47.9062 30Z" fill="white"/>
<path d="M21.6458 30.0001L29.9063 38.2594L38.1658 30.0001L29.9052 21.7408L21.6458 30.0001ZM13.1787 30.0001C13.1787 20.7606 20.668 13.2715 29.9063 13.2715C39.1435 13.2715 46.6328 20.7606 46.6328 30.0001C46.6328 39.2397 39.1435 46.7287 29.9063 46.7287C20.668 46.7287 13.1787 39.2397 13.1787 30.0001Z" fill="#E2001A"/>
<path d="M110.273 16.2626C110.273 17.2094 110.19 17.7643 110.023 17.9287C109.875 18.0932 109.318 18.1737 108.352 18.1737H107.239V24.2384C107.239 25.1304 107.61 25.5772 108.352 25.5772C109.262 25.5772 109.792 25.6586 109.939 25.8231C110.088 25.9875 110.162 26.5606 110.162 27.5431C109.792 27.5614 109.447 27.5705 109.133 27.5705C107.61 27.5705 106.507 27.3163 105.82 26.8064C105.152 26.2782 104.818 25.4227 104.818 24.2383V18.2019H103.287L103.315 16.8083C104.131 16.8083 104.587 16.7534 104.679 16.6438C104.773 16.535 104.818 16.1339 104.818 15.442V13.4487H107.184V16.2626L110.273 16.2626ZM102.007 27.4615C100.819 27.4615 100.123 27.3809 99.9184 27.2165C99.7331 27.052 99.6408 26.4698 99.6408 25.4682V16.2624C100.829 16.2624 101.514 16.3438 101.701 16.5074C101.904 16.6536 102.007 17.2092 102.007 18.1735V27.4615ZM102.007 15.5523C100.819 15.5523 100.123 15.4709 99.9184 15.3056C99.7331 15.142 99.6408 14.5597 99.6408 13.5581V12.7932C100.921 12.7932 101.608 12.8198 101.701 12.8746C101.904 12.9834 102.007 13.4942 102.007 14.4044V15.5523ZM97.303 27.4615C96.3932 27.4615 95.8643 27.3984 95.7162 27.2713C95.5673 27.1251 95.4936 26.6509 95.4936 25.851C94.8623 27.0163 93.4059 27.5977 91.1235 27.5977C87.8764 27.5977 86.2516 25.6775 86.2516 21.8345C86.2516 17.9924 87.8671 16.0705 91.0956 16.0705C93.0259 16.0705 94.3156 16.5813 94.9647 17.6012V12C96.1343 12 96.8104 12.0831 96.9958 12.2475C97.1997 12.4111 97.303 12.9834 97.303 13.9667V27.4615ZM94.9927 21.8345C94.9927 20.5962 94.798 19.695 94.4079 19.1303C93.9264 18.401 93.0632 18.0381 91.8192 18.0381C90.2417 18.0381 89.3244 18.2017 89.0637 18.5281C88.8048 18.8387 88.6745 19.9409 88.6745 21.8345C88.6745 23.0911 88.8691 24.0106 89.2584 24.5936C89.7408 25.3037 90.5853 25.6584 91.7912 25.6584C93.3873 25.6584 94.3156 25.5039 94.5754 25.1941C94.8539 24.8668 94.9927 23.7473 94.9927 21.8345ZM84.9999 20.933C84.9999 21.8623 84.8983 22.408 84.6944 22.5716C84.4896 22.7178 83.7754 22.7909 82.5508 22.7909H76.594C76.594 23.6464 76.8631 24.3291 77.4013 24.839C77.9581 25.349 78.746 25.6048 79.7666 25.6048H82.2715C83.1999 25.6048 83.7381 25.6862 83.8871 25.8506C84.0538 25.996 84.1376 26.5425 84.1376 27.4885H79.8512C76.0837 27.4885 74.2007 25.6048 74.2007 21.8349C74.2007 18.0285 76.1023 16.1257 79.9062 16.1257C81.5581 16.1257 82.8385 16.5892 83.7483 17.5186C84.5827 18.3749 84.9999 19.5127 84.9999 20.933ZM82.5508 20.933C82.5694 20.8964 82.5694 20.8781 82.5508 20.8781C82.588 18.9114 81.6318 17.9289 79.6837 17.9289C78.1612 17.9289 77.2625 18.0551 76.9841 18.3109C76.7243 18.5659 76.594 19.4396 76.594 20.933H82.5508ZM73.8944 16.2082C73.8944 17.2273 73.8284 17.8186 73.6989 17.9831C73.588 18.1293 73.1522 18.2015 72.3914 18.2015C71.4445 18.2015 70.8614 18.3926 70.6371 18.7754C70.4704 19.0844 70.3866 19.9133 70.3866 21.2613V27.4613C69.1993 27.4613 68.5037 27.3807 68.2989 27.2163C68.1136 27.0518 68.0213 26.4879 68.0213 25.5228V16.263C68.9302 16.263 69.4583 16.3253 69.6072 16.4524C69.7553 16.5811 69.8306 17.0354 69.8306 17.8186C70.4053 16.6534 71.7601 16.116 73.8944 16.2082ZM66.0173 27.516H61.676C59.2261 27.516 57.4624 26.815 56.3868 25.4138C55.533 24.2835 55.1064 22.6357 55.1064 20.4696C55.1064 15.7886 57.2957 13.449 61.676 13.449H66.0173C66.0173 14.4498 65.9335 15.0328 65.7668 15.1964C65.6187 15.3609 65.0703 15.4423 64.1251 15.4423H61.676C60.1358 15.4423 59.1795 15.4971 58.8088 15.6067C58.252 15.7521 57.8991 16.1698 57.751 16.8634C57.6579 17.3733 57.6114 18.5743 57.6114 20.4696C57.6114 22.09 57.8712 23.281 58.3908 24.0468C59.0221 25.0127 60.1163 25.4944 61.676 25.4944H63.9854C65.006 25.4944 65.5993 25.5766 65.7668 25.7411C65.9335 25.9055 66.0173 26.496 66.0173 27.516Z" fill="#1C297B"/>
<path d="M173.545 43.6837C172.006 43.6837 171.078 43.6472 170.762 43.5741C170.373 43.4844 169.946 43.1837 169.482 42.6738L165.864 38.6581C165.567 38.33 165.418 38.0568 165.418 37.8383C165.418 37.6199 165.567 37.3467 165.864 37.0194L169.899 32.4572H173.101L167.616 37.7844L173.545 43.6837ZM165.224 43.6837C164.037 43.6837 163.341 43.6032 163.135 43.4387C162.95 43.2743 162.857 42.7012 162.857 41.717V28.2223C164.046 28.2223 164.732 28.3053 164.918 28.4698C165.121 28.6151 165.224 29.1691 165.224 30.135V43.6837ZM160.715 43.6837C159.526 43.6837 158.831 43.6032 158.627 43.4387C158.442 43.2743 158.35 42.7012 158.35 41.717V37.4555C158.35 36.345 158.193 35.5709 157.876 35.1332C157.467 34.5693 156.698 34.2869 155.565 34.2869C154.099 34.2869 153.238 34.424 152.977 34.6972C152.737 34.9522 152.615 35.8716 152.615 37.4555V43.6837C151.427 43.6837 150.733 43.6032 150.529 43.4387C150.343 43.2743 150.249 42.7012 150.249 41.717V32.5112C151.158 32.5112 151.687 32.576 151.836 32.7031C151.983 32.8301 152.059 33.2853 152.059 34.0693C152.653 32.9215 154.044 32.3476 156.234 32.3476C157.978 32.3476 159.193 32.8301 159.88 33.7952C160.437 34.5975 160.715 35.8807 160.715 37.6473V43.6837ZM148.218 43.6837C147.326 43.6837 146.808 43.6123 146.66 43.4661C146.511 43.3208 146.437 42.8283 146.437 41.9894C146.14 42.4819 145.629 42.8914 144.905 43.2203C144.07 43.6032 143.105 43.7925 142.011 43.7925C140.712 43.7925 139.664 43.5193 138.865 42.9744C137.994 42.3731 137.557 41.5168 137.557 40.4056C137.557 39.296 137.928 38.4122 138.671 37.7561C139.487 37.046 140.693 36.6914 142.289 36.6914H145.879C145.879 35.8716 145.629 35.2886 145.13 34.9431C144.647 34.5975 143.858 34.424 142.762 34.424H140.424C139.553 34.424 139.042 34.3517 138.893 34.2055C138.744 34.0411 138.671 33.4863 138.671 32.5394H142.679C144.813 32.5394 146.297 32.9663 147.132 33.8235C147.855 34.5328 148.218 35.698 148.218 37.3192V43.6837ZM145.879 38.8765V38.521H142.651C141.334 38.521 140.563 38.6024 140.341 38.7669C140.119 38.9131 140.007 39.4488 140.007 40.3782C140.007 41.4529 140.86 41.9894 142.567 41.9894C144.219 41.9894 145.185 41.8632 145.462 41.6074C145.741 41.3358 145.879 40.4247 145.879 38.8765ZM136.139 39.6141C136.139 42.345 134.246 43.7112 130.46 43.7112H127.121C125.971 43.7112 125.292 43.629 125.089 43.4662C124.903 43.3009 124.81 42.7279 124.81 41.7445V31.6924C124.81 30.6899 124.903 30.1085 125.089 29.9432C125.292 29.7805 125.971 29.6974 127.121 29.6974H130.376C133.921 29.6974 135.693 30.9183 135.693 33.3585C135.693 34.9971 135.061 35.9622 133.8 36.2537C134.523 36.4539 135.109 36.8908 135.555 37.5652C135.943 38.1665 136.139 38.8492 136.139 39.6141ZM133.298 33.6865C133.298 32.356 132.352 31.6924 130.46 31.6924H127.259V35.6524H130.6C131.955 35.6524 132.743 35.571 132.966 35.4074C133.188 35.243 133.298 34.6699 133.298 33.6865ZM133.633 39.5867C133.633 38.203 132.622 37.5104 130.6 37.5104H127.259V41.7445H130.544C132.084 41.7445 132.984 41.654 133.243 41.4712C133.504 41.2894 133.633 40.6606 133.633 39.5867Z" fill="#E2001A"/>
<path d="M122.239 37.1551C122.239 38.0845 122.137 38.6302 121.933 38.7938C121.729 38.94 121.014 39.0131 119.79 39.0131H113.835C113.835 39.8685 114.103 40.5512 114.641 41.0612C115.198 41.5712 115.986 41.827 117.006 41.827H119.511C120.44 41.827 120.978 41.9084 121.126 42.0728C121.293 42.2181 121.377 42.7646 121.377 43.7106H117.09C113.324 43.7106 111.441 41.827 111.441 38.0571C111.441 34.2507 113.342 32.3479 117.145 32.3479C118.797 32.3479 120.077 32.8114 120.987 33.7408C121.822 34.5971 122.239 35.7349 122.239 37.1551ZM119.79 37.1551C119.808 37.1186 119.808 37.1003 119.79 37.1003C119.828 35.1336 118.871 34.151 116.923 34.151C115.402 34.151 114.502 34.2773 114.224 34.5331C113.964 34.7881 113.835 35.6618 113.835 37.1551H119.79ZM109.965 38.1107C109.965 41.9545 108.36 43.8755 105.15 43.8755C103.22 43.8755 101.931 43.3656 101.281 42.3456V48C100.112 48 99.4245 47.9186 99.2206 47.7533C99.0361 47.608 98.9439 47.0532 98.9439 46.0881V32.4846C99.8341 32.4846 100.355 32.5576 100.501 32.703C100.65 32.8301 100.724 33.2952 100.724 34.0958C101.411 32.9306 102.868 32.3475 105.094 32.3475C108.341 32.3475 109.965 34.2686 109.965 38.1107ZM107.57 38.1107C107.57 36.8549 107.376 35.9255 106.987 35.325C106.486 34.6149 105.642 34.2603 104.455 34.2603C102.859 34.2603 101.921 34.4239 101.643 34.7503C101.383 35.0792 101.254 36.1988 101.254 38.1107C101.254 39.3681 101.439 40.2784 101.81 40.8432C102.293 41.5716 103.155 41.9362 104.397 41.9362C105.994 41.9362 106.923 41.7809 107.181 41.4719C107.443 41.1438 107.57 40.0234 107.57 38.1107ZM97.0518 38.0843C97.0518 41.9081 95.1578 43.8201 91.3734 43.8201C87.6244 43.8201 85.7499 41.9081 85.7499 38.0843C85.7499 34.2771 87.6346 32.3759 91.4004 32.3759C95.1672 32.3759 97.0518 34.2771 97.0518 38.0843ZM94.6289 38.0843C94.6289 36.8817 94.425 35.9905 94.0179 35.4074C93.5161 34.66 92.6436 34.287 91.4004 34.287C89.7866 34.287 88.8396 34.4507 88.5612 34.7787C88.3023 35.0893 88.1719 36.1898 88.1719 38.0843C88.1719 40.6341 89.2382 41.9081 91.3734 41.9081C93.0058 41.9081 93.9528 41.7545 94.2117 41.4447C94.491 41.1158 94.6289 39.9962 94.6289 38.0843ZM85.4719 32.4304C85.4719 33.4495 85.4067 34.0409 85.2781 34.2053C85.1664 34.3515 84.7314 34.4237 83.9689 34.4237C83.0236 34.4237 82.4397 34.6148 82.2155 34.9976C82.0487 35.3066 81.965 36.1355 81.965 37.4835V43.6835C80.7777 43.6835 80.0829 43.603 79.8781 43.4385C79.6919 43.2741 79.6005 42.7101 79.6005 41.745V32.4852C80.5077 32.4852 81.0366 32.5475 81.1864 32.6746C81.3337 32.8033 81.4073 33.2577 81.4073 34.0409C81.9836 32.8756 83.3384 32.3382 85.4719 32.4304ZM77.2886 43.6837C76.3797 43.6837 75.8508 43.6206 75.7018 43.4935C75.5554 43.3473 75.4801 42.8731 75.4801 42.0733C74.8683 43.2385 73.477 43.8199 71.3064 43.8199C69.5419 43.8199 68.3174 43.3473 67.631 42.3997C67.0742 41.6173 66.7966 40.3515 66.7966 38.6024V32.4846C67.9645 32.4846 68.6423 32.566 68.8277 32.7296C69.0316 32.894 69.134 33.4862 69.134 34.5053V38.7943C69.134 39.8864 69.3007 40.6422 69.635 41.0616C70.0429 41.5899 70.8232 41.8532 71.9732 41.8532C73.4389 41.8532 74.292 41.7261 74.5332 41.4711C74.776 41.1987 74.8962 40.2693 74.8962 38.6846V32.4846C76.0835 32.4846 76.769 32.566 76.956 32.7296C77.1583 32.894 77.2624 33.4862 77.2624 34.5053L77.2886 43.6837ZM65.0153 43.6837H57.5268C56.3225 43.6837 55.6159 43.6031 55.4111 43.4387C55.2071 43.2742 55.1064 42.692 55.1064 41.6904V31.6931C55.1064 30.6898 55.2071 30.1084 55.4111 29.9431C55.6159 29.7803 56.3225 29.6973 57.5268 29.6973H63.0114C64.0134 29.6973 64.5973 29.7803 64.764 29.9431C64.9316 30.1084 65.0153 30.6898 65.0153 31.6931H57.5268V35.5709H62.3428C63.3262 35.5709 63.9017 35.6523 64.0692 35.8167C64.2351 35.9804 64.3189 36.546 64.3189 37.5102H57.5268V41.6904H62.8447C63.9397 41.6904 64.5702 41.7709 64.7369 41.9362C64.9222 42.099 65.0153 42.6837 65.0153 43.6837Z" fill="#1C297B"/>
</g>
<defs>
<clipPath id="clip0_1_3851">
<rect width="186" height="60" fill="white"/>
</clipPath>
</defs>
</svg>
