<svg width="48" height="48" viewBox="0 0 48 48" fill="none" xmlns="http://www.w3.org/2000/svg">
<path fill-rule="evenodd" clip-rule="evenodd" d="M21.3862 0.184499C16.137 0.986741 11.6477 3.82516 8.70963 8.19962C4.56819 14.3658 4.66134 22.9888 8.93329 28.8946L9.37762 29.5089L6.71362 35.5418C5.24844 38.8598 4.03052 41.722 4.00711 41.9022C3.9163 42.601 4.7119 43.4946 5.42379 43.4935C5.52874 43.4933 7.02453 43.0146 8.74773 42.4297L11.881 41.3662L13.1782 44.3726C14.7219 47.9503 14.7485 47.9876 15.7461 47.9876C16.7583 47.9876 16.3686 48.7035 20.6376 39L21.6878 36.6126H23.9176H26.1474L27.1981 39C31.4742 48.7158 31.0779 47.9876 32.0891 47.9876C33.088 47.9876 33.1194 47.9434 34.6596 44.3697L35.9542 41.3659L39.0875 42.4289C40.8106 43.0136 42.3064 43.4924 42.4114 43.493C43.1218 43.4962 43.9189 42.6012 43.8281 41.9022C43.8047 41.722 42.5867 38.8598 41.1216 35.5418L38.4576 29.5089L38.9019 28.8946C43.5754 22.4337 43.2157 13.0451 38.0536 6.74849C34.0501 1.86519 27.4351 -0.73992 21.3862 0.184499ZM25.2751 2.99829C32.4876 3.3959 38.7985 9.85448 39.2532 17.3032C40.1223 31.5419 23.1054 39.3113 13.0575 29.2633C4.40669 20.6125 8.82375 5.80216 20.8208 3.23356C21.7069 3.04389 23.5793 2.8661 24.1048 2.9219C24.2336 2.93557 24.7602 2.96992 25.2751 2.99829ZM23.3559 8.63384C22.9545 8.79421 22.6109 9.3375 21.5886 11.4284L20.49 13.6754L18.0143 14.034C14.9464 14.4785 14.6177 14.6234 14.4883 15.588C14.394 16.2908 14.5495 16.5088 16.5095 18.4236L18.3575 20.2289L17.9575 22.5226C17.4134 25.642 17.4362 25.9717 18.2292 26.4552C18.8591 26.8393 19.1487 26.7547 21.5991 25.4717C22.8284 24.828 23.8717 24.3014 23.9176 24.3014C23.9635 24.3014 25.0068 24.828 26.236 25.4717C28.6865 26.7547 28.9761 26.8393 29.6059 26.4552C30.399 25.9717 30.4218 25.642 29.8777 22.5226L29.4777 20.2289L31.3257 18.4236C33.2857 16.5088 33.4411 16.2908 33.3469 15.588C33.2173 14.6217 32.8768 14.4715 29.8166 14.031L27.3454 13.6754L26.248 11.4284C24.9736 8.81874 24.8373 8.64498 24.0347 8.60472C23.7386 8.58993 23.4331 8.60304 23.3559 8.63384ZM24.6415 14.6916C25.4532 16.3021 25.5146 16.3475 27.1943 16.5785C29.0524 16.834 28.9864 16.6753 27.7329 17.8762C26.352 19.1991 26.3642 19.162 26.6849 21.0574C26.8148 21.8247 26.9061 22.4676 26.8876 22.486C26.8693 22.5043 26.3304 22.2375 25.6902 21.8931C24.0561 21.0139 23.7791 21.0139 22.145 21.8931C21.5048 22.2375 20.9659 22.5043 20.9475 22.486C20.9291 22.4676 21.0204 21.8247 21.1502 21.0574C21.471 19.162 21.4832 19.1991 20.1022 17.8762C18.8465 16.6731 18.7751 16.8325 20.6877 16.5696C22.3349 16.3431 22.3774 16.3112 23.1967 14.6857C23.5674 13.9502 23.8918 13.3484 23.9176 13.3484C23.9433 13.3484 24.269 13.9528 24.6415 14.6916ZM12.8029 32.9221C14.2534 34.051 16.2594 35.1355 17.9258 35.6912C18.3635 35.8371 18.7372 35.9654 18.7563 35.9761C18.7855 35.9924 15.9724 42.4575 15.7795 42.8175C15.7428 42.8861 15.3442 42.0689 14.8437 40.8982C13.4834 37.7173 13.5471 37.7457 10.2553 38.8527C9.10031 39.2411 8.14874 39.549 8.14088 39.5369C8.13292 39.5248 8.88479 37.798 9.81165 35.6997L11.4967 31.8845L11.7857 32.1198C11.9445 32.2493 12.4022 32.6103 12.8029 32.9221ZM38.1385 35.9573C39.0038 37.914 39.7046 39.5248 39.6958 39.5369C39.6871 39.549 38.7349 39.2411 37.5799 38.8527C34.288 37.7457 34.3518 37.7173 32.9915 40.8982C32.4954 42.0584 32.0924 42.8855 32.0565 42.8175C31.8545 42.4359 29.0498 35.9925 29.0787 35.9766C29.0979 35.966 29.4717 35.8361 29.9094 35.6881C31.9605 34.9945 34.2112 33.6964 35.8988 32.2338L36.3178 31.8708L36.4415 32.1353C36.5096 32.2807 37.2732 34.0006 38.1385 35.9573Z" fill="#FF5900"/>
</svg>
