<?xml version="1.0" encoding="utf-8"?><svg xmlns="http://www.w3.org/2000/svg" xmlns:xlink="http://www.w3.org/1999/xlink"><symbol viewBox="0 0 20 20" id="attach" xmlns="http://www.w3.org/2000/svg"><path d="m15.067 10.35-5.15 5.158a3.542 3.542 0 0 1-5-5l6.666-6.666a2.142 2.142 0 0 1 2.95 0 2.1 2.1 0 0 1 0 2.95l-5.75 5.741a.636.636 0 1 1-.933-.866L12.125 7.4a.837.837 0 0 0-1.183-1.183L6.667 10.5a2.282 2.282 0 0 0 0 3.242 2.35 2.35 0 0 0 3.241 0l5.742-5.75a3.75 3.75 0 0 0-5.3-5.3L3.683 9.358a5.208 5.208 0 0 0 7.409 7.309l5.158-5.15a.836.836 0 0 0-1.183-1.184v.017Z"/></symbol><symbol viewBox="0 0 22 24" id="basket" xmlns="http://www.w3.org/2000/svg"><g clip-path="url(#ba)"><path d="M10.363 18.443a2.046 2.046 0 0 0-2.045 2.042 2.046 2.046 0 0 0 4.09 0 2.046 2.046 0 0 0-2.045-2.042Zm6.134 0a2.046 2.046 0 0 0-2.045 2.042 2.046 2.046 0 0 0 4.089 0 2.046 2.046 0 0 0-2.044-2.042Zm3.978-8.199L7.413 6.891a.614.614 0 0 0-.75.73L8.67 16.4h-.786L5.482 5.895a.613.613 0 0 0-.474-.464l-4.27-.882A.614.614 0 0 0 .489 5.75l3.885.802L6.797 17.15a.613.613 0 0 0 .598.477h12.07a.615.615 0 0 0 .607-.53l.858-6.175a.613.613 0 0 0-.455-.678Zm-8.14 3.91a.613.613 0 0 1-1.227 0v-2.696a.613.613 0 0 1 1.227 0v2.696Zm2.625 0a.613.613 0 0 1-1.227 0v-1.88a.613.613 0 0 1 1.227 0v1.88Zm2.625 0a.613.613 0 0 1-1.227 0v-1.226a.613.613 0 0 1 1.227 0v1.226Z"/></g><path fill-rule="evenodd" clip-rule="evenodd" d="M16.268 4.568a2.996 2.996 0 0 0-1.693-.523c-.627 0-1.21.193-1.693.523-.28-.843-.492-1.752-.492-2.383C12.39.98 13.37 0 14.575 0s2.185.98 2.185 2.185c0 .631-.212 1.54-.492 2.383Zm-4.722 2.274.024.006v-.011l-.024.005Zm4.972 1.217c-1.333-.33-2.766-.681-4.129-1.013a2.185 2.185 0 1 1 4.129 1.013Zm4.436 1.103c-.866-.217-2.155-.538-3.618-.9a2.995 2.995 0 0 0 .243-1.425c.87.18 1.762.45 2.308.765.596.344.969.928 1.067 1.56ZM9.869 6.439c-.36-.086-.706-.167-1.03-.243a2.19 2.19 0 0 1-.376-2.667 2.188 2.188 0 0 1 3.147-.7c.098.738.338 1.599.61 2.353a3.01 3.01 0 0 0-.449.774c-.628.113-1.305.278-1.902.483Zm10.124.075a3.43 3.43 0 0 1-.217.114c-.696-.295-1.587-.526-2.397-.672a3.01 3.01 0 0 0-.449-.774c.262-.727.494-1.553.599-2.273.095-.067.189-.128.278-.18a2.188 2.188 0 0 1 2.986.8 2.188 2.188 0 0 1-.8 2.985Z"/><defs><clipPath id="ba"><path transform="translate(0 3.064)" d="M0 0h20.936v20.936H0z"/></clipPath></defs></symbol><symbol viewBox="0 0 20 20" id="call" xmlns="http://www.w3.org/2000/svg"><path fill-rule="evenodd" clip-rule="evenodd" d="M5.003 2.311c-.187.052-2.146 2.02-2.339 2.348-.596 1.017-.448 2.392.43 3.994 1.47 2.682 5.314 6.568 8.054 8.143 1.716.986 3.133 1.17 4.196.544.244-.145 2.14-1.982 2.284-2.215.1-.161.11-.483.02-.653-.088-.165-2.677-2.731-2.837-2.812-.234-.117-.408-.066-1.84.542l-1.347.571-2.196-2.197L7.232 8.38l.57-1.348c.62-1.463.66-1.604.528-1.858-.045-.088-.653-.725-1.42-1.488-1.506-1.5-1.493-1.49-1.907-1.375Zm8.837.463c-.299.182-.282.006-.282 3.047 0 2.64.002 2.718.078 2.842.235.386.859.386 1.094 0 .121-.199.121-5.485 0-5.684-.17-.277-.606-.378-.89-.205Zm-2.5 1.25c-.284.173-.282.161-.282 1.797 0 1.393.004 1.471.078 1.592.235.386.859.386 1.094 0 .12-.197.12-2.987 0-3.184-.17-.277-.606-.378-.89-.205Zm5 .625c-.264.161-.282.235-.282 1.172 0 .77.006.85.078.967.235.386.859.386 1.094 0 .118-.194.118-1.74 0-1.934-.17-.277-.606-.378-.89-.205Z"/><path fill-rule="evenodd" clip-rule="evenodd" d="M5.003 2.311c-.187.052-2.146 2.02-2.339 2.348-.596 1.017-.448 2.392.43 3.994 1.47 2.682 5.314 6.568 8.054 8.143 1.716.986 3.133 1.17 4.196.544.244-.145 2.14-1.982 2.284-2.215.1-.161.11-.483.02-.653-.088-.165-2.677-2.731-2.837-2.812-.234-.117-.408-.066-1.84.542l-1.347.571-2.196-2.197L7.232 8.38l.57-1.348c.62-1.463.66-1.604.528-1.858-.045-.088-.653-.725-1.42-1.488-1.506-1.5-1.493-1.49-1.907-1.375Zm8.837.463c-.299.182-.282.006-.282 3.047 0 2.64.002 2.718.078 2.842.235.386.859.386 1.094 0 .121-.199.121-5.485 0-5.684-.17-.277-.606-.378-.89-.205Zm-2.5 1.25c-.284.173-.282.161-.282 1.797 0 1.393.004 1.471.078 1.592.235.386.859.386 1.094 0 .12-.197.12-2.987 0-3.184-.17-.277-.606-.378-.89-.205Zm5 .625c-.264.161-.282.235-.282 1.172 0 .77.006.85.078.967.235.386.859.386 1.094 0 .118-.194.118-1.74 0-1.934-.17-.277-.606-.378-.89-.205Z"/></symbol><symbol viewBox="0 0 344.96 344.96" id="check" xmlns="http://www.w3.org/2000/svg"><g data-name="Слой 2"><path class="dcls-1" d="m321.85 86.24-40-23.11-23.1-40H212.5L172.48 0l-40 23.11H86.24l-23.11 40-40 23.1v46.21L0 172.48l23.11 40v46.21l40 23.11 23.11 40h46.21l40 23.1 40-23.11h46.21l23.11-40 40-23.11V212.5l23.11-40-23.11-40V86.24ZM156.91 243.07a16.79 16.79 0 0 1-23.34 0l-50.45-50.44a16.19 16.19 0 0 1 0-22.89l13.35-13.35a16.19 16.19 0 0 1 22.89 0l25.87 25.87 80.34-80.35a16.19 16.19 0 0 1 22.89 0l13.35 13.35a16.19 16.19 0 0 1 0 22.89Z" data-name="Capa 1"/></g></symbol><symbol viewBox="0 0 20 20" id="chevronDown" xmlns="http://www.w3.org/2000/svg"><path fill-rule="evenodd" clip-rule="evenodd" d="M5.293 7.293a1 1 0 0 1 1.414 0L10 10.586l3.293-3.293a1 1 0 1 1 1.414 1.414l-4 4a1 1 0 0 1-1.414 0l-4-4a1 1 0 0 1 0-1.414Z"/></symbol><symbol viewBox="0 0 20 20" id="chevronLeft" xmlns="http://www.w3.org/2000/svg"><path fill-rule="evenodd" clip-rule="evenodd" d="M12.707 14.707a1 1 0 0 0 0-1.414L9.414 10l3.293-3.293a1 1 0 0 0-1.414-1.414l-4 4a1 1 0 0 0 0 1.414l4 4a1 1 0 0 0 1.414 0Z"/></symbol><symbol viewBox="0 0 20 20" id="chevronRight" xmlns="http://www.w3.org/2000/svg"><path fill-rule="evenodd" clip-rule="evenodd" d="M7.293 14.707a1 1 0 0 1 0-1.414L10.586 10 7.293 6.707a1 1 0 0 1 1.414-1.414l4 4a1 1 0 0 1 0 1.414l-4 4a1 1 0 0 1-1.414 0Z"/></symbol><symbol viewBox="0 0 20 20" id="chevronTop" xmlns="http://www.w3.org/2000/svg"><path fill-rule="evenodd" clip-rule="evenodd" d="M5.293 12.707a1 1 0 0 1 0-1.414l4-4a1 1 0 0 1 1.414 0l4 4a1 1 0 0 1-1.414 1.414L10 9.414l-3.293 3.293a1 1 0 0 1-1.414 0Z"/></symbol><symbol viewBox="0 0 20 20" id="close" xmlns="http://www.w3.org/2000/svg"><path d="M17 4.4 15.6 3 10 8.6 4.4 3 3 4.4 8.6 10 3 15.6 4.4 17l5.6-5.6 5.6 5.6 1.4-1.4-5.6-5.6L17 4.4Z"/></symbol><symbol viewBox="0 0 24 24" id="delivery" xmlns="http://www.w3.org/2000/svg"><g clip-path="url(#ja)"><path fill-rule="evenodd" clip-rule="evenodd" d="M2.605 3.758c-.597.26-.629 1.131-.051 1.405.145.07.716.076 6.165.076h6.005v5.418l.105.206c.22.43-.046.398 3.455.412l3.084.013.545.704.545.704v3.89l-.687-.013-.687-.013-.084-.25c-.905-2.662-4.902-2.644-5.747.026l-.078.246h-4.428l-.08-.246c-.858-2.673-4.83-2.691-5.735-.026l-.084.249-1.098.023c-1.388.03-1.608.136-1.609.775 0 .646.271.772 1.668.772h1.056l.058.2c.766 2.612 4.727 2.694 5.696.118l.11-.295 2.226-.012 2.226-.012.106.285c.964 2.577 4.82 2.568 5.692-.012l.09-.268 1.23-.014c1.37-.015 1.361-.013 1.6-.365l.106-.154v-2.7c0-2.564-.005-2.708-.089-2.846a27.98 27.98 0 0 0-.778-1.03l-.69-.886-1.168-2.333c-1.098-2.192-1.18-2.34-1.363-2.461l-.194-.13-1.726-.013-1.727-.015v-.444c0-.526-.061-.704-.307-.892l-.177-.135-6.52-.01c-5.316-.009-6.545.001-6.66.052Zm-.829 3.075c-.637.192-.742 1.011-.178 1.395l.155.105h3.44c3.733 0 3.643.006 3.85-.258.338-.429.142-1.101-.36-1.24-.206-.058-6.716-.06-6.907-.002Zm17.976 1.4c.405.794.737 1.459.737 1.476 0 .017-.95.03-2.11.03H16.27V6.786h2.745l.737 1.446ZM.373 9.886c-.52.302-.49 1.066.052 1.34l.209.106h6.71l.21-.105c.545-.276.571-1.046.044-1.342C7.321 9.73.642 9.73.373 9.886Zm1.27 2.958c-.523.264-.562.956-.073 1.321.125.094.193.097 2.132.11l2.003.013.16-.108c.528-.355.502-1.055-.049-1.336-.204-.104-.229-.106-2.085-.106-1.855 0-1.88.002-2.087.106Zm6.775 3.147c.924.43 1.14 1.673.417 2.389-.927.918-2.51.258-2.51-1.048a1.468 1.468 0 0 1 2.093-1.34Zm10.018-.106c1.721.364 1.446 2.916-.314 2.916-1.296 0-1.951-1.57-1.045-2.504a1.417 1.417 0 0 1 1.36-.412Z"/></g><defs><clipPath id="ja"><path d="M0 0h24v24H0z"/></clipPath></defs></symbol><symbol viewBox="0 0 24 24" id="fb" xmlns="http://www.w3.org/2000/svg"><path d="M13.397 20.997v-8.196h2.765l.411-3.209h-3.176V7.548c0-.926.258-1.56 1.587-1.56h1.684v-2.86A22.108 22.108 0 0 0 14.201 3c-2.444 0-4.122 1.492-4.122 4.231v2.355H7.332v3.21h2.753v8.201h3.312Z"/></symbol><symbol viewBox="0 0 24 24" id="information" xmlns="http://www.w3.org/2000/svg"><path fill-rule="evenodd" clip-rule="evenodd" d="M10.824.022C3.448.815-1.457 7.882.39 15.05c1.643 6.37 8.254 10.228 14.687 8.57 6.37-1.643 10.228-8.255 8.57-14.687C22.474 4.388 18.684.939 13.966.125c-.55-.095-2.596-.162-3.143-.103Zm2.092 2.221c8.028.803 11.751 10.385 6.34 16.313-5.727 6.275-16.138 2.8-16.985-5.667C1.67 6.89 6.919 1.643 12.916 2.243Zm-1.238 2.86c-1.38.346-1.518 2.313-.195 2.808 1.21.452 2.354-.707 1.898-1.925-.238-.637-1.037-1.051-1.703-.884Zm-.17 5.184c-.3.15-.495.403-.567.735-.102.467-.043 7.05.064 7.25.456.856 1.573.856 2.028 0 .107-.2.166-6.783.065-7.25-.11-.51-.55-.859-1.079-.859-.19 0-.331.035-.51.124Z"/><path fill-rule="evenodd" clip-rule="evenodd" d="M10.824.022C3.448.815-1.457 7.882.39 15.05c1.643 6.37 8.254 10.228 14.687 8.57 6.37-1.643 10.228-8.255 8.57-14.687C22.474 4.388 18.684.939 13.966.125c-.55-.095-2.596-.162-3.143-.103Zm2.092 2.221c8.028.803 11.751 10.385 6.34 16.313-5.727 6.275-16.138 2.8-16.985-5.667C1.67 6.89 6.919 1.643 12.916 2.243Zm-1.238 2.86c-1.38.346-1.518 2.313-.195 2.808 1.21.452 2.354-.707 1.898-1.925-.238-.637-1.037-1.051-1.703-.884Zm-.17 5.184c-.3.15-.495.403-.567.735-.102.467-.043 7.05.064 7.25.456.856 1.573.856 2.028 0 .107-.2.166-6.783.065-7.25-.11-.51-.55-.859-1.079-.859-.19 0-.331.035-.51.124Z"/></symbol><symbol viewBox="0 0 24 24" id="instagram" xmlns="http://www.w3.org/2000/svg"><path d="M11.999 7.377a4.624 4.624 0 1 0 0 9.248 4.624 4.624 0 0 0 0-9.248Zm0 7.627a3.004 3.004 0 1 1 0-6.008 3.004 3.004 0 0 1 0 6.008Zm4.807-6.719a1.078 1.078 0 1 0 0-2.156 1.078 1.078 0 0 0 0 2.156Z"/><path d="M20.533 6.11A4.605 4.605 0 0 0 17.9 3.48a6.607 6.607 0 0 0-2.186-.42c-.963-.042-1.268-.054-3.71-.054s-2.755 0-3.71.054a6.554 6.554 0 0 0-2.184.42 4.6 4.6 0 0 0-2.633 2.63 6.585 6.585 0 0 0-.419 2.186c-.043.962-.056 1.267-.056 3.71 0 2.442 0 2.753.056 3.71.015.748.156 1.486.419 2.187a4.61 4.61 0 0 0 2.634 2.632 6.583 6.583 0 0 0 2.185.45c.963.042 1.268.055 3.71.055s2.755 0 3.71-.055a6.616 6.616 0 0 0 2.186-.42 4.613 4.613 0 0 0 2.633-2.632c.263-.7.404-1.438.419-2.186.043-.962.056-1.267.056-3.71s0-2.753-.056-3.71a6.583 6.583 0 0 0-.421-2.217Zm-1.218 9.533a5.046 5.046 0 0 1-.311 1.688 2.987 2.987 0 0 1-1.712 1.71c-.535.2-1.1.305-1.67.312-.95.044-1.218.055-3.654.055-2.438 0-2.687 0-3.655-.055a4.961 4.961 0 0 1-1.67-.311 2.984 2.984 0 0 1-1.718-1.711 5.08 5.08 0 0 1-.311-1.67c-.043-.95-.053-1.217-.053-3.653 0-2.437 0-2.686.053-3.655a5.038 5.038 0 0 1 .311-1.687c.305-.79.93-1.41 1.719-1.712a5.01 5.01 0 0 1 1.669-.311c.95-.043 1.218-.055 3.655-.055s2.687 0 3.654.055a4.96 4.96 0 0 1 1.67.31 2.99 2.99 0 0 1 1.712 1.713 5.06 5.06 0 0 1 .311 1.669c.043.95.054 1.218.054 3.655 0 2.436 0 2.698-.043 3.654h-.011v-.001Z"/></symbol><symbol viewBox="0 0 20 20" id="plus" xmlns="http://www.w3.org/2000/svg"><path d="M5 10a1 1 0 0 1 1-1h8a1 1 0 1 1 0 2H6a1 1 0 0 1-1-1Z"/><path d="M10 5a1 1 0 0 1 1 1v8a1 1 0 1 1-2 0V6a1 1 0 0 1 1-1Z"/></symbol><symbol viewBox="0 0 20 20" id="star" xmlns="http://www.w3.org/2000/svg"><path d="m10.771 1.96 2.076 3.664c.26.436.693.698 1.125.872l4.066.872c.692.175.951.96.432 1.484l-2.768 3.14c-.346.35-.519.873-.432 1.396l.432 4.188c.087.698-.605 1.134-1.211.872l-3.806-1.744a1.894 1.894 0 0 0-1.384 0l-3.806 1.744c-.606.262-1.298-.261-1.211-.872l.432-4.188c.087-.523-.086-.96-.432-1.396l-2.768-3.14c-.433-.524-.173-1.31.432-1.484l4.066-.872c.519-.087.865-.436 1.124-.872l2.076-3.665c.346-.523 1.211-.523 1.557 0Z"/></symbol><symbol viewBox="0 0 16 16" id="telegram" xmlns="http://www.w3.org/2000/svg"><path d="m14.629 3.698-2.012 9.618c-.152.679-.548.848-1.11.528l-3.066-2.29-1.48 1.442c-.163.166-.3.305-.616.305l.22-3.165 5.683-5.204c.247-.223-.054-.347-.384-.123L4.839 9.29l-3.024-.959c-.658-.208-.67-.667.137-.986L13.78 2.727c.548-.208 1.027.124.849.971Z"/></symbol><symbol viewBox="0 0 16 16" id="viber" xmlns="http://www.w3.org/2000/svg"><path d="M8 1.335c-1.071.013-3.374.19-4.662 1.37-.958.948-1.292 2.35-1.331 4.084-.033 1.728-.072 4.973 3.058 5.856v1.346s-.02.538.337.648c.438.14.688-.275 1.105-.72l.778-.879c2.142.178 3.782-.232 3.97-.293.435-.139 2.883-.451 3.283-3.696.41-3.351-.2-5.463-1.301-6.418h-.007c-.332-.306-1.668-1.279-4.652-1.29 0 0-.222-.014-.578-.008Zm.037.942a7.02 7.02 0 0 1 .488.011c2.527.007 3.732.767 4.017 1.023.927.794 1.405 2.697 1.055 5.495-.332 2.713-2.317 2.885-2.685 3.002-.156.05-1.6.406-3.42.289 0 0-1.356 1.634-1.78 2.055-.067.074-.146.095-.196.085-.071-.018-.093-.107-.089-.229l.013-2.233c-2.655-.733-2.498-3.5-2.47-4.946.033-1.446.304-2.628 1.113-3.43 1.088-.982 3.043-1.115 3.953-1.122Zm.2 1.446a.166.166 0 1 0 0 .332 3.136 3.136 0 0 1 2.242.883c.606.588.9 1.378.912 2.411 0 .092.074.167.167.167V7.51a.167.167 0 0 0 .168-.165 3.588 3.588 0 0 0-1.009-2.646c-.66-.645-1.496-.977-2.48-.977Zm-2.198.382a.523.523 0 0 0-.342.067H5.69a2.61 2.61 0 0 0-.637.523 1.003 1.003 0 0 0-.256.525.71.71 0 0 0 .026.302l.01.006c.172.504.396.988.67 1.444a8.48 8.48 0 0 0 1.29 1.762l.015.022.024.017.015.018.017.015c.532.505 1.127.94 1.769 1.295.734.4 1.18.588 1.447.667v.004c.078.024.15.034.221.034.228-.016.444-.109.613-.262a2.53 2.53 0 0 0 .517-.638v-.004c.128-.241.085-.469-.1-.623-.37-.323-.77-.61-1.195-.857-.285-.155-.574-.061-.69.095l-.25.315c-.129.156-.361.134-.361.134l-.007.004C7.093 8.527 6.63 6.772 6.63 6.772s-.022-.239.139-.36l.312-.252c.15-.122.254-.41.094-.695a7.498 7.498 0 0 0-.856-1.194.475.475 0 0 0-.28-.167Zm2.486.495c-.221 0-.221.334.003.334A2.098 2.098 0 0 1 10 5.572 1.94 1.94 0 0 1 10.5 7a.168.168 0 0 0 .167.165l.007.009a.169.169 0 0 0 .167-.167c.015-.662-.191-1.218-.595-1.663C9.84 4.9 9.273 4.65 8.549 4.6h-.024Zm.274.898c-.228-.006-.236.335-.01.341.55.029.816.306.851.877a.166.166 0 0 0 .165.163h.007a.168.168 0 0 0 .16-.178c-.039-.744-.445-1.164-1.166-1.202H8.8Z"/></symbol><symbol viewBox="0 0 24 24" id="vk" xmlns="http://www.w3.org/2000/svg"><path d="M21.579 6.855c.14-.465 0-.806-.662-.806h-2.193c-.558 0-.813.295-.953.619 0 0-1.115 2.719-2.695 4.482-.51.513-.743.675-1.021.675-.139 0-.341-.162-.341-.627V6.855c0-.558-.161-.806-.626-.806H9.642c-.348 0-.558.258-.558.504 0 .528.79.65.871 2.138v3.228c0 .707-.127.836-.407.836-.743 0-2.551-2.73-3.624-5.853-.209-.607-.42-.852-.98-.852H2.752c-.627 0-.752.295-.752.619 0 .582.743 3.462 3.461 7.27 1.812 2.602 4.363 4.012 6.687 4.012 1.393 0 1.565-.313 1.565-.853v-1.966c0-.626.133-.752.574-.752.324 0 .882.164 2.183 1.417 1.486 1.486 1.732 2.153 2.567 2.153h2.192c.626 0 .939-.313.759-.931-.197-.615-.907-1.51-1.849-2.57-.512-.603-1.277-1.253-1.51-1.578-.325-.42-.231-.604 0-.976.001 0 2.672-3.761 2.95-5.04Z"/></symbol><symbol viewBox="0 0 16 16" id="whatsapp" xmlns="http://www.w3.org/2000/svg"><path fill-rule="evenodd" clip-rule="evenodd" d="M12.269 3.755A5.947 5.947 0 0 0 8.035 2 5.994 5.994 0 0 0 2.05 7.985a5.98 5.98 0 0 0 .799 2.992L2 14.077l3.173-.832c.877.477 1.86.728 2.86.728h.002a5.993 5.993 0 0 0 5.533-8.276 5.953 5.953 0 0 0-1.3-1.942Zm-4.234 9.208h-.002c-.89 0-1.765-.24-2.532-.694l-.181-.108-1.883.494.502-1.835-.118-.188a4.965 4.965 0 0 1-.76-2.647 4.982 4.982 0 0 1 6.88-4.597c.604.25 1.152.618 1.613 1.081a4.946 4.946 0 0 1 1.455 3.52 4.982 4.982 0 0 1-4.974 4.974Zm2.729-3.726c-.15-.075-.885-.436-1.022-.486-.137-.05-.236-.075-.336.074-.1.15-.387.486-.474.586-.087.1-.175.112-.324.038-.15-.075-.631-.233-1.203-.742a4.505 4.505 0 0 1-.832-1.036c-.087-.15-.009-.231.066-.306.068-.066.15-.174.224-.262.075-.087.1-.149.15-.249.05-.1.025-.187-.013-.262-.037-.075-.337-.811-.461-1.11-.121-.29-.244-.252-.336-.256a6.418 6.418 0 0 0-.286-.005.55.55 0 0 0-.4.186c-.137.15-.523.512-.523 1.248s.536 1.447.61 1.547c.075.1 1.055 1.61 2.555 2.258.358.154.636.246.853.315.358.114.684.098.942.06.287-.043.885-.362 1.01-.711.124-.35.124-.649.087-.711-.038-.063-.138-.101-.287-.176Z"/></symbol></svg>