<svg width="72" height="72" viewBox="0 0 72 72" fill="none" xmlns="http://www.w3.org/2000/svg">
<path d="M72.0001 3.39307H70.3369V4.38667H72.0001V3.39307Z" fill="#373331"/>
<path d="M68.0762 3.39307H3.63379V4.38667H68.0762V3.39307Z" fill="#373331"/>
<path d="M1.3752 3.39307H0V4.38667H1.3752V3.39307Z" fill="#373331"/>
<path d="M68.0762 5.68018H3.63379V6.67378H68.0762V5.68018Z" fill="#373331"/>
<path d="M1.3752 5.68018H0V6.67378H1.3752V5.68018Z" fill="#373331"/>
<path d="M72.0001 5.68018H70.3369V6.67378H72.0001V5.68018Z" fill="#373331"/>
<path d="M68.0762 7.96729H3.63379V8.96088H68.0762V7.96729Z" fill="#373331"/>
<path d="M1.3752 7.96729H0V8.96088H1.3752V7.96729Z" fill="#373331"/>
<path d="M72.0001 7.96729H70.3369V8.96088H72.0001V7.96729Z" fill="#373331"/>
<path d="M68.0762 15.0303H3.63379V16.0239H68.0762V15.0303Z" fill="#373331"/>
<path d="M72.0001 15.0303H70.3369V16.0239H72.0001V15.0303Z" fill="#373331"/>
<path d="M1.3752 15.0303H0V16.0239H1.3752V15.0303Z" fill="#373331"/>
<path d="M72.0001 25.708H70.3369V26.7016H72.0001V25.708Z" fill="#373331"/>
<path d="M1.3752 25.708H0V26.7016H1.3752V25.708Z" fill="#373331"/>
<path d="M68.0762 25.708H3.63379V26.7016H68.0762V25.708Z" fill="#373331"/>
<path d="M1.3752 44.9702H0V45.9638H1.3752V44.9702Z" fill="#373331"/>
<path d="M72.0001 44.9702H70.3369V45.9638H72.0001V44.9702Z" fill="#373331"/>
<path d="M68.0762 44.9702H3.63379V45.9638H68.0762V44.9702Z" fill="#373331"/>
<path d="M1.3752 56.2095H0V57.2031H1.3752V56.2095Z" fill="#373331"/>
<path d="M72.0001 56.2095H70.3369V57.2031H72.0001V56.2095Z" fill="#373331"/>
<path d="M68.0762 56.2095H3.63379V57.2031H68.0762V56.2095Z" fill="#373331"/>
<path d="M72.0001 32.771H70.3369V33.7646H72.0001V32.771Z" fill="#373331"/>
<path d="M68.0762 32.771H3.63379V33.7646H68.0762V32.771Z" fill="#373331"/>
<path d="M1.3752 32.771H0V33.7646H1.3752V32.771Z" fill="#373331"/>
<path d="M72.0001 35.0586H70.3369V36.0522H72.0001V35.0586Z" fill="#373331"/>
<path d="M1.3752 35.0586H0V36.0522H1.3752V35.0586Z" fill="#373331"/>
<path d="M68.0762 35.0586H3.63379V36.0522H68.0762V35.0586Z" fill="#373331"/>
<path d="M68.0762 37.3457H3.63379V38.3393H68.0762V37.3457Z" fill="#373331"/>
<path d="M72.0001 37.3457H70.3369V38.3393H72.0001V37.3457Z" fill="#373331"/>
<path d="M1.3752 37.3457H0V38.3393H1.3752V37.3457Z" fill="#373331"/>
<path d="M1.3752 63.8345H0V64.8281H1.3752V63.8345Z" fill="#373331"/>
<path d="M68.0762 63.8345H3.63379V64.8281H68.0762V63.8345Z" fill="#373331"/>
<path d="M72.0001 63.8345H70.3369V64.8281H72.0001V63.8345Z" fill="#373331"/>
<path d="M72.0001 66.1216H70.3369V67.1152H72.0001V66.1216Z" fill="#373331"/>
<path d="M68.0762 66.1216H3.63379V67.1152H68.0762V66.1216Z" fill="#373331"/>
<path d="M1.3752 66.1216H0V67.1152H1.3752V66.1216Z" fill="#373331"/>
<path d="M68.0762 68.4111H3.63379V69.4047H68.0762V68.4111Z" fill="#373331"/>
<path d="M1.3752 68.4111H0V69.4047H1.3752V68.4111Z" fill="#373331"/>
<path d="M72.0001 68.4111H70.3369V69.4047H72.0001V68.4111Z" fill="#373331"/>
<path d="M3.63411 71.98H1.37571C1.31038 71.9803 1.24564 71.9677 1.18522 71.9428C1.1248 71.918 1.06991 71.8814 1.02371 71.8352C0.977517 71.789 0.940935 71.7341 0.916081 71.6737C0.891227 71.6133 0.878594 71.5485 0.878912 71.4832V1.71999C0.879547 1.58864 0.932168 1.4629 1.02527 1.37025C1.11837 1.2776 1.24437 1.22558 1.37571 1.22559H3.63411C3.76546 1.22558 3.89146 1.2776 3.98456 1.37025C4.07766 1.4629 4.13028 1.58864 4.13091 1.71999V71.4832C4.13123 71.5485 4.1186 71.6133 4.09374 71.6737C4.06889 71.7341 4.03231 71.789 3.98611 71.8352C3.93992 71.8814 3.88502 71.918 3.8246 71.9428C3.76419 71.9677 3.69944 71.9803 3.63411 71.98ZM1.87251 70.9864H3.13731V2.21919H1.87251V70.9864Z" fill="#373331"/>
<path d="M70.3377 71.98H68.0769C67.9451 71.98 67.8188 71.9276 67.7256 71.8345C67.6324 71.7413 67.5801 71.6149 67.5801 71.4832V1.71999C67.5807 1.58864 67.6333 1.4629 67.7264 1.37025C67.8195 1.2776 67.9455 1.22558 68.0769 1.22559H70.3377C70.469 1.22558 70.595 1.2776 70.6881 1.37025C70.7812 1.4629 70.8339 1.58864 70.8345 1.71999V71.4832C70.8345 71.6149 70.7821 71.7413 70.689 71.8345C70.5958 71.9276 70.4694 71.98 70.3377 71.98ZM68.5737 70.9864H69.8409V2.21919H68.5737V70.9864Z" fill="#373331"/>
<path d="M8.20356 1H7.20996V3.8896H8.20356V1Z" fill="#373331"/>
<path d="M13.3247 1H12.3311V3.8896H13.3247V1Z" fill="#373331"/>
<path d="M18.4487 1H17.4551V3.8896H18.4487V1Z" fill="#373331"/>
<path d="M23.5707 1H22.5771V3.8896H23.5707V1Z" fill="#373331"/>
<path d="M28.6918 1H27.6982V3.8896H28.6918V1Z" fill="#373331"/>
<path d="M33.8159 1H32.8223V3.8896H33.8159V1Z" fill="#373331"/>
<path d="M38.9379 1H37.9443V3.8896H38.9379V1Z" fill="#373331"/>
<path d="M54.3051 1H53.3115V3.8896H54.3051V1Z" fill="#373331"/>
<path d="M44.059 1H43.0654V3.8896H44.059V1Z" fill="#373331"/>
<path d="M49.1831 1H48.1895V3.8896H49.1831V1Z" fill="#373331"/>
<path d="M59.4291 1H58.4355V3.8896H59.4291V1Z" fill="#373331"/>
<path d="M64.5502 1H63.5566V3.8896H64.5502V1Z" fill="#373331"/>
<path d="M8.20356 8.46387H7.20996V33.2679H8.20356V8.46387Z" fill="#373331"/>
<path d="M13.3247 8.46387H12.3311V33.2679H13.3247V8.46387Z" fill="#373331"/>
<path d="M18.4487 8.46387H17.4551V33.2679H18.4487V8.46387Z" fill="#373331"/>
<path d="M23.5707 8.46387H22.5771V33.2679H23.5707V8.46387Z" fill="#373331"/>
<path d="M28.6918 8.46387H27.6982V33.2679H28.6918V8.46387Z" fill="#373331"/>
<path d="M33.8159 8.46387H32.8223V33.2679H33.8159V8.46387Z" fill="#373331"/>
<path d="M38.9379 8.46387H37.9443V33.2679H38.9379V8.46387Z" fill="#373331"/>
<path d="M54.3051 8.46387H53.3115V33.2679H54.3051V8.46387Z" fill="#373331"/>
<path d="M44.059 8.46387H43.0654V33.2679H44.059V8.46387Z" fill="#373331"/>
<path d="M49.1831 8.46387H48.1895V33.2679H49.1831V8.46387Z" fill="#373331"/>
<path d="M59.4291 8.46387H58.4355V33.2679H59.4291V8.46387Z" fill="#373331"/>
<path d="M64.5502 8.46387H63.5566V33.2679H64.5502V8.46387Z" fill="#373331"/>
<path d="M8.20356 37.8423H7.20996V64.3311H8.20356V37.8423Z" fill="#373331"/>
<path d="M13.3247 37.8423H12.3311V64.3311H13.3247V37.8423Z" fill="#373331"/>
<path d="M18.4487 37.8423H17.4551V64.3311H18.4487V37.8423Z" fill="#373331"/>
<path d="M23.5707 37.8423H22.5771V64.3311H23.5707V37.8423Z" fill="#373331"/>
<path d="M28.6918 37.8423H27.6982V64.3311H28.6918V37.8423Z" fill="#373331"/>
<path d="M33.8159 37.8423H32.8223V64.3311H33.8159V37.8423Z" fill="#373331"/>
<path d="M38.9379 37.8423H37.9443V64.3311H38.9379V37.8423Z" fill="#373331"/>
<path d="M54.3051 37.8423H53.3115V64.3311H54.3051V37.8423Z" fill="#373331"/>
<path d="M44.059 37.8423H43.0654V64.3311H44.059V37.8423Z" fill="#373331"/>
<path d="M49.1831 37.8423H48.1895V64.3311H49.1831V37.8423Z" fill="#373331"/>
<path d="M59.4291 37.8423H58.4355V64.3311H59.4291V37.8423Z" fill="#373331"/>
<path d="M64.5502 37.8423H63.5566V64.3311H64.5502V37.8423Z" fill="#373331"/>
<path d="M8.20297 8.46388H7.19977C7.19977 8.14708 7.02457 7.98388 6.66457 7.71028C6.30457 7.43668 5.75977 6.99988 5.75977 6.17668C5.75977 5.35348 6.28537 4.94788 6.66937 4.64308C7.05337 4.33828 7.19977 4.20628 7.19977 3.87988H8.19337C8.19337 4.69108 7.66537 5.10868 7.28137 5.41348C6.89737 5.71828 6.74857 5.85028 6.74857 6.16708C6.74857 6.48388 6.92137 6.64708 7.28137 6.92068C7.64137 7.19428 8.20297 7.65268 8.20297 8.46388Z" fill="#373331"/>
<path d="M13.3248 8.46405H12.3312C12.3312 8.11845 12.1896 7.96485 11.892 7.67925C11.5944 7.39365 11.1504 6.95925 11.1504 6.17685C11.1504 5.39445 11.5776 4.97685 11.892 4.67685C12.2064 4.37685 12.3312 4.23525 12.3312 3.88965H13.3248C13.3248 4.67205 12.8952 5.08965 12.5832 5.38965C12.2712 5.68965 12.144 5.83125 12.144 6.17685C12.144 6.52245 12.2856 6.67605 12.5832 6.96405C12.8808 7.25205 13.3248 7.68165 13.3248 8.46405Z" fill="#373331"/>
<path d="M18.4465 8.46388H17.4553C17.4555 8.3087 17.4246 8.15506 17.3644 8.01202C17.3043 7.86898 17.216 7.73945 17.1049 7.63108C16.7381 7.23563 16.5342 6.71612 16.5342 6.17668C16.5342 5.63724 16.7381 5.11774 17.1049 4.72228C17.2174 4.61296 17.3065 4.4819 17.3667 4.33709C17.4269 4.19227 17.4571 4.03672 17.4553 3.87988H18.4465C18.4517 4.41991 18.2479 4.94103 17.8777 5.33428C17.7667 5.4427 17.6785 5.57223 17.6182 5.71525C17.558 5.85827 17.527 6.01189 17.527 6.16708C17.527 6.32227 17.558 6.47589 17.6182 6.61891C17.6785 6.76193 17.7667 6.89146 17.8777 6.99988C18.2498 7.39581 18.4537 7.92064 18.4465 8.46388Z" fill="#373331"/>
<path d="M23.5707 8.46388H22.5771C22.5877 8.14592 22.4978 7.8327 22.3203 7.56868C22.0525 7.15452 21.9146 6.66978 21.9243 6.17668C21.9147 5.68434 22.0526 5.20038 22.3203 4.78708C22.4993 4.51929 22.5892 4.20179 22.5771 3.87988H23.5707C23.5794 4.37251 23.4424 4.85673 23.1771 5.27188C22.996 5.53454 22.9035 5.84818 22.9131 6.16708C22.904 6.48667 22.9964 6.80092 23.1771 7.06468C23.4446 7.48153 23.5817 7.96871 23.5707 8.46388Z" fill="#373331"/>
<path d="M28.6925 8.46401H27.6989C27.7073 8.128 27.6494 7.79363 27.5285 7.48001C27.3727 7.0627 27.297 6.61977 27.3053 6.17441C27.297 5.72905 27.3727 5.28612 27.5285 4.86881C27.6496 4.55607 27.7075 4.22245 27.6989 3.88721H28.6925C28.702 4.33266 28.6263 4.77582 28.4693 5.19281C28.3485 5.50561 28.2906 5.83918 28.2989 6.17441C28.2903 6.50965 28.3482 6.84327 28.4693 7.15601C28.6266 7.57375 28.7023 8.01775 28.6925 8.46401Z" fill="#373331"/>
<path d="M33.8163 8.46405H32.8227C32.8257 8.10067 32.8049 7.73749 32.7603 7.37685C32.7107 6.97882 32.6874 6.57795 32.6907 6.17685C32.6874 5.77575 32.7107 5.37487 32.7603 4.97685C32.8049 4.6162 32.8257 4.25302 32.8227 3.88965H33.8163C33.8197 4.29075 33.7964 4.69162 33.7467 5.08965C33.7022 5.45029 33.6813 5.81347 33.6843 6.17685C33.6812 6.54023 33.702 6.90342 33.7467 7.26405C33.7964 7.66207 33.8197 8.06295 33.8163 8.46405Z" fill="#373331"/>
<path d="M38.9373 8.46405H37.9437C37.9404 8.06295 37.9636 7.66207 38.0133 7.26405C38.058 6.90342 38.0789 6.54023 38.0757 6.17685C38.0787 5.81347 38.0578 5.45029 38.0133 5.08965C37.9636 4.69162 37.9404 4.29075 37.9437 3.88965H38.9373C38.9343 4.25302 38.9551 4.6162 38.9997 4.97685C39.0493 5.37487 39.0726 5.77575 39.0693 6.17685C39.0726 6.57795 39.0493 6.97882 38.9997 7.37685C38.9551 7.73749 38.9343 8.10067 38.9373 8.46405Z" fill="#373331"/>
<path d="M44.0588 8.46405H43.0652C43.0562 8.01843 43.1328 7.57522 43.2908 7.15845C43.4118 6.84571 43.4697 6.51209 43.4612 6.17685C43.4695 5.84162 43.4116 5.50805 43.2908 5.19525C43.1328 4.77848 43.0562 4.33527 43.0652 3.88965H44.0588C44.0502 4.22489 44.1081 4.55851 44.2292 4.87125C44.3872 5.28802 44.4637 5.73123 44.4548 6.17685C44.4637 6.62247 44.3872 7.06568 44.2292 7.48245C44.1086 7.79532 44.0507 8.12884 44.0588 8.46405Z" fill="#373331"/>
<path d="M49.1835 8.46405H48.1899C48.1808 7.97213 48.3178 7.48856 48.5835 7.07445C48.7633 6.8104 48.8549 6.49617 48.8451 6.17685C48.8554 5.85821 48.7637 5.5446 48.5835 5.28165C48.3181 4.8665 48.1812 4.38227 48.1899 3.88965H49.1835C49.1734 4.20831 49.2632 4.52214 49.4403 4.78725C49.7059 5.20136 49.8429 5.68493 49.8339 6.17685C49.843 6.66953 49.706 7.15387 49.4403 7.56885C49.2628 7.83287 49.1729 8.14608 49.1835 8.46405Z" fill="#373331"/>
<path d="M54.3052 8.46388H53.3116C53.3057 7.92086 53.5095 7.39648 53.8804 6.99988C53.9915 6.89146 54.0797 6.76193 54.1399 6.61891C54.2002 6.47589 54.2312 6.32227 54.2312 6.16708C54.2312 6.01189 54.2002 5.85827 54.1399 5.71525C54.0797 5.57223 53.9915 5.4427 53.8804 5.33428C53.5114 4.94036 53.3077 4.41969 53.3116 3.87988H54.3052C54.3042 4.03519 54.3348 4.18908 54.395 4.33223C54.4552 4.47538 54.5439 4.60482 54.6556 4.71268C55.0215 5.10866 55.2247 5.62797 55.2247 6.16708C55.2247 6.7062 55.0215 7.22551 54.6556 7.62148C54.543 7.73064 54.4538 7.86166 54.3935 8.00652C54.3332 8.15137 54.3032 8.30701 54.3052 8.46388Z" fill="#373331"/>
<path d="M59.4291 8.46405H58.4355C58.4355 7.68165 58.8627 7.26405 59.1771 6.96405C59.4915 6.66405 59.6163 6.52245 59.6163 6.17685C59.6163 5.83125 59.4747 5.67765 59.1771 5.38965C58.8795 5.10165 58.4355 4.66965 58.4355 3.88965H59.4291C59.4291 4.23525 59.5707 4.38885 59.8683 4.67685C60.1659 4.96485 60.6099 5.39685 60.6099 6.17685C60.6099 6.95685 60.1803 7.37685 59.8683 7.67925C59.5563 7.98165 59.4291 8.11845 59.4291 8.46405Z" fill="#373331"/>
<path d="M64.56 8.46405H63.5664C63.5664 7.65285 64.092 7.23525 64.476 6.93045C64.86 6.62565 65.0112 6.49365 65.0112 6.17685C65.0112 5.86005 64.8384 5.70885 64.476 5.42325C64.1136 5.13765 63.5664 4.70325 63.5664 3.88965H64.56C64.56 4.20645 64.7328 4.36965 65.0928 4.64325C65.4528 4.91685 66.0048 5.36325 66.0048 6.17685C66.0048 6.99045 65.4792 7.40565 65.0928 7.71045C64.7064 8.01525 64.56 8.14725 64.56 8.46405Z" fill="#373331"/>
<path d="M8.20288 37.8234H7.19968C7.19968 37.5066 7.02448 37.3434 6.66448 37.0698C6.30448 36.7962 5.75488 36.3498 5.75488 35.5362C5.75488 34.7226 6.28048 34.3074 6.66448 34.0026C7.04848 33.6978 7.19968 33.5658 7.19968 33.249H8.19328C8.19328 34.0602 7.66528 34.4778 7.28128 34.7826C6.89728 35.0874 6.74848 35.2194 6.74848 35.5362C6.74848 35.853 6.92128 36.0042 7.28128 36.2898C7.64128 36.5754 8.20288 37.0122 8.20288 37.8234Z" fill="#373331"/>
<path d="M13.3248 37.8234H12.3312C12.3312 37.4778 12.1896 37.3242 11.892 37.0362C11.5944 36.7482 11.1504 36.3162 11.1504 35.5362C11.1504 34.7562 11.5776 34.3362 11.892 34.0362C12.2064 33.7362 12.3312 33.5946 12.3312 33.249H13.3248C13.3248 34.0314 12.8952 34.449 12.5832 34.749C12.2712 35.049 12.144 35.1906 12.144 35.5362C12.144 35.8818 12.2856 36.0354 12.5832 36.3234C12.8808 36.6114 13.3248 37.041 13.3248 37.8234Z" fill="#373331"/>
<path d="M18.4465 37.8231H17.4553C17.4543 37.6695 17.4227 37.5177 17.3626 37.3764C17.3024 37.2351 17.2149 37.1071 17.1049 36.9999C16.7381 36.6044 16.5342 36.0849 16.5342 35.5455C16.5342 35.0061 16.7381 34.4866 17.1049 34.0911C17.2162 33.9829 17.3046 33.8534 17.3648 33.7103C17.425 33.5672 17.4558 33.4135 17.4553 33.2583H18.4465C18.4517 33.7983 18.2479 34.3195 17.8777 34.7127C17.7667 34.8211 17.6785 34.9506 17.6182 35.0937C17.558 35.2367 17.527 35.3903 17.527 35.5455C17.527 35.7007 17.558 35.8543 17.6182 35.9973C17.6785 36.1403 17.7667 36.2699 17.8777 36.3783C18.2456 36.7691 18.4492 37.2864 18.4465 37.8231Z" fill="#373331"/>
<path d="M23.5701 37.8234H22.5765C22.587 37.5055 22.4972 37.1922 22.3197 36.9282C22.0603 36.5103 21.9229 36.0281 21.9229 35.5362C21.9229 35.0443 22.0603 34.5622 22.3197 34.1442C22.4989 33.8808 22.5904 33.5675 22.5813 33.249H23.5749C23.5835 33.7416 23.4466 34.2259 23.1813 34.641C23.0089 34.9082 22.9172 35.2195 22.9172 35.5374C22.9172 35.8554 23.0089 36.1666 23.1813 36.4338C23.4452 36.8485 23.5805 37.332 23.5701 37.8234Z" fill="#373331"/>
<path d="M28.6918 37.8234H27.6982C27.7065 37.4882 27.6486 37.1546 27.5278 36.8418C27.2303 35.9968 27.2303 35.0756 27.5278 34.2306C27.6489 33.9179 27.7068 33.5843 27.6982 33.249H28.6918C28.7013 33.6945 28.6256 34.1376 28.4686 34.5546C28.2415 35.1893 28.2415 35.8831 28.4686 36.5178C28.6256 36.9348 28.7013 37.378 28.6918 37.8234Z" fill="#373331"/>
<path d="M33.816 37.8234H32.8224C32.8254 37.46 32.8046 37.0969 32.76 36.7362C32.6672 35.9389 32.6672 35.1335 32.76 34.3362C32.8046 33.9756 32.8254 33.6124 32.8224 33.249H33.816C33.8193 33.6501 33.7961 34.051 33.7464 34.449C33.6632 35.1714 33.6632 35.901 33.7464 36.6234C33.7961 37.0214 33.8193 37.4223 33.816 37.8234Z" fill="#373331"/>
<path d="M38.9373 37.8234H37.9437C37.9404 37.4223 37.9636 37.0214 38.0133 36.6234C38.0965 35.901 38.0965 35.1714 38.0133 34.449C37.9636 34.051 37.9404 33.6501 37.9437 33.249H38.9373C38.9343 33.6124 38.9551 33.9756 38.9997 34.3362C39.0925 35.1335 39.0925 35.9389 38.9997 36.7362C38.9551 37.0969 38.9343 37.46 38.9373 37.8234Z" fill="#373331"/>
<path d="M44.0588 37.8234H43.0652C43.0562 37.3778 43.1328 36.9346 43.2908 36.5178C43.5179 35.8831 43.5179 35.1893 43.2908 34.5546C43.1328 34.1379 43.0562 33.6946 43.0652 33.249H44.0588C44.0502 33.5843 44.1081 33.9179 44.2292 34.2306C44.53 35.075 44.53 35.9974 44.2292 36.8418C44.1083 37.1546 44.0504 37.4882 44.0588 37.8234Z" fill="#373331"/>
<path d="M49.1835 37.8234H48.1899C48.1808 37.3315 48.3178 36.8479 48.5835 36.4338C48.7544 36.1661 48.8453 35.8551 48.8453 35.5374C48.8453 35.2198 48.7544 34.9087 48.5835 34.641C48.3181 34.2259 48.1812 33.7416 48.1899 33.249H49.1835C49.1729 33.567 49.2628 33.8802 49.4403 34.1442C49.6975 34.563 49.8337 35.0448 49.8337 35.5362C49.8337 36.0277 49.6975 36.5095 49.4403 36.9282C49.2628 37.1922 49.1729 37.5055 49.1835 37.8234Z" fill="#373331"/>
<path d="M54.3052 37.8234H53.3116C53.3077 37.2836 53.5113 36.7629 53.8804 36.369C53.9914 36.2606 54.0796 36.1311 54.1399 35.9881C54.2001 35.845 54.2311 35.6914 54.2311 35.5362C54.2311 35.381 54.2001 35.2274 54.1399 35.0844C54.0796 34.9414 53.9914 34.8118 53.8804 34.7034C53.5113 34.3095 53.3077 33.7888 53.3116 33.249H54.3052C54.3042 33.4043 54.3347 33.5582 54.3949 33.7014C54.4552 33.8445 54.5438 33.974 54.6556 34.0818C55.0214 34.4778 55.2246 34.9971 55.2246 35.5362C55.2246 36.0753 55.0214 36.5946 54.6556 36.9906C54.5441 37.0987 54.4555 37.2281 54.3953 37.3712C54.3351 37.5144 54.3044 37.6682 54.3052 37.8234Z" fill="#373331"/>
<path d="M59.4291 37.8234H58.4355C58.4355 37.041 58.8627 36.6234 59.1771 36.3234C59.4915 36.0234 59.6163 35.8818 59.6163 35.5362C59.6163 35.1906 59.4747 35.037 59.1771 34.749C58.8795 34.461 58.4355 34.029 58.4355 33.249H59.4291C59.4291 33.5946 59.5707 33.7482 59.8683 34.0362C60.1659 34.3242 60.6099 34.7562 60.6099 35.5362C60.6099 36.3162 60.1803 36.7362 59.8683 37.0362C59.5563 37.3362 59.4291 37.4802 59.4291 37.8234Z" fill="#373331"/>
<path d="M64.56 37.8234H63.5664C63.5664 37.0122 64.092 36.5946 64.476 36.2898C64.86 35.985 65.0112 35.853 65.0112 35.5362C65.0112 35.2194 64.8384 35.0562 64.476 34.7826C64.1136 34.509 63.5664 34.0626 63.5664 33.249H64.56C64.56 33.5658 64.7328 33.717 65.0928 34.0026C65.4528 34.2882 66.0048 34.7226 66.0048 35.5362C66.0048 36.3498 65.4792 36.765 65.0928 37.0698C64.7064 37.3746 64.56 37.5066 64.56 37.8234Z" fill="#373331"/>
<path d="M8.20297 68.8H7.19977C7.19977 68.4832 7.02457 68.332 6.66457 68.0464C6.30457 67.7608 5.75977 67.3264 5.75977 66.52C5.75977 65.7136 6.28537 65.2912 6.66937 64.9864C7.05337 64.6816 7.19977 64.5424 7.19977 64.2256H8.19337C8.19337 65.0368 7.66537 65.4544 7.28137 65.7592C6.89737 66.064 6.74857 66.196 6.74857 66.5128C6.74857 66.8296 6.92137 66.9928 7.28137 67.2688C7.64137 67.5448 8.20297 67.9888 8.20297 68.8Z" fill="#373331"/>
<path d="M13.3248 68.8H12.3312C12.3312 68.4544 12.1896 68.3008 11.892 68.0152C11.5944 67.7296 11.1504 67.2952 11.1504 66.5128C11.1504 65.7304 11.5776 65.3128 11.892 65.0128C12.2064 64.7128 12.3312 64.5712 12.3312 64.2256H13.3248C13.3248 65.008 12.8952 65.4256 12.5832 65.7256C12.2712 66.0256 12.144 66.1672 12.144 66.52C12.144 66.8728 12.2856 67.0192 12.5832 67.3072C12.8808 67.5952 13.3248 68.0176 13.3248 68.8Z" fill="#373331"/>
<path d="M18.4468 68.7998H17.4556C17.4573 68.6433 17.4271 68.4882 17.3669 68.3438C17.3066 68.1993 17.2176 68.0687 17.1052 67.9598C16.7381 67.564 16.5342 67.0441 16.5342 66.5042C16.5342 65.9644 16.7381 65.4445 17.1052 65.0486C17.2165 64.9404 17.3049 64.8109 17.3651 64.6678C17.4253 64.5248 17.456 64.371 17.4556 64.2158H18.4468C18.4519 64.7559 18.2481 65.277 17.878 65.6702C17.767 65.7786 17.6787 65.9082 17.6185 66.0512C17.5582 66.1942 17.5272 66.3478 17.5272 66.503C17.5272 66.6582 17.5582 66.8118 17.6185 66.9549C17.6787 67.0979 17.767 67.2274 17.878 67.3358C18.25 67.7317 18.4539 68.2566 18.4468 68.7998Z" fill="#373331"/>
<path d="M23.5703 68.8H22.5767C22.5872 68.482 22.4974 68.1688 22.3199 67.9048C22.061 67.4871 21.9238 67.0054 21.9238 66.514C21.9238 66.0226 22.061 65.5409 22.3199 65.1232C22.4987 64.8586 22.5902 64.5448 22.5815 64.2256H23.5751C23.5842 64.7183 23.4472 65.2026 23.1815 65.6176C23.0091 65.8848 22.9174 66.196 22.9174 66.514C22.9174 66.832 23.0091 67.1432 23.1815 67.4104C23.4455 67.825 23.5808 68.3086 23.5703 68.8Z" fill="#373331"/>
<path d="M28.6918 68.8H27.6982C27.7063 68.4648 27.6484 68.1313 27.5278 67.8184C27.2303 66.9734 27.2303 66.0522 27.5278 65.2072C27.6489 64.8944 27.7068 64.5608 27.6982 64.2256H28.6918C28.7013 64.671 28.6256 65.1142 28.4686 65.5312C28.2415 66.1659 28.2415 66.8597 28.4686 67.4944C28.6256 67.9114 28.7013 68.3545 28.6918 68.8Z" fill="#373331"/>
<path d="M33.816 68.8H32.8224C32.8254 68.4366 32.8046 68.0734 32.76 67.7128C32.6672 66.9155 32.6672 66.1101 32.76 65.3128C32.8047 64.9521 32.8255 64.589 32.8224 64.2256H33.816C33.8193 64.6267 33.7961 65.0276 33.7464 65.4256C33.6632 66.148 33.6632 66.8776 33.7464 67.6C33.7961 67.998 33.8193 68.3989 33.816 68.8Z" fill="#373331"/>
<path d="M38.9373 68.8H37.9437C37.9404 68.3989 37.9636 67.998 38.0133 67.6C38.0965 66.8776 38.0965 66.148 38.0133 65.4256C37.9636 65.0276 37.9404 64.6267 37.9437 64.2256H38.9373C38.9342 64.589 38.955 64.9521 38.9997 65.3128C39.0925 66.1101 39.0925 66.9155 38.9997 67.7128C38.9551 68.0734 38.9343 68.4366 38.9373 68.8Z" fill="#373331"/>
<path d="M44.0588 68.8H43.0652C43.0562 68.3544 43.1328 67.9112 43.2908 67.4944C43.5179 66.8597 43.5179 66.1659 43.2908 65.5312C43.1328 65.1144 43.0562 64.6712 43.0652 64.2256H44.0588C44.0502 64.5608 44.1081 64.8944 44.2292 65.2072C44.53 66.0516 44.53 66.974 44.2292 67.8184C44.1086 68.1313 44.0507 68.4648 44.0588 68.8Z" fill="#373331"/>
<path d="M49.1835 68.8H48.1899C48.1808 68.3081 48.3178 67.8245 48.5835 67.4104C48.7544 67.1427 48.8453 66.8316 48.8453 66.514C48.8453 66.1963 48.7544 65.8853 48.5835 65.6176C48.3177 65.2026 48.1808 64.7183 48.1899 64.2256H49.1835C49.1748 64.5448 49.2663 64.8586 49.4451 65.1232C49.7024 65.5415 49.8386 66.0229 49.8386 66.514C49.8386 67.0051 49.7024 67.4865 49.4451 67.9048C49.2659 68.1682 49.1743 68.4815 49.1835 68.8Z" fill="#373331"/>
<path d="M54.3052 68.8H53.3116C53.3082 68.2603 53.5117 67.7398 53.8804 67.3456C53.9914 67.2372 54.0796 67.1076 54.1399 66.9646C54.2001 66.8216 54.2311 66.668 54.2311 66.5128C54.2311 66.3576 54.2001 66.204 54.1399 66.061C54.0796 65.9179 53.9914 65.7884 53.8804 65.68C53.5113 65.2861 53.3077 64.7654 53.3116 64.2256H54.3052C54.3042 64.3809 54.3347 64.5348 54.3949 64.6779C54.4552 64.8211 54.5438 64.9505 54.6556 65.0584C55.0211 65.455 55.224 65.9746 55.224 66.514C55.224 67.0533 55.0211 67.573 54.6556 67.9696C54.5439 68.077 54.4553 68.206 54.395 68.3488C54.3348 68.4915 54.3042 68.645 54.3052 68.8Z" fill="#373331"/>
<path d="M59.4291 68.8H58.4355C58.4355 68.0176 58.8627 67.6 59.1771 67.3C59.4915 67 59.6163 66.8584 59.6163 66.5128C59.6163 66.1672 59.4747 66.0136 59.1771 65.7256C58.8795 65.4376 58.4355 65.0056 58.4355 64.2256H59.4291C59.4291 64.5712 59.5707 64.7248 59.8683 65.0128C60.1659 65.3008 60.6099 65.7328 60.6099 66.5128C60.6099 67.2928 60.1803 67.7128 59.8683 68.0152C59.5563 68.3176 59.4291 68.4544 59.4291 68.8Z" fill="#373331"/>
<path d="M64.56 68.8H63.5664C63.5664 67.9888 64.092 67.5712 64.476 67.2688C64.86 66.9664 65.0112 66.8296 65.0112 66.5128C65.0112 66.196 64.8384 66.0328 64.476 65.7592C64.1136 65.4856 63.5664 65.0392 63.5664 64.2256H64.56C64.56 64.5424 64.7328 64.6936 65.0928 64.9792C65.4528 65.2648 66.0048 65.6992 66.0048 66.5128C66.0048 67.3264 65.4792 67.7416 65.0928 68.0464C64.7064 68.3512 64.56 68.4832 64.56 68.8Z" fill="#373331"/>
</svg>
