<svg width="72" height="72" viewBox="0 0 72 72" fill="none" xmlns="http://www.w3.org/2000/svg">
<path d="M12.8809 68.6404H0.489957C0.360012 68.6404 0.23539 68.5888 0.143505 68.4969C0.0516203 68.405 0 68.2804 0 68.1504L0 11.1071C0 10.9772 0.0516203 10.8526 0.143505 10.7607C0.23539 10.6688 0.360012 10.6172 0.489957 10.6172H12.8809C13.0108 10.6172 13.1355 10.6688 13.2273 10.7607C13.3192 10.8526 13.3709 10.9772 13.3709 11.1071V68.1504C13.3709 68.2804 13.3192 68.405 13.2273 68.4969C13.1355 68.5888 13.0108 68.6404 12.8809 68.6404ZM0.979914 67.6605H12.3909V11.5876H0.979914V67.6605Z" fill="#373331"/>
<path d="M13.0628 68.6048L12.6982 67.6959L16.0948 66.3373V58.8364H17.0747V66.671C17.0753 66.769 17.0462 66.8648 16.9913 66.9459C16.9364 67.027 16.8582 67.0896 16.767 67.1255L13.0628 68.6048Z" fill="#373331"/>
<path d="M17.0771 20.1085H16.0948V12.9106L12.6982 11.552L13.0628 10.6431L16.7694 12.1224C16.8604 12.1592 16.9383 12.2224 16.9931 12.3038C17.0479 12.3852 17.0772 12.4811 17.0771 12.5792V20.1085Z" fill="#373331"/>
<path d="M16.2305 17.1118L12.6587 16.0751H0.663086V15.0952H12.7345C12.7809 15.0957 12.827 15.1021 12.8718 15.1142L16.5098 16.1698L16.2305 17.1118Z" fill="#373331"/>
<path d="M14.8434 20.9372L12.6706 20.4307H0.663086V19.4508H12.7345C12.7714 19.4461 12.8088 19.4461 12.8457 19.4508L15.073 19.9691L14.8434 20.9372Z" fill="#373331"/>
<path d="M14.8363 25.1645L12.6848 24.7763H0.663086V23.8035H12.7345C12.7628 23.8012 12.7913 23.8012 12.8197 23.8035L15.0139 24.1893L14.8363 25.1645Z" fill="#373331"/>
<path d="M14.7653 29.3846L12.699 29.1479H0.663086V28.168H12.7345H12.7913L14.8884 28.4047L14.7653 29.3846Z" fill="#373331"/>
<path d="M14.8363 33.6261L12.7061 33.4936H0.663086V32.5137H12.7582L14.8884 32.6439L14.8363 33.6261Z" fill="#373331"/>
<path d="M14.8671 37.858L12.725 37.8486H0.663086V36.8687H12.7274L14.8718 36.8781L14.8671 37.858Z" fill="#373331"/>
<path d="M12.7274 42.2041H0.663086V41.2242H12.7132L14.7582 41.1177L14.8079 42.0952L12.7534 42.2041H12.7274Z" fill="#373331"/>
<path d="M12.7274 46.552H0.663086V45.5721H12.7014L14.7298 45.3496L14.8387 46.3224L12.7818 46.552H12.7274Z" fill="#373331"/>
<path d="M12.7274 50.9143H0.663086V49.9344H12.6871L14.6635 49.603L14.8245 50.5711L12.8079 50.9072C12.7813 50.9119 12.7544 50.9142 12.7274 50.9143Z" fill="#373331"/>
<path d="M12.7274 55.2696H0.663086V54.2873H12.6729L14.5878 53.8589L14.8032 54.8057L12.8339 55.2459C12.7996 55.2585 12.7638 55.2665 12.7274 55.2696Z" fill="#373331"/>
<path d="M12.7274 59.6225H0.663086V58.6426H12.6587L14.7062 58.0674L14.9712 59.0142L12.8599 59.6083C12.8166 59.6189 12.772 59.6237 12.7274 59.6225Z" fill="#373331"/>
<path d="M12.7274 63.9777H0.663086V62.9977H12.6469L16.2092 61.793L16.524 62.7208L12.8836 63.9516C12.8336 63.9698 12.7806 63.9787 12.7274 63.9777Z" fill="#373331"/>
<path d="M3.97698 15.7368H2.99707V19.789H3.97698V15.7368Z" fill="#373331"/>
<path d="M5.87933 24.3643H4.89941V28.5466H5.87933V24.3643Z" fill="#373331"/>
<path d="M3.97698 33.2524H2.99707V37.3046H3.97698V33.2524Z" fill="#373331"/>
<path d="M5.87933 24.3643H4.89941V28.5466H5.87933V24.3643Z" fill="#373331"/>
<path d="M9.33538 20.1084H8.35547V24.2908H9.33538V20.1084Z" fill="#373331"/>
<path d="M8.98968 11.3486H8.00977V15.531H8.98968V11.3486Z" fill="#373331"/>
<path d="M9.33538 28.7056H8.35547V32.888H9.33538V28.7056Z" fill="#373331"/>
<path d="M9.33538 37.3496H8.35547V41.532H9.33538V37.3496Z" fill="#373331"/>
<path d="M9.33538 46.1094H8.35547V50.2918H9.33538V46.1094Z" fill="#373331"/>
<path d="M9.33538 54.8389H8.35547V59.0213H9.33538V54.8389Z" fill="#373331"/>
<path d="M8.98968 63.5703H8.00977V67.7527H8.98968V63.5703Z" fill="#373331"/>
<path d="M5.87933 41.8774H4.89941V46.0433H5.87933V41.8774Z" fill="#373331"/>
<path d="M3.97698 50.5713H2.99707V54.6235H3.97698V50.5713Z" fill="#373331"/>
<path d="M5.87933 59.1963H4.89941V63.3621H5.87933V59.1963Z" fill="#373331"/>
<path d="M71.4981 68.6404H59.1071C58.9772 68.6404 58.8526 68.5888 58.7607 68.4969C58.6688 68.405 58.6172 68.2804 58.6172 68.1504V11.1071C58.6172 10.9772 58.6688 10.8526 58.7607 10.7607C58.8526 10.6688 58.9772 10.6172 59.1071 10.6172H71.4981C71.628 10.6172 71.7527 10.6688 71.8445 10.7607C71.9364 10.8526 71.988 10.9772 71.988 11.1071V68.1504C71.988 68.2804 71.9364 68.405 71.8445 68.4969C71.7527 68.5888 71.628 68.6404 71.4981 68.6404ZM59.5971 67.6605H71.0081V11.5876H59.5971V67.6605Z" fill="#373331"/>
<path d="M55.8906 20.2386H54.9131V12.5792C54.913 12.4811 54.9423 12.3852 54.9971 12.3038C55.0519 12.2224 55.1298 12.1592 55.2208 12.1224L58.9369 10.6431L59.3014 11.552L55.9025 12.9106L55.8906 20.2386Z" fill="#373331"/>
<path d="M58.9369 68.605L55.2303 67.1233C55.1377 67.0891 55.0577 67.0275 55.0011 66.9468C54.9444 66.866 54.9137 66.7699 54.9131 66.6712V58.936H55.893V66.3375L59.2919 67.6961L58.9369 68.605Z" fill="#373331"/>
<path d="M55.7576 17.1122L55.4854 16.1654L59.1233 15.1098C59.1681 15.0977 59.2142 15.0913 59.2606 15.0908H71.332V16.0707H59.3316L55.7576 17.1122Z" fill="#373331"/>
<path d="M57.1117 20.9439L56.8916 19.9971L59.1497 19.4693C59.1866 19.4647 59.224 19.4647 59.2609 19.4693H71.3323V20.4492H59.3177L57.1117 20.9439Z" fill="#373331"/>
<path d="M57.1851 25.1572L57.0146 24.1915L59.1757 23.8128C59.204 23.8105 59.2325 23.8105 59.2609 23.8128H71.3323V24.7761H59.3035L57.1851 25.1572Z" fill="#373331"/>
<path d="M57.1091 29.3986L56.9932 28.4258L59.2039 28.1631H59.2607H71.3321V29.143H59.2891L57.1091 29.3986Z" fill="#373331"/>
<path d="M57.0836 33.6286L57.0244 32.651L59.2304 32.5161H71.3255V33.496H59.2754L57.0836 33.6286Z" fill="#373331"/>
<path d="M57.0975 37.858L57.0928 36.8781L59.2585 36.8687H71.3252V37.8486H59.2609L57.0975 37.858Z" fill="#373331"/>
<path d="M71.3254 42.2039H59.2351L57.0693 42.0903L57.1214 41.1104L59.2753 41.224H71.3254V42.2039Z" fill="#373331"/>
<path d="M71.3257 46.5523H59.2093L57.0791 46.3156L57.188 45.3428L59.278 45.5795H71.3163L71.3257 46.5523Z" fill="#373331"/>
<path d="M71.3251 50.9144H59.2537C59.2269 50.9167 59.2 50.9167 59.1732 50.9144L57.043 50.5594L57.2039 49.5913L59.2939 49.9416H71.318L71.3251 50.9144Z" fill="#373331"/>
<path d="M71.325 55.2696H59.2536C59.2176 55.2696 59.1818 55.2648 59.1471 55.2554L56.9316 54.7607L57.1447 53.814L59.3081 54.2874H71.3179L71.325 55.2696Z" fill="#373331"/>
<path d="M71.3254 59.6222H59.254C59.2093 59.6226 59.1647 59.6171 59.1214 59.6056L56.6338 58.8955L56.8989 57.9487L59.3226 58.628H71.3183L71.3254 59.6222Z" fill="#373331"/>
<path d="M71.325 63.9777H59.2536C59.2004 63.9784 59.1475 63.9696 59.0974 63.9516L55.457 62.7208L55.7718 61.793L59.3341 62.9977H71.3179L71.325 63.9777Z" fill="#373331"/>
<path d="M68.9916 15.7368H68.0117V19.789H68.9916V15.7368Z" fill="#373331"/>
<path d="M67.0883 24.3643H66.1084V28.5466H67.0883V24.3643Z" fill="#373331"/>
<path d="M68.9916 33.2524H68.0117V37.3046H68.9916V33.2524Z" fill="#373331"/>
<path d="M67.0883 24.3643H66.1084V28.5466H67.0883V24.3643Z" fill="#373331"/>
<path d="M63.6332 20.1084H62.6533V24.2908H63.6332V20.1084Z" fill="#373331"/>
<path d="M63.9789 11.3486H62.999V15.531H63.9789V11.3486Z" fill="#373331"/>
<path d="M63.6332 28.7056H62.6533V32.888H63.6332V28.7056Z" fill="#373331"/>
<path d="M63.6332 37.3496H62.6533V41.532H63.6332V37.3496Z" fill="#373331"/>
<path d="M63.6332 46.1094H62.6533V50.2918H63.6332V46.1094Z" fill="#373331"/>
<path d="M63.6332 54.8389H62.6533V59.0213H63.6332V54.8389Z" fill="#373331"/>
<path d="M63.9789 63.5703H62.999V67.7527H63.9789V63.5703Z" fill="#373331"/>
<path d="M67.0883 41.8774H66.1084V46.0433H67.0883V41.8774Z" fill="#373331"/>
<path d="M68.9916 50.5713H68.0117V54.6235H68.9916V50.5713Z" fill="#373331"/>
<path d="M67.0883 59.1963H66.1084V63.3621H67.0883V59.1963Z" fill="#373331"/>
<path d="M17.4234 59.3145H14.8884C14.8239 59.3145 14.76 59.3017 14.7004 59.277C14.6408 59.2522 14.5866 59.2159 14.5411 59.1702C14.4956 59.1244 14.4595 59.0701 14.4351 59.0104C14.4106 58.9507 14.3981 58.8867 14.3984 58.8222V20.2126C14.3981 20.1482 14.4106 20.0843 14.4351 20.0247C14.4596 19.9652 14.4957 19.911 14.5412 19.8655C14.5868 19.8199 14.6409 19.7838 14.7005 19.7593C14.7601 19.7348 14.824 19.7223 14.8884 19.7227H17.4234C17.5533 19.7227 17.678 19.7743 17.7698 19.8662C17.8617 19.9581 17.9134 20.0827 17.9134 20.2126V23.782H16.9334V20.7049H15.3855V58.3393H16.9405V55.6907H17.9205V58.8222C17.9205 58.8872 17.9076 58.9516 17.8825 59.0117C17.8575 59.0717 17.8208 59.1262 17.7746 59.172C17.7284 59.2178 17.6735 59.2539 17.6133 59.2784C17.553 59.3028 17.4884 59.3151 17.4234 59.3145Z" fill="#373331"/>
<path d="M17.9135 27.5288H16.9336V51.7332H17.9135V27.5288Z" fill="#373331"/>
<path d="M22.133 28.0213H16.1706C16.1062 28.0216 16.0423 28.0092 15.9828 27.9847C15.9232 27.9602 15.869 27.9241 15.8235 27.8785C15.7779 27.833 15.7418 27.7788 15.7173 27.7192C15.6928 27.6596 15.6804 27.5958 15.6807 27.5314V23.8034C15.6807 23.6735 15.7323 23.5489 15.8242 23.457C15.9161 23.3651 16.0407 23.3135 16.1706 23.3135H22.133C22.2629 23.3135 22.3875 23.3651 22.4794 23.457C22.5713 23.5489 22.6229 23.6735 22.6229 23.8034V27.5314C22.6232 27.5958 22.6108 27.6596 22.5863 27.7192C22.5617 27.7788 22.5257 27.833 22.4801 27.8785C22.4345 27.9241 22.3804 27.9602 22.3208 27.9847C22.2612 28.0092 22.1974 28.0216 22.133 28.0213ZM16.6606 27.0414H21.6312V24.3029H16.6606V27.0414Z" fill="#373331"/>
<path d="M22.1329 56.0482H16.1706C16.0407 56.0482 15.9161 55.9966 15.8242 55.9047C15.7323 55.8128 15.6807 55.6882 15.6807 55.5582V51.8303C15.6807 51.7003 15.7323 51.5757 15.8242 51.4838C15.9161 51.392 16.0407 51.3403 16.1706 51.3403H22.1329C22.2629 51.3403 22.3875 51.392 22.4794 51.4838C22.5713 51.5757 22.6229 51.7003 22.6229 51.8303V55.5582C22.6229 55.6882 22.5713 55.8128 22.4794 55.9047C22.3875 55.9966 22.2629 56.0482 22.1329 56.0482ZM16.6606 55.073H21.6312V52.3202H16.6606V55.073Z" fill="#373331"/>
<path d="M56.9419 59.3145H54.407C54.2768 59.3139 54.1522 59.2617 54.0604 59.1695C53.9685 59.0772 53.917 58.9523 53.917 58.8222V55.4777H54.8969V58.3322H56.452V20.6978H54.8969V23.8482H53.917V20.2126C53.917 20.0827 53.9686 19.9581 54.0605 19.8662C54.1524 19.7743 54.277 19.7227 54.407 19.7227H56.9419C57.0064 19.7223 57.0702 19.7348 57.1298 19.7593C57.1894 19.7838 57.2435 19.8199 57.2891 19.8655C57.3347 19.911 57.3707 19.9652 57.3952 20.0247C57.4198 20.0843 57.4322 20.1482 57.4319 20.2126V58.8222C57.4322 58.8867 57.4198 58.9507 57.3953 59.0104C57.3708 59.0701 57.3348 59.1244 57.2892 59.1702C57.2437 59.2159 57.1896 59.2522 57.13 59.277C57.0704 59.3017 57.0065 59.3145 56.9419 59.3145Z" fill="#373331"/>
<path d="M54.8969 27.5005H53.917V51.906H54.8969V27.5005Z" fill="#373331"/>
<path d="M55.661 28.0213H49.7058C49.6414 28.0216 49.5775 28.0092 49.5179 27.9847C49.4583 27.9602 49.4042 27.9241 49.3586 27.8785C49.3131 27.833 49.277 27.7788 49.2525 27.7192C49.228 27.6596 49.2155 27.5958 49.2158 27.5314V23.8034C49.2158 23.7391 49.2285 23.6754 49.2531 23.6159C49.2777 23.5565 49.3138 23.5025 49.3593 23.457C49.4048 23.4115 49.4588 23.3754 49.5183 23.3508C49.5777 23.3261 49.6414 23.3135 49.7058 23.3135H55.6705C55.8004 23.3135 55.925 23.3651 56.0169 23.457C56.1088 23.5489 56.1604 23.6735 56.1604 23.8034V27.5314C56.1604 27.5965 56.1475 27.661 56.1223 27.7211C56.097 27.7811 56.0601 27.8356 56.0136 27.8812C55.9671 27.9268 55.912 27.9627 55.8514 27.9868C55.7909 28.0108 55.7261 28.0226 55.661 28.0213ZM50.1792 27.0414H55.1616V24.3029H50.1792V27.0414Z" fill="#373331"/>
<path d="M55.661 56.0482H49.7058C49.5758 56.0482 49.4512 55.9966 49.3593 55.9047C49.2674 55.8128 49.2158 55.6882 49.2158 55.5582V51.8303C49.2158 51.7003 49.2674 51.5757 49.3593 51.4838C49.4512 51.392 49.5758 51.3403 49.7058 51.3403H55.6705C55.8004 51.3403 55.925 51.392 56.0169 51.4838C56.1088 51.5757 56.1604 51.7003 56.1604 51.8303V55.5582C56.1604 55.6234 56.1475 55.6879 56.1222 55.7479C56.097 55.808 56.0601 55.8624 56.0136 55.9081C55.9671 55.9537 55.912 55.9896 55.8514 56.0136C55.7909 56.0377 55.7261 56.0494 55.661 56.0482ZM50.1792 55.073H55.1616V52.3202H50.1792V55.073Z" fill="#373331"/>
<path d="M17.087 12.9414H16.107V10.8514L12.8123 9.51167H0.977547V11.0975H0V9.02171C0 8.89176 0.0516203 8.76714 0.143505 8.67526C0.23539 8.58337 0.360012 8.53175 0.489957 8.53175H12.9093C12.9728 8.53127 13.0357 8.54417 13.0939 8.56962L16.7816 10.0679C16.872 10.104 16.9494 10.1663 17.0038 10.247C17.0583 10.3276 17.0872 10.4227 17.087 10.52V12.9414Z" fill="#373331"/>
<path d="M13.3991 10.8964H12.4192V9.21355L7.7776 4.14829L0.785658 9.41474L0.196289 8.63128L7.54328 3.09974C7.64019 3.0259 7.76124 2.99102 7.88259 3.00197C8.00394 3.01293 8.11679 3.06891 8.19892 3.15891L13.2689 8.69282C13.3532 8.78154 13.3999 8.89945 13.3991 9.02182V10.8964Z" fill="#373331"/>
<path d="M8.19645 3.09944L7.5791 3.86377L16.3394 10.9394L16.9567 10.1751L8.19645 3.09944Z" fill="#373331"/>
<path d="M55.8812 12.9414H54.9131V10.52C54.9128 10.4227 54.9418 10.3276 54.9962 10.247C55.0507 10.1663 55.1281 10.104 55.2184 10.0679L58.9061 8.56962C58.9643 8.54417 59.0272 8.53127 59.0907 8.53175H71.5101C71.64 8.53175 71.7646 8.58337 71.8565 8.67526C71.9484 8.76714 72 8.89176 72 9.02171V11.0975H71.0083V9.51167H59.1736L55.8788 10.8514L55.8812 12.9414Z" fill="#373331"/>
<path d="M59.5688 10.8964H58.5889V9.02182C58.5898 8.89977 58.6362 8.78244 58.719 8.69282L63.789 3.15891C63.8712 3.06891 63.984 3.01293 64.1054 3.00197C64.2267 2.99102 64.3478 3.0259 64.4447 3.09974L71.794 8.63128L71.2047 9.41474L64.2104 4.14829L59.5688 9.21355V10.8964Z" fill="#373331"/>
<path d="M63.8408 3.10438L55.083 10.1357L55.6965 10.8999L64.4543 3.86849L63.8408 3.10438Z" fill="#373331"/>
</svg>
