<svg width="72" height="72" viewBox="0 0 72 72" fill="none" xmlns="http://www.w3.org/2000/svg">
<path d="M7.96152 9.75098H6.98145V56.3637H7.96152V9.75098Z" fill="#373331"/>
<path d="M5.70273 9.75098H4.72266V56.3637H5.70273V9.75098Z" fill="#373331"/>
<path d="M7.47101 64.396H5.20784C5.08077 64.3917 4.96034 64.3382 4.872 64.2467C4.78365 64.1553 4.7343 64.0331 4.73438 63.906V58.6221H5.71445V63.4159H6.99281V58.6221H7.97288V63.906C7.9729 63.9713 7.95985 64.036 7.93448 64.0963C7.90912 64.1565 7.87196 64.2111 7.8252 64.2567C7.77843 64.3024 7.723 64.3382 7.66218 64.3621C7.60135 64.3861 7.53635 64.3976 7.47101 64.396Z" fill="#373331"/>
<path d="M68.1391 64.396H65.8807C65.7507 64.396 65.6261 64.3444 65.5342 64.2525C65.4423 64.1606 65.3906 64.0359 65.3906 63.906V58.6221H66.3707V63.4159H67.6491V58.6221H68.6291V63.906C68.6291 64.0359 68.5775 64.1606 68.4856 64.2525C68.3937 64.3444 68.2691 64.396 68.1391 64.396Z" fill="#373331"/>
<path d="M68.6285 9.75098H67.6484V56.3637H68.6285V9.75098Z" fill="#373331"/>
<path d="M66.3707 9.75098H65.3906V56.3637H66.3707V9.75098Z" fill="#373331"/>
<path d="M9.67538 27.7638L9.30844 27.4229C9.25809 27.3769 9.2178 27.3209 9.1901 27.2586C9.16239 27.1963 9.14788 27.1289 9.14746 27.0607C9.1687 26.741 9.28036 26.4339 9.46942 26.1753L10.2932 26.7103C10.2523 26.7666 10.2143 26.8251 10.1796 26.8855L10.3453 27.0417L9.67538 27.7638Z" fill="#373331"/>
<path d="M9.68721 15.3711L9.31317 15.0302C9.26149 14.984 9.22005 14.9274 9.19151 14.8642C9.16297 14.801 9.14797 14.7326 9.14746 14.6632C9.1567 14.3309 9.2469 14.0059 9.41023 13.7163L10.2767 14.1756C10.2248 14.2699 10.1842 14.37 10.1559 14.4739L10.3524 14.6538L9.68721 15.3711Z" fill="#373331"/>
<path d="M13.9316 56.5882C12.9846 54.7607 10.6978 53.1343 9.7627 52.5188L10.3024 51.6997C11.3015 52.3555 13.7398 54.1025 14.8004 56.1337L13.9316 56.5882Z" fill="#373331"/>
<path d="M9.70574 40.1804C9.469 39.9578 9.31513 39.8253 9.31513 39.8253C9.26333 39.7791 9.22181 39.7226 9.19326 39.6594C9.16471 39.5962 9.14977 39.5277 9.14941 39.4583C9.16365 39.1131 9.26813 38.7776 9.45243 38.4854L10.3023 38.9754C10.2453 39.0712 10.1984 39.1728 10.1626 39.2784L10.3662 39.4654L9.70574 40.1804Z" fill="#373331"/>
<path d="M15.1984 21.4408L14.2894 21.0715C14.3199 21.0084 14.3383 20.9401 14.3438 20.8703C14.3197 20.6735 14.2508 20.4848 14.1426 20.3187L15.0043 19.8452C15.1925 20.1524 15.3022 20.5012 15.3239 20.8608C15.321 21.0605 15.2784 21.2577 15.1984 21.4408Z" fill="#373331"/>
<path d="M9.76255 52.5192C9.52582 52.3677 9.39088 52.2825 9.38615 52.2825C9.31395 52.2384 9.25427 52.1764 9.21282 52.1027C9.17138 52.0289 9.14955 51.9457 9.14941 51.8611C9.16558 51.5559 9.26731 51.2614 9.44296 51.0112L10.2739 51.532C10.2506 51.5672 10.2293 51.6035 10.21 51.6409L10.3047 51.7025L9.76255 52.5192Z" fill="#373331"/>
<path d="M14.1855 32.8253C13.4162 31.348 10.5375 28.5783 9.67578 27.7639L10.3457 27.0537C11.4892 28.1308 14.2376 30.8059 15.0544 32.3755L14.1855 32.8253Z" fill="#373331"/>
<path d="M10.2912 26.7031L9.46973 26.1752C9.92189 25.4792 10.8286 24.653 11.7897 23.7794C12.8313 22.8325 14.0126 21.7577 14.292 21.0688L15.1987 21.4405C14.8341 22.3354 13.6741 23.3912 12.4455 24.518C11.5743 25.2922 10.6723 26.1136 10.2912 26.7031Z" fill="#373331"/>
<path d="M10.2766 14.1729L9.41016 13.7137C9.88362 12.8377 10.9347 11.9737 11.9574 11.1356C12.6335 10.6193 13.2668 10.0493 13.8513 9.43115L14.5899 10.0774C13.9704 10.7408 13.2974 11.352 12.5776 11.905C11.6283 12.6815 10.653 13.4722 10.2766 14.1729Z" fill="#373331"/>
<path d="M10.2714 51.5297L9.44043 51.0089C9.88075 50.2987 10.8064 49.4654 11.7841 48.5753C12.8281 47.6283 14.0094 46.5512 14.2887 45.8623L15.1978 46.2316C14.8332 47.1265 13.6732 48.1823 12.4446 49.3091C11.5568 50.1046 10.6525 50.9402 10.2714 51.5297Z" fill="#373331"/>
<path d="M10.303 38.9709L9.45312 38.4856C9.95263 37.6167 11.0416 36.6556 12.0927 35.7229C13.0396 34.8777 14.0339 34.0066 14.2919 33.436L15.1844 33.8385C14.8412 34.6008 13.8209 35.4956 12.7437 36.4567C11.7494 37.3327 10.722 38.2488 10.303 38.9709Z" fill="#373331"/>
<path d="M14.1642 45.1474C13.3711 43.6252 10.5492 40.962 9.7041 40.176L10.367 39.4658C11.4891 40.5003 14.1902 43.0807 15.033 44.7L14.1642 45.1474Z" fill="#373331"/>
<path d="M15.1986 46.2312L14.2895 45.8619C14.3202 45.798 14.3386 45.729 14.344 45.6583C14.323 45.4773 14.2615 45.3033 14.1641 45.1494L15.0329 44.6948C15.2055 44.9881 15.3053 45.3185 15.3241 45.6583C15.3203 45.8557 15.2776 46.0503 15.1986 46.2312Z" fill="#373331"/>
<path d="M14.1428 20.3115C13.3166 18.7751 10.5255 16.1426 9.6875 15.3708L10.3527 14.6606C11.4606 15.681 14.1405 18.2306 15.0045 19.8688L14.1428 20.3115Z" fill="#373331"/>
<path d="M15.1836 33.8361L14.2911 33.4312C14.3191 33.3782 14.3368 33.3204 14.3432 33.2608C14.3226 33.1058 14.2685 32.9571 14.1846 32.8252L15.0534 32.373C15.2129 32.6432 15.3055 32.9476 15.3233 33.2608C15.3189 33.4604 15.2712 33.6567 15.1836 33.8361Z" fill="#373331"/>
<path d="M14.4127 21.6113C14.1523 21.3746 13.9913 21.2325 13.9913 21.2301C13.9387 21.1845 13.8965 21.1282 13.8675 21.0649C13.8385 21.0016 13.8234 20.9328 13.8232 20.8632C13.8376 20.4957 13.9513 20.139 14.1523 19.8311L14.9951 20.3282C14.9292 20.4361 14.8759 20.5513 14.8365 20.6715L15.0732 20.8869L14.4127 21.6113Z" fill="#373331"/>
<path d="M15.7092 56.7139L14.999 56.0274C15.4725 55.5539 16.0501 55.0378 16.6088 54.5478C17.6291 53.6553 18.7868 52.6539 18.9761 52.0029L19.9231 52.287C19.6461 53.1961 18.4861 54.2116 17.2598 55.2864C16.7224 55.767 16.1566 56.2404 15.7092 56.7139Z" fill="#373331"/>
<path d="M14.4127 46.409C14.1523 46.1723 13.9913 46.0279 13.9913 46.0255C13.938 45.9805 13.8953 45.9243 13.8663 45.8609C13.8372 45.7974 13.8225 45.7283 13.8233 45.6586C13.8412 45.2902 13.969 44.9357 14.1902 44.6406L15.0069 45.1851C14.9451 45.2745 14.892 45.3696 14.8483 45.4692L15.0851 45.6751L14.4127 46.409Z" fill="#373331"/>
<path d="M14.4127 33.9995C14.1547 33.7628 13.9984 33.6349 13.9961 33.6326C13.9424 33.5866 13.8992 33.5296 13.8694 33.4655C13.8395 33.4014 13.8238 33.3316 13.8232 33.2609C13.8542 32.9103 13.996 32.5786 14.2281 32.314L15.014 32.8987C14.9639 32.9657 14.9173 33.0352 14.8743 33.107C14.9312 33.1544 14.9927 33.2112 15.0637 33.2751L14.4127 33.9995Z" fill="#373331"/>
<path d="M19.886 27.6075L18.9674 27.2666C18.9942 27.2009 19.0102 27.1314 19.0148 27.0606C18.9984 26.8939 18.9467 26.7325 18.8633 26.5872L19.7439 26.1587C19.8936 26.4361 19.9793 26.7435 19.9949 27.0583C19.9918 27.2464 19.9549 27.4324 19.886 27.6075Z" fill="#373331"/>
<path d="M14.9941 20.3281L14.1514 19.8309C14.6603 18.9645 15.7304 18.0294 16.7554 17.1251C17.7189 16.2847 18.7156 15.4135 18.9618 14.8335L19.885 15.2146C19.5536 16.003 18.5167 16.9073 17.423 17.8637C16.4335 18.7159 15.425 19.5989 14.9941 20.3281Z" fill="#373331"/>
<path d="M18.8674 51.3896C18.1288 49.8675 15.2715 47.1924 14.4121 46.4183L15.075 45.6938C16.216 46.7378 18.955 49.3395 19.7481 50.9683L18.8674 51.3896Z" fill="#373331"/>
<path d="M18.8205 14.1375C18.347 13.2734 17.1113 11.8388 15.3311 10.113L16.0152 9.40283C17.3243 10.6812 19.0217 12.4591 19.6822 13.664L18.8205 14.1375Z" fill="#373331"/>
<path d="M18.8674 26.5898C18.1288 25.0724 15.2715 22.3949 14.4121 21.6184L15.075 20.894C16.216 21.938 18.955 24.5397 19.7481 26.1685L18.8674 26.5898Z" fill="#373331"/>
<path d="M19.9001 39.9957L18.9745 39.669C19.0019 39.6012 19.0171 39.5291 19.0195 39.456C19.0031 39.2624 18.9441 39.0748 18.8467 38.9067L19.7273 38.4854C19.891 38.7881 19.9841 39.124 19.9996 39.4678C19.9962 39.6481 19.9626 39.8265 19.9001 39.9957Z" fill="#373331"/>
<path d="M19.9308 52.2776L18.9839 51.9935C18.9988 51.95 19.0076 51.9045 19.0099 51.8586C18.9935 51.6918 18.9418 51.5304 18.8584 51.3851L19.739 50.959C19.889 51.2354 19.9747 51.5421 19.99 51.8562C19.9911 51.9988 19.9712 52.1408 19.9308 52.2776Z" fill="#373331"/>
<path d="M18.8461 38.9092C18.0744 37.3349 15.2572 34.7522 14.4121 33.9994L15.0631 33.2773C16.19 34.2811 18.8982 36.8023 19.7268 38.4855L18.8461 38.9092Z" fill="#373331"/>
<path d="M15.0135 32.8914L14.2275 32.3066C14.6655 31.7148 15.4538 30.9904 16.2895 30.2258C17.414 29.1912 18.69 28.0194 18.9717 27.2666L19.8855 27.6075C19.5209 28.5828 18.2118 29.7854 16.9476 30.9478C16.1522 31.6817 15.3875 32.3753 15.0135 32.8914Z" fill="#373331"/>
<path d="M15.0066 45.1946L14.2041 44.6406C14.6776 43.9304 15.5582 43.161 16.4957 42.3419C17.5444 41.4234 18.7352 40.3818 18.9861 39.6621L19.9117 39.9864C19.5756 40.9499 18.3919 41.9845 17.1396 43.0805C16.2803 43.8286 15.4043 44.5956 15.0066 45.1946Z" fill="#373331"/>
<path d="M19.8855 15.2147L18.9835 14.8335C19.0099 14.7802 19.026 14.7224 19.0309 14.6631C19.0048 14.4752 18.9368 14.2956 18.832 14.1375L19.6937 13.6641C19.879 13.9638 19.9879 14.3044 20.011 14.656C20.0084 14.8489 19.9656 15.0392 19.8855 15.2147Z" fill="#373331"/>
<path d="M19.0901 15.3852C18.8534 15.1627 18.7018 15.0301 18.7018 15.0301C18.6502 14.9839 18.6087 14.9273 18.5802 14.8641C18.5516 14.801 18.5366 14.7325 18.5361 14.6631C18.5452 14.312 18.6438 13.9689 18.8226 13.6665L19.6796 14.14C19.6211 14.2428 19.5758 14.3526 19.5446 14.4667L19.7553 14.6608L19.0901 15.3852Z" fill="#373331"/>
<path d="M19.7129 26.6489L18.9033 26.0973C19.3768 25.4179 20.2456 24.6177 21.176 23.7726C22.2176 22.8257 23.3989 21.7509 23.6782 21.062L24.5873 21.4408C24.2227 22.3356 23.0627 23.3915 21.8364 24.5183C20.9889 25.2711 20.1225 26.0665 19.7129 26.6489Z" fill="#373331"/>
<path d="M23.5737 32.8252C22.8091 31.3574 19.9517 28.6019 19.0947 27.7922L19.767 27.082C20.901 28.1544 23.6305 30.8129 24.4449 32.3754L23.5737 32.8252Z" fill="#373331"/>
<path d="M19.095 27.7923L18.702 27.4229C18.6515 27.377 18.6112 27.3211 18.5835 27.2588C18.5557 27.1964 18.5413 27.129 18.541 27.0607C18.5638 26.7107 18.6917 26.3758 18.908 26.0996L19.7128 26.6488C19.66 26.7243 19.6125 26.8034 19.5708 26.8856C19.6253 26.9376 19.6915 27.0016 19.7673 27.0702L19.095 27.7923Z" fill="#373331"/>
<path d="M24.5725 33.8361L23.6729 33.4312C23.7009 33.3782 23.7186 33.3204 23.725 33.2608C23.7045 33.1058 23.6503 32.9571 23.5664 32.8252L24.4376 32.373C24.5955 32.6437 24.6872 32.9479 24.7051 33.2608C24.7029 33.4599 24.6577 33.6561 24.5725 33.8361Z" fill="#373331"/>
<path d="M19.6792 14.1422L18.8223 13.6687C19.2957 12.8094 20.3397 11.9595 21.3458 11.1404C22.022 10.6234 22.6554 10.0526 23.2397 9.43359L23.9783 10.0775C23.3585 10.7414 22.6847 11.3527 21.9637 11.9051C21.031 12.6579 20.0651 13.4462 19.6792 14.1422Z" fill="#373331"/>
<path d="M23.531 20.3115C22.7071 18.7775 19.9231 16.1521 19.0898 15.3851L19.7551 14.6631C20.8582 15.681 23.5215 18.2259 24.3927 19.8475L23.531 20.3115Z" fill="#373331"/>
<path d="M23.321 56.5886C22.3741 54.7776 20.118 53.1559 19.1924 52.5452L19.7321 51.7261C20.7217 52.3818 23.1387 54.1218 24.1898 56.134L23.321 56.5886Z" fill="#373331"/>
<path d="M19.7129 51.4516L18.9033 50.8976C19.3768 50.2182 20.2456 49.4204 21.176 48.5729C22.2176 47.626 23.3989 46.5512 23.6782 45.8623L24.5873 46.2316C24.2227 47.1265 23.0627 48.1823 21.8341 49.3091C20.9889 50.0691 20.1225 50.8645 19.7129 51.4516Z" fill="#373331"/>
<path d="M19.1043 40.1923C18.8676 39.9556 18.7018 39.8278 18.7018 39.8254C18.65 39.7793 18.6085 39.7228 18.58 39.6595C18.5514 39.5963 18.5365 39.5278 18.5361 39.4585C18.5521 39.0964 18.6659 38.7455 18.8652 38.4429L19.708 38.9424C19.6441 39.0469 19.5917 39.158 19.5517 39.2738L19.7695 39.4727L19.1043 40.1923Z" fill="#373331"/>
<path d="M24.5873 21.4406L23.6736 21.0642C23.7027 21.0007 23.7203 20.9326 23.7256 20.8629C23.7015 20.6661 23.6327 20.4775 23.5244 20.3114L24.3861 19.8379C24.5743 20.1451 24.6841 20.4939 24.7057 20.8535C24.706 21.0551 24.6658 21.2548 24.5873 21.4406Z" fill="#373331"/>
<path d="M23.5527 45.147C22.762 43.6295 19.9496 40.971 19.1045 40.1921L19.7697 39.4819C20.8895 40.5141 23.5811 43.0897 24.4215 44.7043L23.5527 45.147Z" fill="#373331"/>
<path d="M19.708 38.9423L18.8652 38.4428C19.3742 37.5858 20.4466 36.6365 21.4835 35.718C22.4304 34.8729 23.4223 34.0017 23.6804 33.4312L24.5729 33.8336C24.2296 34.5959 23.2117 35.4907 22.1321 36.4519C21.1521 37.3207 20.1389 38.2179 19.708 38.9423Z" fill="#373331"/>
<path d="M19.1924 52.5451C18.9391 52.377 18.7805 52.2824 18.7758 52.28C18.7036 52.2359 18.6439 52.1739 18.6025 52.1002C18.561 52.0264 18.5392 51.9432 18.5391 51.8586C18.5618 51.5086 18.6897 51.1736 18.906 50.8975L19.7156 51.4514C19.6659 51.5248 19.628 51.5864 19.5996 51.6384L19.7346 51.726L19.1924 52.5451Z" fill="#373331"/>
<path d="M24.5871 46.2312L23.6733 45.8619C23.704 45.798 23.7224 45.729 23.7278 45.6583C23.7068 45.4773 23.6453 45.3033 23.5479 45.1494L24.4167 44.6948C24.5893 44.9881 24.6891 45.3185 24.7078 45.6583C24.7055 45.8554 24.6645 46.05 24.5871 46.2312Z" fill="#373331"/>
<path d="M24.4022 32.8914L23.6162 32.3066C24.0542 31.7148 24.8425 30.9904 25.6782 30.2258C26.8026 29.1912 28.0786 28.0194 28.3603 27.2666L29.2789 27.6075C28.9143 28.5828 27.6075 29.7854 26.341 30.9478C25.5408 31.6817 24.7857 32.3753 24.4022 32.8914Z" fill="#373331"/>
<path d="M24.3954 45.1946L23.5811 44.6406C24.0545 43.9304 24.9352 43.161 25.8726 42.3419C26.9214 41.4234 28.1121 40.3818 28.3631 39.6621L29.2887 39.9864C28.9525 40.9499 27.7689 41.9845 26.5165 43.0805C25.669 43.8286 24.7955 44.5956 24.3954 45.1946Z" fill="#373331"/>
<path d="M28.2348 38.9094C27.463 37.3375 24.6459 34.7524 23.8008 33.9996L24.4518 33.2681C25.5786 34.2718 28.2869 36.793 29.1154 38.4762L28.2348 38.9094Z" fill="#373331"/>
<path d="M29.2795 27.6075L28.361 27.2666C28.3877 27.2009 28.4037 27.1314 28.4083 27.0606C28.3919 26.8939 28.3403 26.7325 28.2568 26.5872L29.1375 26.1587C29.2874 26.436 29.3732 26.7434 29.3884 27.0583C29.3854 27.2464 29.3485 27.4324 29.2795 27.6075Z" fill="#373331"/>
<path d="M23.8034 46.409C23.543 46.1723 23.3796 46.0279 23.3796 46.0255C23.3267 45.9803 23.2845 45.924 23.2558 45.8605C23.2272 45.7971 23.2129 45.7282 23.2139 45.6586C23.2308 45.29 23.3587 44.9352 23.5809 44.6406L24.3952 45.1851C24.3334 45.2745 24.2803 45.3696 24.2366 45.4692L24.4733 45.6751L23.8034 46.409Z" fill="#373331"/>
<path d="M29.2888 39.9957L28.3656 39.6714C28.3912 39.6031 28.4056 39.5312 28.4082 39.4583C28.3918 39.2647 28.3328 39.0772 28.2354 38.9091L29.1184 38.4854C29.282 38.7881 29.3751 39.124 29.3906 39.4678C29.3865 39.6482 29.3521 39.8267 29.2888 39.9957Z" fill="#373331"/>
<path d="M29.3195 52.2774L28.3725 51.9934C28.3875 51.9498 28.3963 51.9044 28.3986 51.8584C28.3829 51.6915 28.3312 51.53 28.2471 51.385L29.1277 50.9541C29.2774 51.2315 29.3631 51.5389 29.3787 51.8537C29.3812 51.9972 29.3613 52.1402 29.3195 52.2774Z" fill="#373331"/>
<path d="M28.2567 51.3896C27.5181 49.8675 24.6607 47.1924 23.8037 46.4183L24.4642 45.6938C25.6052 46.7378 28.3443 49.3395 29.1373 50.9706L28.2567 51.3896Z" fill="#373331"/>
<path d="M29.263 15.2147L28.3611 14.8335C28.3874 14.7802 28.4035 14.7224 28.4084 14.6631C28.3826 14.4755 28.3154 14.296 28.2119 14.1375L29.0713 13.6641C29.2565 13.9638 29.3654 14.3044 29.3885 14.656C29.3859 14.8489 29.3432 15.0392 29.263 15.2147Z" fill="#373331"/>
<path d="M28.2567 26.5898C27.5181 25.0724 24.6607 22.3949 23.8037 21.6184L24.4642 20.894C25.6052 21.938 28.3466 24.5397 29.1373 26.1685L28.2567 26.5898Z" fill="#373331"/>
<path d="M24.3838 20.3281L23.541 19.8309C24.05 18.9645 25.12 18.0294 26.1451 17.1251C27.111 16.2847 28.1076 15.4135 28.3514 14.8335L29.2534 15.2146C28.922 16.003 27.8874 16.9073 26.7914 17.8637C25.8231 18.7159 24.8146 19.5989 24.3838 20.3281Z" fill="#373331"/>
<path d="M28.2115 14.1375C27.7381 13.2734 26.5 11.8388 24.7197 10.113L25.4039 9.40283C26.713 10.6812 28.4104 12.4591 29.0709 13.664L28.2115 14.1375Z" fill="#373331"/>
<path d="M23.801 33.9995C23.5429 33.7628 23.3867 33.6349 23.3843 33.6326C23.3309 33.5864 23.2881 33.5294 23.2587 33.4653C23.2293 33.4011 23.214 33.3314 23.2139 33.2609C23.2441 32.9105 23.3851 32.5789 23.6163 32.314L24.4023 32.8987C24.352 32.965 24.3061 33.0346 24.265 33.107L24.452 33.2751L23.801 33.9995Z" fill="#373331"/>
<path d="M23.8033 21.6113C23.5429 21.3746 23.382 21.2325 23.3796 21.2301C23.3273 21.1844 23.2855 21.128 23.2569 21.0647C23.2283 21.0014 23.2136 20.9327 23.2139 20.8632C23.2273 20.4959 23.3402 20.1392 23.5406 19.8311L24.3833 20.3282C24.3184 20.4367 24.2652 20.5517 24.2247 20.6715L24.4615 20.8869L23.8033 21.6113Z" fill="#373331"/>
<path d="M25.094 56.7139L24.3838 56.0274C24.8573 55.5539 25.4349 55.0378 25.9936 54.5478C27.0139 53.6553 28.1715 52.6539 28.3609 52.0029L29.3078 52.287C29.0309 53.1961 27.8732 54.2116 26.6446 55.2864C26.1119 55.767 25.5461 56.2404 25.094 56.7139Z" fill="#373331"/>
<path d="M29.1016 26.6489L28.292 26.0973C28.7655 25.4179 29.6343 24.6177 30.5646 23.7726C31.6063 22.8257 32.7876 21.7509 33.0693 21.062L33.976 21.4408C33.6138 22.3356 32.4514 23.3915 31.2251 24.5183C30.3776 25.2711 29.5017 26.0665 29.1016 26.6489Z" fill="#373331"/>
<path d="M33.9758 21.4408L33.0691 21.0715C33.0982 21.008 33.1158 20.9399 33.1211 20.8703C33.097 20.6735 33.0282 20.4848 32.9199 20.3187L33.784 19.8452C33.9706 20.153 34.0794 20.5015 34.1012 20.8608C34.0984 21.0605 34.0557 21.2577 33.9758 21.4408Z" fill="#373331"/>
<path d="M32.9648 32.8252C32.1977 31.3574 29.3404 28.6019 28.4834 27.7922L29.1557 27.082C30.2897 28.1544 33.0192 30.8129 33.8336 32.3754L32.9648 32.8252Z" fill="#373331"/>
<path d="M29.0689 14.1422L28.2119 13.6687C28.6854 12.8094 29.7294 11.9595 30.7355 11.1404C31.4117 10.6234 32.045 10.0526 32.6294 9.43359L33.3798 10.0775C32.7609 10.7414 32.0878 11.3527 31.3676 11.9051C30.4206 12.6579 29.4548 13.4462 29.0689 14.1422Z" fill="#373331"/>
<path d="M32.9196 20.3115C32.0958 18.7775 29.3118 16.1521 28.4785 15.3851L29.1437 14.6631C30.2493 15.681 32.9102 18.2259 33.7837 19.8475L32.9196 20.3115Z" fill="#373331"/>
<path d="M32.9414 45.147C32.1507 43.6295 29.3383 40.971 28.4932 40.1921L29.1584 39.4819C30.2781 40.5141 32.9698 43.0897 33.8126 44.7043L32.9414 45.147Z" fill="#373331"/>
<path d="M29.1016 51.4516L28.292 50.8976C28.7655 50.2182 29.6343 49.4204 30.5646 48.5753C31.6063 47.6283 32.7876 46.5512 33.0693 45.8623L33.976 46.2316C33.6114 47.1265 32.4514 48.1823 31.2227 49.3091C30.3776 50.0691 29.5017 50.8668 29.1016 51.4516Z" fill="#373331"/>
<path d="M29.0967 38.9423L28.2539 38.4428C28.7629 37.5858 29.8353 36.6365 30.8722 35.718C31.8191 34.8729 32.811 34.0017 33.0691 33.4312L33.9615 33.8336C33.6183 34.5959 32.6003 35.4907 31.5208 36.4519C30.5384 37.3207 29.5275 38.2179 29.0967 38.9423Z" fill="#373331"/>
<path d="M32.7097 56.5886C31.7627 54.7776 29.5067 53.1559 28.5811 52.5452L29.1208 51.7261C30.1104 52.3818 32.5274 54.1194 33.5785 56.134L32.7097 56.5886Z" fill="#373331"/>
<path d="M28.4841 27.7923L28.0863 27.4229C28.0362 27.3769 27.9962 27.3209 27.9689 27.2586C27.9416 27.1962 27.9276 27.1288 27.9277 27.0607C27.9494 26.7109 28.0765 26.3758 28.2923 26.0996L29.1019 26.6488C29.0486 26.724 29.0011 26.8031 28.9599 26.8856C29.0167 26.9376 29.0806 27.0016 29.1564 27.0702L28.4841 27.7923Z" fill="#373331"/>
<path d="M28.4935 40.1923C28.2568 39.9556 28.0934 39.8278 28.0911 39.8254C28.0396 39.7791 27.9984 39.7226 27.9703 39.6593C27.9421 39.5961 27.9276 39.5277 27.9277 39.4585C27.9428 39.0966 28.0557 38.7456 28.2544 38.4429L29.0972 38.9424C29.0333 39.0469 28.9809 39.158 28.941 39.2738L29.1587 39.4727L28.4935 40.1923Z" fill="#373331"/>
<path d="M28.4793 15.3852C28.2426 15.1627 28.0934 15.0301 28.0911 15.0301C28.0397 14.9837 27.9986 14.9271 27.9705 14.8639C27.9424 14.8007 27.9278 14.7323 27.9277 14.6631C27.9358 14.3121 28.0336 13.969 28.2118 13.6665L29.0688 14.14C29.0104 14.2428 28.9651 14.3526 28.9338 14.4667L29.1445 14.6608L28.4793 15.3852Z" fill="#373331"/>
<path d="M28.5811 52.5452C28.3278 52.3771 28.1692 52.2824 28.1645 52.2801C28.0923 52.2359 28.0326 52.174 27.9911 52.1002C27.9497 52.0265 27.9279 51.9433 27.9277 51.8587C27.9491 51.5095 28.0763 51.1751 28.2923 50.8999L29.1019 51.4515C29.0601 51.5114 29.0222 51.5738 28.9883 51.6385L29.1209 51.7261L28.5811 52.5452Z" fill="#373331"/>
<path d="M33.9615 33.8361L33.069 33.4312C33.097 33.3782 33.1147 33.3204 33.1211 33.2608C33.1009 33.1061 33.0476 32.9575 32.9648 32.8252L33.8337 32.373C33.9916 32.6437 34.0833 32.9479 34.1012 33.2608C34.0968 33.4604 34.0491 33.6567 33.9615 33.8361Z" fill="#373331"/>
<path d="M33.9759 46.2312L33.0692 45.8619C33.0985 45.7977 33.1161 45.7287 33.1213 45.6583C33.1004 45.4773 33.0389 45.3033 32.9414 45.1494L33.8102 44.6948C33.9828 44.9881 34.0827 45.3185 34.1014 45.6583C34.0976 45.8557 34.055 46.0503 33.9759 46.2312Z" fill="#373331"/>
<path d="M37.6404 26.5896C36.9018 25.0722 34.0445 22.3947 33.1875 21.6182L33.8527 20.8867C34.9938 21.9307 37.7351 24.5324 38.5282 26.1611L37.6404 26.5896Z" fill="#373331"/>
<path d="M33.1896 33.9995C32.9316 33.7628 32.7754 33.6326 32.773 33.6326C32.7196 33.5864 32.6768 33.5294 32.6474 33.4653C32.618 33.4011 32.6027 33.3314 32.6025 33.2609C32.6328 32.9105 32.7738 32.5789 33.005 32.314L33.7909 32.8987C33.7406 32.965 33.6948 33.0346 33.6536 33.107L33.8407 33.2751L33.1896 33.9995Z" fill="#373331"/>
<path d="M33.7748 20.3281L32.9297 19.8309C33.4387 18.9645 34.5087 18.0294 35.5338 17.1251C36.4996 16.2847 37.4963 15.4135 37.7401 14.8335L38.6444 15.2146C38.3106 16.003 37.2761 16.9073 36.18 17.8637C35.2142 18.7159 34.2033 19.5989 33.7748 20.3281Z" fill="#373331"/>
<path d="M37.6002 14.1375C37.1267 13.2734 35.8886 11.8388 34.1084 10.113L34.7926 9.40283C36.1017 10.6812 37.7991 12.4591 38.4596 13.664L37.6002 14.1375Z" fill="#373331"/>
<path d="M38.6775 39.9959L37.7542 39.6716C37.7798 39.6033 37.7942 39.5314 37.7968 39.4585C37.7805 39.2649 37.7215 39.0774 37.624 38.9093L38.5047 38.4761C38.6683 38.7788 38.7614 39.1147 38.7769 39.4585C38.7754 39.6421 38.7417 39.8239 38.6775 39.9959Z" fill="#373331"/>
<path d="M33.1921 46.4088C32.9293 46.1721 32.7683 46.0277 32.7683 46.0253C32.7154 45.9801 32.6731 45.9238 32.6445 45.8603C32.6159 45.7969 32.6016 45.728 32.6026 45.6584C32.6214 45.2931 32.7492 44.9418 32.9695 44.6499L33.7839 45.1944C33.723 45.2844 33.6699 45.3794 33.6253 45.4785L33.862 45.6844L33.1921 46.4088Z" fill="#373331"/>
<path d="M38.7081 52.2774L37.7612 51.9934C37.7762 51.9498 37.785 51.9044 37.7873 51.8584C37.7716 51.6915 37.7199 51.53 37.6357 51.385L38.5188 50.9541C38.6678 51.2316 38.7528 51.539 38.7673 51.8537C38.7699 51.9972 38.7499 52.1402 38.7081 52.2774Z" fill="#373331"/>
<path d="M33.192 21.6113C32.9292 21.3746 32.7683 21.2301 32.7683 21.2301C32.7162 21.1842 32.6745 21.1277 32.646 21.0645C32.6174 21.0012 32.6026 20.9326 32.6025 20.8632C32.6159 20.4959 32.7289 20.1392 32.9292 19.8311L33.7744 20.3282C33.7075 20.4356 33.6542 20.5509 33.6158 20.6715L33.8525 20.8869L33.192 21.6113Z" fill="#373331"/>
<path d="M34.4895 56.7139L33.7793 56.0274C34.2528 55.5539 34.8304 55.0378 35.3914 54.5478C36.4094 53.6553 37.567 52.6539 37.7588 52.0029L38.7057 52.287C38.4287 53.1961 37.2711 54.2116 36.0425 55.2864C35.5098 55.767 34.9369 56.2404 34.4895 56.7139Z" fill="#373331"/>
<path d="M37.6404 51.3896C36.9018 49.8698 34.0445 47.1924 33.1875 46.4183L33.848 45.6938C34.989 46.7378 37.7304 49.3395 38.5235 50.9706L37.6404 51.3896Z" fill="#373331"/>
<path d="M38.654 15.2147L37.7497 14.8335C37.7761 14.7802 37.7921 14.7224 37.7971 14.6631C37.7712 14.4755 37.7041 14.296 37.6006 14.1375L38.4599 13.6641C38.6452 13.9638 38.7541 14.3044 38.7771 14.656C38.7744 14.8486 38.7325 15.0387 38.654 15.2147Z" fill="#373331"/>
<path d="M38.6682 27.6075L37.7497 27.2666C37.7776 27.2013 37.7937 27.1316 37.797 27.0606C37.7806 26.8939 37.729 26.7325 37.6455 26.5872L38.5285 26.1587C38.6779 26.4361 38.7628 26.7436 38.7771 27.0583C38.7741 27.2464 38.7372 27.4324 38.6682 27.6075Z" fill="#373331"/>
<path d="M33.7841 45.1944L32.9697 44.6499C33.4432 43.9397 34.3238 43.1703 35.2613 42.3512C36.31 41.4327 37.5008 40.3911 37.7541 39.6714L38.6774 39.9957C38.3412 40.9592 37.1575 41.9937 35.9052 43.0898C35.0601 43.8284 34.1842 44.5954 33.7841 45.1944Z" fill="#373331"/>
<path d="M37.6244 38.9092C36.8527 37.3373 34.0356 34.7522 33.1904 33.9994L33.8533 33.2773C34.9778 34.2811 37.6884 36.8023 38.5146 38.4855L37.6244 38.9092Z" fill="#373331"/>
<path d="M33.7908 32.8914L33.0049 32.3066C33.4428 31.7148 34.2312 30.9904 35.0668 30.2258C36.1913 29.1912 37.4673 28.0194 37.749 27.2666L38.6675 27.6075C38.3053 28.5828 36.9962 29.7854 35.7297 30.9478C34.9295 31.6817 34.1743 32.3753 33.7908 32.8914Z" fill="#373331"/>
<path d="M37.8776 27.7923L37.4799 27.4229C37.4298 27.3769 37.3898 27.3209 37.3624 27.2586C37.3351 27.1962 37.3211 27.1288 37.3213 27.0607C37.3441 26.7111 37.4711 26.3764 37.6859 26.0996L38.4908 26.6488C38.4374 26.724 38.3899 26.8031 38.3487 26.8856C38.4055 26.9376 38.4694 27.0016 38.5452 27.0702L37.8776 27.7923Z" fill="#373331"/>
<path d="M43.3644 21.4408L42.4577 21.0715C42.4868 21.008 42.5045 20.9399 42.5098 20.8703C42.4857 20.6735 42.4169 20.4848 42.3086 20.3187L43.1727 19.8452C43.3592 20.153 43.4681 20.5015 43.4899 20.8608C43.4875 21.0606 43.4449 21.2579 43.3644 21.4408Z" fill="#373331"/>
<path d="M43.3502 33.8361L42.4577 33.4312C42.4867 33.3787 42.5044 33.3206 42.5098 33.2608C42.4896 33.1061 42.4363 32.9575 42.3535 32.8252L43.2223 32.373C43.3805 32.6436 43.4722 32.9479 43.4898 33.2608C43.4854 33.4604 43.4378 33.6567 43.3502 33.8361Z" fill="#373331"/>
<path d="M42.0984 56.5886C41.1514 54.7776 38.8954 53.1583 37.9697 52.5452L38.5095 51.7261C39.5014 52.3818 41.9161 54.1218 42.9672 56.134L42.0984 56.5886Z" fill="#373331"/>
<path d="M38.4903 51.4516L37.6807 50.8976C38.1541 50.2182 39.0229 49.4204 39.9533 48.5753C40.9949 47.6283 42.1786 46.5512 42.4579 45.8623L43.3646 46.2316C43.0024 47.1265 41.8401 48.1823 40.6114 49.3091C39.771 50.0691 38.8904 50.8668 38.4903 51.4516Z" fill="#373331"/>
<path d="M38.4576 14.1422L37.6006 13.6687C38.0741 12.8094 39.118 11.9595 40.1242 11.1404C40.8003 10.6234 41.4337 10.0526 42.018 9.43359L42.7566 10.0775C42.1377 10.7414 41.4646 11.3527 40.7444 11.9051C39.8093 12.6579 38.8434 13.4462 38.4576 14.1422Z" fill="#373331"/>
<path d="M43.3652 46.2312L42.4585 45.8619C42.4879 45.7977 42.5056 45.7288 42.5106 45.6583C42.4902 45.4775 42.4295 45.3036 42.333 45.1494L43.2018 44.6948C43.3731 44.9886 43.4721 45.3188 43.4906 45.6583C43.4868 45.8557 43.4442 46.0503 43.3652 46.2312Z" fill="#373331"/>
<path d="M37.9698 52.5451C37.7165 52.377 37.5579 52.2824 37.5531 52.28C37.4809 52.2359 37.4213 52.1739 37.3798 52.1002C37.3384 52.0264 37.3165 51.9432 37.3164 51.8586C37.3381 51.5088 37.4652 51.1737 37.681 50.8975L38.4906 51.4514C38.4488 51.5113 38.4108 51.5738 38.377 51.6384L38.5095 51.726L37.9698 52.5451Z" fill="#373331"/>
<path d="M37.8772 15.3852C37.6405 15.1627 37.489 15.0301 37.4866 15.0301C37.4352 14.9837 37.3941 14.9271 37.366 14.8639C37.3379 14.8007 37.3233 14.7323 37.3232 14.6631C37.3313 14.3121 37.4291 13.969 37.6073 13.6665L38.4643 14.14C38.4059 14.2428 38.3606 14.3526 38.3294 14.4667L38.5401 14.6608L37.8772 15.3852Z" fill="#373331"/>
<path d="M37.8777 40.1923L37.4729 39.8254C37.4214 39.7791 37.3803 39.7226 37.3521 39.6593C37.324 39.5961 37.3095 39.5277 37.3096 39.4585C37.3243 39.0966 37.4372 38.7455 37.6363 38.4429L38.479 38.9424C38.4152 39.0469 38.3628 39.158 38.3228 39.2738L38.5406 39.4727L37.8777 40.1923Z" fill="#373331"/>
<path d="M38.4903 26.6489L37.6807 26.0973C38.1541 25.4179 39.0229 24.6177 39.9533 23.7726C40.9949 22.8257 42.1786 21.7509 42.4579 21.062L43.3646 21.4408C43.0024 22.3356 41.8424 23.3915 40.6138 24.5183C39.771 25.2711 38.8904 26.0665 38.4903 26.6489Z" fill="#373331"/>
<path d="M38.4858 38.9423L37.6406 38.4428C38.1496 37.5858 39.222 36.6365 40.2589 35.718C41.2058 34.8729 42.1977 34.0017 42.4558 33.4312L43.3483 33.8336C43.005 34.5959 41.987 35.4907 40.9099 36.4519C39.9298 37.3207 38.9166 38.2179 38.4858 38.9423Z" fill="#373331"/>
<path d="M42.3089 20.3115C41.485 18.7775 38.7034 16.1521 37.8701 15.3851L38.533 14.6631C39.6385 15.681 42.2994 18.2259 43.1729 19.8475L42.3089 20.3115Z" fill="#373331"/>
<path d="M42.3534 32.8252C41.5864 31.3574 38.729 28.6019 37.8721 27.7922L38.5444 27.082C39.6807 28.1544 42.4079 30.8129 43.2222 32.3754L42.3534 32.8252Z" fill="#373331"/>
<path d="M42.3306 45.147C41.5399 43.6295 38.7275 40.971 37.8848 40.1921L38.5476 39.4819C39.6674 40.5141 42.359 43.0897 43.2018 44.7043L42.3306 45.147Z" fill="#373331"/>
<path d="M42.5783 33.9995C42.3226 33.7628 42.164 33.6326 42.1617 33.6326C42.1083 33.5864 42.0654 33.5294 42.036 33.4653C42.0066 33.4011 41.9913 33.3314 41.9912 33.2609C42.0215 32.9105 42.1624 32.5789 42.3937 32.314L43.1796 32.8987C43.1302 32.9656 43.0843 33.0352 43.0423 33.107L43.2317 33.2751L42.5783 33.9995Z" fill="#373331"/>
<path d="M48.0569 27.6075L47.1383 27.2666C47.1663 27.2013 47.1823 27.1316 47.1857 27.0606C47.1693 26.8939 47.1176 26.7325 47.0342 26.5872L47.9172 26.1587C48.0666 26.4361 48.1515 26.7436 48.1658 27.0583C48.1627 27.2464 48.1258 27.4324 48.0569 27.6075Z" fill="#373331"/>
<path d="M42.5807 46.4088C42.3203 46.1721 42.1593 46.0277 42.157 46.0253C42.1041 45.9801 42.0618 45.9238 42.0332 45.8603C42.0045 45.7969 41.9902 45.728 41.9913 45.6584C42.01 45.2931 42.1378 44.9418 42.3582 44.6499L43.1726 45.1944C43.1116 45.2844 43.0586 45.3794 43.0139 45.4785L43.2507 45.6844L42.5807 46.4088Z" fill="#373331"/>
<path d="M48.0968 52.2774L47.1499 51.9934C47.1649 51.9498 47.1736 51.9044 47.1759 51.8584C47.1602 51.6915 47.1085 51.53 47.0244 51.385L47.9074 50.9541C48.0565 51.2316 48.1414 51.539 48.156 51.8537C48.1586 51.9972 48.1386 52.1402 48.0968 52.2774Z" fill="#373331"/>
<path d="M48.0564 39.9959L47.1331 39.6716C47.1588 39.6033 47.1731 39.5314 47.1757 39.4585C47.1594 39.2649 47.1004 39.0774 47.0029 38.9093L47.8836 38.4761C48.0483 38.7784 48.1415 39.1145 48.1558 39.4585C48.1543 39.6421 48.1206 39.8239 48.0564 39.9959Z" fill="#373331"/>
<path d="M48.0427 15.2147L47.1384 14.8335C47.1647 14.7802 47.1808 14.7224 47.1857 14.6631C47.1599 14.4755 47.0928 14.296 46.9893 14.1375L47.8486 13.6641C48.0339 13.9638 48.1428 14.3044 48.1658 14.656C48.1631 14.8486 48.1212 15.0387 48.0427 15.2147Z" fill="#373331"/>
<path d="M42.5807 21.6113C42.3203 21.3746 42.1593 21.2325 42.1569 21.2301C42.1047 21.1844 42.0628 21.128 42.0342 21.0647C42.0056 21.0014 41.991 20.9327 41.9912 20.8632C42.0046 20.4959 42.1175 20.1392 42.3179 19.8311L43.163 20.3282C43.0962 20.4356 43.0429 20.5509 43.0044 20.6715L43.2412 20.8869L42.5807 21.6113Z" fill="#373331"/>
<path d="M43.8782 56.7139L43.168 56.0274C43.6414 55.5539 44.2191 55.0378 44.7778 54.5478C45.7981 53.6553 46.9557 52.6539 47.1451 52.0029L48.092 52.287C47.815 53.1961 46.6574 54.2116 45.4288 55.2864C44.889 55.767 44.3256 56.2404 43.8782 56.7139Z" fill="#373331"/>
<path d="M46.9889 14.1375C46.5154 13.2734 45.2773 11.8388 43.4971 10.113L44.1812 9.40283C45.4904 10.6812 47.1877 12.4591 47.8482 13.664L46.9889 14.1375Z" fill="#373331"/>
<path d="M43.1635 20.3281L42.3184 19.8309C42.8297 18.9645 43.8974 18.0294 44.9343 17.1251C45.8978 16.2847 46.8944 15.4135 47.1382 14.8335L48.0426 15.2146C47.7088 16.003 46.6742 16.9073 45.5782 17.8637C44.6028 18.7159 43.592 19.5989 43.1635 20.3281Z" fill="#373331"/>
<path d="M47.034 51.3896C46.2954 49.8698 43.438 47.1924 42.5811 46.4183L43.2415 45.6938C44.3826 46.7378 47.124 49.3395 47.917 50.9706L47.034 51.3896Z" fill="#373331"/>
<path d="M47.0131 38.9094C46.2414 37.3375 43.4242 34.7524 42.5791 33.9996L43.2325 33.2681C44.357 34.2718 47.0676 36.793 47.8938 38.4762L47.0131 38.9094Z" fill="#373331"/>
<path d="M43.1805 32.8914L42.3945 32.3066C42.8325 31.7148 43.6208 30.9904 44.4565 30.2258C45.581 29.1912 46.8569 28.0194 47.1387 27.2666L48.0572 27.6075C47.695 28.5828 46.3858 29.7854 45.1193 30.9478C44.3192 31.6817 43.5593 32.3753 43.1805 32.8914Z" fill="#373331"/>
<path d="M47.034 26.5898C46.2954 25.0724 43.438 22.3949 42.5811 21.6184L43.2415 20.894C44.3826 21.938 47.124 24.5397 47.917 26.1685L47.034 26.5898Z" fill="#373331"/>
<path d="M43.1728 45.1944L42.3584 44.6499C42.8319 43.9397 43.7125 43.1703 44.65 42.3512C45.6987 41.4327 46.8895 40.3911 47.1428 39.6714L48.066 39.9957C47.7299 40.9592 46.5462 41.9937 45.2939 43.0898C44.4488 43.8284 43.5728 44.5954 43.1728 45.1944Z" fill="#373331"/>
<path d="M47.2734 40.1923L46.8733 39.8254C46.8218 39.7791 46.7807 39.7226 46.7525 39.6593C46.7244 39.5961 46.7099 39.5277 46.71 39.4585C46.7247 39.0966 46.8376 38.7455 47.0367 38.4429L47.8794 38.9424C47.8156 39.0469 47.7632 39.158 47.7232 39.2738L47.9433 39.4727L47.2734 40.1923Z" fill="#373331"/>
<path d="M52.7535 21.4406L51.8445 21.0642C51.8736 21.0007 51.8912 20.9326 51.8965 20.8629C51.8724 20.6661 51.8036 20.4775 51.6953 20.3114L52.5594 19.8379C52.746 20.1457 52.8548 20.4942 52.8766 20.8535C52.876 21.0555 52.8341 21.2553 52.7535 21.4406Z" fill="#373331"/>
<path d="M52.7422 33.8337L51.8473 33.4312C51.8763 33.3787 51.894 33.3206 51.8994 33.2608C51.8792 33.1061 51.8259 32.9575 51.7432 32.8252L52.612 32.373C52.7702 32.6436 52.8619 32.9479 52.8795 33.2608C52.8748 33.4593 52.828 33.6546 52.7422 33.8337Z" fill="#373331"/>
<path d="M47.259 15.3852C47.0223 15.1627 46.8708 15.0301 46.8684 15.0301C46.8171 14.9837 46.776 14.9271 46.7478 14.8639C46.7197 14.8007 46.7051 14.7323 46.7051 14.6631C46.713 14.3118 46.8117 13.9685 46.9915 13.6665L47.8485 14.14C47.7883 14.2422 47.7421 14.3521 47.7112 14.4667L47.9219 14.6608L47.259 15.3852Z" fill="#373331"/>
<path d="M47.3585 52.5451C47.1052 52.377 46.9465 52.2824 46.9418 52.28C46.8696 52.2359 46.8099 52.1739 46.7685 52.1002C46.727 52.0264 46.7052 51.9432 46.7051 51.8586C46.7267 51.5088 46.8538 51.1737 47.0696 50.8975L47.8793 51.4514C47.8375 51.5113 47.7995 51.5738 47.7656 51.6384L47.8982 51.726L47.3585 52.5451Z" fill="#373331"/>
<path d="M52.7533 46.2312L51.8442 45.8619C51.8737 45.7977 51.8913 45.7288 51.8963 45.6583C51.8759 45.4775 51.8152 45.3036 51.7188 45.1494L52.5876 44.6948C52.7588 44.9886 52.8578 45.3188 52.8764 45.6583C52.8733 45.8555 52.8315 46.0502 52.7533 46.2312Z" fill="#373331"/>
<path d="M47.875 38.9423L47.0322 38.4428C47.5436 37.5858 48.6136 36.6365 49.6505 35.718C50.5974 34.8729 51.5893 34.0017 51.8474 33.4312L52.7399 33.8336C52.3966 34.5959 51.3786 35.4907 50.3015 36.4519C49.3214 37.3207 48.3058 38.2179 47.875 38.9423Z" fill="#373331"/>
<path d="M47.2617 27.7923L46.8735 27.4229C46.8233 27.3769 46.7833 27.3209 46.756 27.2586C46.7287 27.1962 46.7147 27.1288 46.7148 27.0607C46.7377 26.7111 46.8646 26.3764 47.0794 26.0996L47.8796 26.6488C47.8262 26.724 47.7787 26.8031 47.7375 26.8856L47.934 27.0702L47.2617 27.7923Z" fill="#373331"/>
<path d="M51.7217 45.147C50.9286 43.6295 48.1162 40.971 47.2734 40.1921L47.9387 39.4819C49.056 40.5141 51.7477 43.0897 52.5905 44.7043L51.7217 45.147Z" fill="#373331"/>
<path d="M47.879 51.4516L47.0693 50.8976C47.5428 50.2182 48.4116 49.4204 49.342 48.5729C50.3836 47.626 51.5673 46.5512 51.8466 45.8623L52.7533 46.2316C52.3911 47.1265 51.2311 48.1823 50.0025 49.3091C49.155 50.0691 48.279 50.8645 47.879 51.4516Z" fill="#373331"/>
<path d="M47.879 26.6489L47.0693 26.0973C47.5428 25.4179 48.4116 24.6177 49.342 23.7726C50.386 22.8257 51.5673 21.7509 51.8466 21.062L52.7533 21.4408C52.3911 22.3356 51.2311 23.3915 50.0025 24.5183C49.155 25.2711 48.279 26.0665 47.879 26.6489Z" fill="#373331"/>
<path d="M51.7431 32.8252C50.9784 31.3574 48.1187 28.6019 47.2617 27.7922L47.934 27.082C49.0704 28.1544 51.7975 30.8129 52.6119 32.3754L51.7431 32.8252Z" fill="#373331"/>
<path d="M47.8482 14.1422L46.9912 13.6687C47.4647 12.8094 48.5063 11.9595 49.5124 11.1404C50.1886 10.6234 50.8219 10.0526 51.4063 9.43359L52.1449 10.0775C51.526 10.7414 50.8529 11.3527 50.1327 11.9051C49.1976 12.6579 48.2317 13.4462 47.8482 14.1422Z" fill="#373331"/>
<path d="M51.4894 56.5886C50.5425 54.7776 48.2864 53.1583 47.3584 52.5452L47.8981 51.7261C48.8901 52.3818 51.3047 54.1218 52.3582 56.134L51.4894 56.5886Z" fill="#373331"/>
<path d="M51.6975 20.3115C50.8737 18.7775 48.0921 16.1521 47.2588 15.3851L47.9216 14.6631C49.0272 15.681 51.6881 18.2259 52.5616 19.8475L51.6975 20.3115Z" fill="#373331"/>
<path d="M56.4227 26.5898C55.6841 25.0724 52.8267 22.3949 51.9697 21.6184L52.6302 20.894C53.7713 21.938 56.5126 24.5397 57.3057 26.1685L56.4227 26.5898Z" fill="#373331"/>
<path d="M51.9703 21.6113C51.7099 21.3746 51.5489 21.2325 51.5466 21.2301C51.4943 21.1844 51.4525 21.128 51.4239 21.0647C51.3953 21.0014 51.3806 20.9327 51.3809 20.8632C51.3946 20.496 51.5075 20.1393 51.7076 19.8311L52.5551 20.3282C52.4882 20.4356 52.4349 20.5509 52.3964 20.6715L52.6332 20.8869L51.9703 21.6113Z" fill="#373331"/>
<path d="M52.5715 32.8914L51.7832 32.3066C52.2212 31.7148 53.0118 30.9904 53.8451 30.2258C54.972 29.1912 56.2456 28.0194 56.5273 27.2666L57.4459 27.6075C57.0837 28.5828 55.7745 29.7854 54.508 30.9478C53.7102 31.6817 52.955 32.3753 52.5715 32.8914Z" fill="#373331"/>
<path d="M51.968 33.9995C51.7123 33.7628 51.5537 33.6326 51.5513 33.6326C51.4979 33.5864 51.4551 33.5294 51.4257 33.4653C51.3963 33.4011 51.381 33.3314 51.3809 33.2609C51.4111 32.9105 51.5521 32.5789 51.7833 32.314L52.5716 32.8987C52.5207 32.9651 52.4741 33.0347 52.432 33.107L52.6213 33.2751L51.968 33.9995Z" fill="#373331"/>
<path d="M57.4572 39.9957L56.5316 39.669C56.5572 39.6008 56.5716 39.5288 56.5742 39.456C56.5578 39.2624 56.4988 39.0748 56.4014 38.9067L57.2891 38.4854C57.4539 38.7877 57.547 39.1238 57.5614 39.4678C57.5562 39.6483 57.521 39.8267 57.4572 39.9957Z" fill="#373331"/>
<path d="M56.3776 14.1375C55.9041 13.2734 54.666 11.8388 52.8857 10.113L53.5723 9.40283C54.879 10.6812 56.5764 12.4591 57.2393 13.664L56.3776 14.1375Z" fill="#373331"/>
<path d="M52.5551 20.3281L51.71 19.8309C52.2213 18.9645 53.2913 18.0294 54.3259 17.1251C55.2894 16.2847 56.286 15.4135 56.5322 14.8335L57.4342 15.2146C57.1004 16.003 56.0659 16.9073 54.9698 17.8637C53.9921 18.7159 52.9812 19.5989 52.5551 20.3281Z" fill="#373331"/>
<path d="M56.4227 51.3896C55.6841 49.8698 52.8267 47.1924 51.9697 46.4183L52.6302 45.6938C53.7713 46.7378 56.5126 49.3395 57.3057 50.9706L56.4227 51.3896Z" fill="#373331"/>
<path d="M51.9704 46.4088C51.71 46.1721 51.549 46.0277 51.5466 46.0253C51.4937 45.9801 51.4515 45.9238 51.4228 45.8603C51.3942 45.7969 51.3799 45.728 51.3809 45.6584C51.4007 45.2933 51.5284 44.9423 51.7478 44.6499L52.5622 45.1944C52.501 45.2837 52.4486 45.3789 52.406 45.4785L52.6309 45.6844L51.9704 46.4088Z" fill="#373331"/>
<path d="M52.5546 45.1944L51.7402 44.6499C52.2137 43.9397 53.0967 43.1703 54.0318 42.3512C55.0829 41.4327 56.2713 40.3911 56.5246 39.6714L57.4502 39.9957C57.1117 40.9592 55.9304 41.9937 54.6781 43.0874C53.8377 43.8284 52.9618 44.5954 52.5546 45.1944Z" fill="#373331"/>
<path d="M57.4314 15.2147L56.5294 14.8335C56.5544 14.7798 56.5696 14.7221 56.5744 14.6631C56.5486 14.4755 56.4815 14.296 56.3779 14.1375L57.2396 13.6641C57.4243 13.9639 57.5325 14.3045 57.5545 14.656C57.5518 14.8486 57.5099 15.0387 57.4314 15.2147Z" fill="#373331"/>
<path d="M56.4018 38.9094C55.63 37.3375 52.8129 34.7524 51.9678 33.9996L52.6212 33.2681C53.7456 34.2718 56.4562 36.793 57.2824 38.4762L56.4018 38.9094Z" fill="#373331"/>
<path d="M57.4855 52.2774L56.5386 51.9934C56.5535 51.9498 56.5623 51.9044 56.5646 51.8584C56.5489 51.6915 56.4972 51.53 56.4131 51.385L57.2961 50.9541C57.4452 51.2316 57.5301 51.539 57.5447 51.8537C57.5472 51.9972 57.5273 52.1402 57.4855 52.2774Z" fill="#373331"/>
<path d="M57.4455 27.6075L56.527 27.2666C56.555 27.2013 56.571 27.1316 56.5744 27.0606C56.5579 26.8939 56.5063 26.7325 56.4229 26.5872L57.3059 26.1587C57.4552 26.4361 57.5402 26.7436 57.5544 27.0583C57.5514 27.2464 57.5145 27.4324 57.4455 27.6075Z" fill="#373331"/>
<path d="M53.2649 56.7139L52.5547 56.0274C53.0282 55.5539 53.6058 55.0378 54.1668 54.5478C55.1872 53.6553 56.3424 52.6539 56.5342 52.0029L57.4811 52.287C57.2065 53.1961 56.0465 54.2116 54.8179 55.2864C54.2781 55.767 53.7147 56.2404 53.2649 56.7139Z" fill="#373331"/>
<path d="M62.1308 33.8337L61.236 33.4312C61.265 33.3787 61.2827 33.3206 61.2881 33.2608C61.2679 33.1061 61.2146 32.9575 61.1318 32.8252L62.0006 32.373C62.1588 32.6436 62.2505 32.9479 62.2682 33.2608C62.2635 33.4593 62.2167 33.6546 62.1308 33.8337Z" fill="#373331"/>
<path d="M62.1425 46.2312L61.2358 45.8619C61.2665 45.7982 61.2842 45.729 61.2879 45.6583C61.267 45.4769 61.2064 45.3023 61.1104 45.147L61.9792 44.6948C62.1476 44.9893 62.2441 45.3195 62.2609 45.6583C62.2595 45.8552 62.2193 46.0499 62.1425 46.2312Z" fill="#373331"/>
<path d="M62.1427 21.4408L61.2361 21.0715C61.2664 21.0085 61.2841 20.9401 61.2881 20.8703C61.264 20.6735 61.1952 20.4848 61.0869 20.3187L61.951 19.8452C62.1354 20.1543 62.2419 20.5037 62.2611 20.8632C62.2607 21.0617 62.2204 21.2581 62.1427 21.4408Z" fill="#373331"/>
<path d="M61.1317 32.8252C60.3671 31.3574 57.5074 28.6019 56.6504 27.7922L57.3227 27.082C58.459 28.1544 61.1886 30.8129 62.0006 32.3754L61.1317 32.8252Z" fill="#373331"/>
<path d="M56.6619 40.1947C56.411 39.958 56.2595 39.8254 56.2571 39.8254C56.2056 39.7791 56.1645 39.7226 56.1363 39.6593C56.1082 39.5961 56.0937 39.5277 56.0938 39.4585C56.1085 39.0966 56.2214 38.7455 56.4204 38.4429L57.2632 38.9424C57.1993 39.0469 57.147 39.158 57.107 39.2738L57.3271 39.4727L56.6619 40.1947Z" fill="#373331"/>
<path d="M56.6501 27.7923L56.2524 27.4229C56.2022 27.3769 56.1622 27.3209 56.1349 27.2586C56.1076 27.1962 56.0936 27.1288 56.0938 27.0607C56.1177 26.711 56.2454 26.3763 56.4607 26.0996L57.2703 26.6488C57.2155 26.7235 57.1672 26.8027 57.1259 26.8856L57.3224 27.0702L56.6501 27.7923Z" fill="#373331"/>
<path d="M56.7477 52.5451C56.4944 52.377 56.3382 52.2824 56.3334 52.28C56.2609 52.2362 56.201 52.1744 56.1595 52.1005C56.118 52.0267 56.0964 51.9433 56.0967 51.8586C56.1183 51.5083 56.2463 51.173 56.4636 50.8975L57.2732 51.4514C57.2308 51.5113 57.1921 51.5738 57.1572 51.6384L57.2922 51.726L56.7477 52.5451Z" fill="#373331"/>
<path d="M56.6477 15.3852C56.411 15.1627 56.2595 15.0301 56.2571 15.0301C56.2057 14.9837 56.1647 14.9271 56.1365 14.8639C56.1084 14.8007 56.0938 14.7323 56.0938 14.6631C56.1028 14.312 56.2014 13.9689 56.3802 13.6665L57.2372 14.14C57.177 14.2422 57.1308 14.3521 57.0999 14.4667L57.3106 14.6608L56.6477 15.3852Z" fill="#373331"/>
<path d="M61.0774 20.3115C60.2536 18.7799 57.472 16.1521 56.6387 15.3851L57.3015 14.6631C58.4071 15.6834 61.0703 18.2259 61.9415 19.8475L61.0774 20.3115Z" fill="#373331"/>
<path d="M57.2706 26.6489L56.4609 26.0973C56.9344 25.4179 57.8032 24.6177 58.7312 23.7726C59.7752 22.8257 60.9565 21.7509 61.2358 21.062L62.1425 21.4408C61.7803 22.3356 60.6203 23.3915 59.3917 24.5183C58.5442 25.2711 57.6683 26.0665 57.2706 26.6489Z" fill="#373331"/>
<path d="M57.2378 14.1422L56.3809 13.6687C56.8543 12.8094 57.8959 11.9595 58.9021 11.1404C59.5788 10.624 60.2121 10.0531 60.7959 9.43359L61.5345 10.0775C60.9162 10.742 60.2431 11.3533 59.5223 11.9051C58.5872 12.6579 57.6237 13.4462 57.2378 14.1422Z" fill="#373331"/>
<path d="M60.8781 56.5886C59.9311 54.7776 57.6751 53.1583 56.7471 52.5452L57.2892 51.7261C58.2787 52.3818 60.6934 54.1218 61.7469 56.134L60.8781 56.5886Z" fill="#373331"/>
<path d="M57.2706 51.4516L56.4609 50.8976C56.9344 50.2182 57.8008 49.4204 58.7312 48.5753C59.7728 47.6283 60.9565 46.5512 61.2358 45.8623L62.1425 46.2316C61.7803 47.1265 60.6203 48.1823 59.3917 49.3091C58.5442 50.0691 57.6683 50.8668 57.2706 51.4516Z" fill="#373331"/>
<path d="M61.1103 45.1493C60.3173 43.6295 57.5049 40.971 56.6621 40.1921L57.3273 39.4819C58.4447 40.5141 61.1364 43.0897 61.9791 44.7043L61.1103 45.1493Z" fill="#373331"/>
<path d="M57.2637 38.9423L56.4209 38.4428C56.9322 37.5858 58.0023 36.6365 59.0392 35.718C59.9861 34.8729 60.978 34.0017 61.2361 33.4312L62.1309 33.8336C61.7853 34.5959 60.7673 35.4907 59.6902 36.4519C58.7101 37.3207 57.6945 38.2179 57.2637 38.9423Z" fill="#373331"/>
<path d="M66.759 40.2114L65.8737 39.7947C65.9277 39.6904 65.9591 39.5759 65.966 39.4586C65.9326 39.1809 65.8328 38.9153 65.6748 38.6844L66.5247 38.1968C66.7715 38.5742 66.9174 39.0087 66.9484 39.4586C66.943 39.7206 66.8783 39.978 66.759 40.2114Z" fill="#373331"/>
<path d="M62.6565 56.7141L61.9463 56.0276C62.4198 55.5541 62.9998 55.038 63.5584 54.548C64.5243 53.7029 65.5257 52.8269 65.8571 52.1807L66.7283 52.6281C66.3116 53.4425 65.289 54.3397 64.2047 55.289C63.6673 55.7672 63.1039 56.2406 62.6565 56.7141Z" fill="#373331"/>
<path d="M66.7586 27.8111L65.878 27.385C65.9334 27.2852 65.9665 27.1745 65.975 27.0607C65.9346 26.7816 65.8265 26.5166 65.6602 26.2889L66.5006 25.7847C66.7619 26.1627 66.9195 26.6027 66.9575 27.0607C66.9493 27.3227 66.8813 27.5794 66.7586 27.8111Z" fill="#373331"/>
<path d="M66.7374 52.6137L65.8662 52.1686C65.9221 52.0741 65.9553 51.968 65.9633 51.8585C65.9229 51.5794 65.8148 51.3145 65.6484 51.0868L66.4888 50.5825C66.7502 50.9605 66.9077 51.4005 66.9457 51.8585C66.9382 52.1234 66.8667 52.3824 66.7374 52.6137Z" fill="#373331"/>
<path d="M61.359 21.6113C61.0986 21.3746 60.9376 21.2325 60.9352 21.2301C60.8834 21.184 60.8419 21.1275 60.8134 21.0643C60.7848 21.0011 60.7699 20.9326 60.7695 20.8632C60.7833 20.496 60.8962 20.1393 61.0962 19.8311L61.9414 20.3282C61.8745 20.4356 61.8212 20.5509 61.7827 20.6715L62.0195 20.8869L61.359 21.6113Z" fill="#373331"/>
<path d="M61.3566 33.9995C61.101 33.7628 60.9423 33.6326 60.94 33.6326C60.8866 33.5864 60.8438 33.5294 60.8144 33.4653C60.7849 33.4011 60.7697 33.3314 60.7695 33.2609C60.7998 32.9105 60.9407 32.5789 61.172 32.314L61.9603 32.8987C61.9094 32.9651 61.8627 33.0347 61.8206 33.107L62.01 33.2751L61.3566 33.9995Z" fill="#373331"/>
<path d="M66.7189 15.4231L65.862 14.9497C65.9181 14.8645 65.953 14.7671 65.9638 14.6656C65.9254 14.4202 65.8279 14.1879 65.6797 13.9885L66.5225 13.4819C66.7681 13.8311 66.9153 14.24 66.9486 14.6656C66.9376 14.9335 66.8586 15.1942 66.7189 15.4231Z" fill="#373331"/>
<path d="M61.359 46.4088C61.0986 46.1721 60.9376 46.0277 60.9352 46.0253C60.8832 45.9794 60.8415 45.9229 60.813 45.8597C60.7844 45.7964 60.7696 45.7278 60.7695 45.6584C60.7893 45.2933 60.917 44.9423 61.1365 44.6499L61.9508 45.1944C61.8896 45.2837 61.8373 45.3789 61.7946 45.4785L62.0313 45.6844L61.359 46.4088Z" fill="#373331"/>
<path d="M65.6796 13.9861C65.0097 12.8664 63.4591 11.2542 62.2754 10.1013L62.9619 9.39111C64.1858 10.5748 65.8027 12.2651 66.5129 13.4748L65.6796 13.9861Z" fill="#373331"/>
<path d="M65.648 26.289C64.7342 24.7691 62.3337 22.5012 61.3584 21.6111L62.0236 20.8867C63.0416 21.8171 65.5131 24.1536 66.4931 25.7847L65.648 26.289Z" fill="#373331"/>
<path d="M61.9602 32.8916L61.1719 32.3069C61.6122 31.715 62.4005 30.9906 63.2362 30.2236C64.2944 29.2506 65.497 28.1475 65.8663 27.3828L66.7469 27.8089C66.2972 28.7417 65.078 29.8614 63.9061 30.9433C63.0989 31.6819 62.3437 32.3755 61.9602 32.8916Z" fill="#373331"/>
<path d="M65.6721 38.6845C64.7796 37.1363 62.3578 34.8968 61.3564 33.9996L62.0098 33.2681C63.0444 34.1913 65.5608 36.5231 66.522 38.1968L65.6721 38.6845Z" fill="#373331"/>
<path d="M61.9408 20.3282L61.0957 19.8311C61.607 18.9646 62.6771 18.0295 63.7116 17.1252C64.6088 16.3416 65.5368 15.5296 65.8611 14.9473L66.7181 15.4207C66.3109 16.1522 65.3616 16.9832 64.3508 17.8615C63.3399 18.7397 62.3693 19.5991 61.9408 20.3282Z" fill="#373331"/>
<path d="M61.9511 45.1943L61.1367 44.6498C61.6102 43.9396 62.4932 43.1702 63.4283 42.3512C64.4628 41.4468 65.5329 40.5117 65.8714 39.7944L66.7568 40.2111C66.333 41.113 65.1849 42.1168 64.0746 43.0874C63.2271 43.8284 62.3512 44.5954 61.9511 45.1943Z" fill="#373331"/>
<path d="M65.648 51.0868C64.7342 49.567 62.3337 47.2991 61.3584 46.409L62.0189 45.6846C63.0368 46.6149 65.506 48.9515 66.4884 50.5826L65.648 51.0868Z" fill="#373331"/>
<path d="M5.62266 32.8038L4.79883 32.2735C5.32201 31.4497 6.39204 30.4365 7.41236 29.4895C8.34272 28.6136 9.30623 27.7093 9.57847 27.1885L10.4425 27.6477C10.0922 28.3106 9.16182 29.1865 8.07521 30.2021C7.10224 31.1206 6.08192 32.0794 5.62266 32.8038Z" fill="#373331"/>
<path d="M6.23065 56.6809L5.4873 56.0418C6.21324 55.2393 6.97967 54.4745 7.78362 53.7502C8.5743 53.0116 9.39103 52.2493 9.60646 51.8682L10.4587 52.3416C10.1699 52.853 9.41234 53.5608 8.45357 54.458C7.6751 55.1605 6.93315 55.9025 6.23065 56.6809Z" fill="#373331"/>
<path d="M9.45496 26.6844C8.65717 25.3161 5.87082 22.4918 5.03516 21.6585L5.72642 20.9673C6.82486 22.061 9.46917 24.755 10.3025 26.1896L9.45496 26.6844Z" fill="#373331"/>
<path d="M5.65308 20.3162L4.83398 19.7835C5.36663 18.9715 6.39879 18.0222 7.3978 17.1037C8.34474 16.2349 9.31771 15.3377 9.58048 14.8003L10.4611 15.2311C10.1155 15.9413 9.16383 16.8102 8.06066 17.8352C7.10189 18.6969 6.11944 19.606 5.65308 20.3162Z" fill="#373331"/>
<path d="M10.4591 52.3484L9.6305 51.8749L9.60682 51.8607V51.8418C9.55741 51.7313 9.49881 51.6252 9.43164 51.5246L10.2602 50.999C10.4506 51.246 10.5686 51.5411 10.6011 51.8513C10.5998 52.0268 10.5507 52.1987 10.4591 52.3484Z" fill="#373331"/>
<path d="M9.44535 38.9591C8.64756 37.4677 5.86357 34.8068 5.03027 34.0256L5.69786 33.3154C6.8034 34.3405 9.46902 36.9138 10.3094 38.4857L9.44535 38.9591Z" fill="#373331"/>
<path d="M5.0349 21.6586L4.58274 21.2041C4.53586 21.1585 4.49853 21.1041 4.47293 21.0439C4.44732 20.9838 4.43395 20.9191 4.43359 20.8537C4.46131 20.466 4.60022 20.0945 4.83367 19.7837L5.65277 20.3234C5.56972 20.4384 5.49984 20.5622 5.44444 20.6927L5.72616 20.9674L5.0349 21.6586Z" fill="#373331"/>
<path d="M9.4196 14.192C8.92957 13.3563 7.67488 11.9028 5.88281 10.0942L6.57881 9.40527C7.88557 10.7239 9.58532 12.5373 10.2647 13.6949L9.4196 14.192Z" fill="#373331"/>
<path d="M9.44085 51.532C8.60755 50.2205 5.83777 47.3087 5.00684 46.4494L5.71704 45.7676C6.79891 46.8944 9.41244 49.6571 10.2718 51.0065L9.44085 51.532Z" fill="#373331"/>
<path d="M5.62964 45.1615L4.81055 44.6241C5.30769 43.8689 6.28539 42.9883 7.23233 42.1384C8.17926 41.2886 9.32505 40.2588 9.58309 39.6338L10.4874 40.0078C10.1465 40.8388 9.04807 41.8236 7.88334 42.8676C6.98849 43.6772 6.05576 44.5129 5.62964 45.1615Z" fill="#373331"/>
<path d="M10.4869 40.0075L9.58262 39.6335C9.60896 39.5785 9.62501 39.5191 9.62996 39.4583C9.60501 39.2805 9.54203 39.1101 9.44531 38.9588L10.3094 38.4854C10.4853 38.7778 10.5884 39.1082 10.61 39.4489C10.6073 39.6415 10.5654 39.8316 10.4869 40.0075Z" fill="#373331"/>
<path d="M5.00649 46.4492L4.57563 46.0018C4.4855 45.9102 4.43456 45.7871 4.43359 45.6585C4.45552 45.2844 4.58636 44.9248 4.81 44.624L5.6291 45.1614C5.55701 45.2662 5.49742 45.379 5.45155 45.4976L5.71432 45.7674L5.00649 46.4492Z" fill="#373331"/>
<path d="M10.4423 27.6359L9.57581 27.179C9.59947 27.1389 9.61777 27.096 9.63026 27.0512C9.58792 26.9211 9.52904 26.797 9.45508 26.6819L10.3026 26.1895C10.4781 26.4487 10.5841 26.7487 10.6103 27.0606C10.603 27.2634 10.5453 27.4611 10.4423 27.6359Z" fill="#373331"/>
<path d="M5.02781 34.023C4.76267 33.7744 4.59696 33.6253 4.59696 33.6229C4.54512 33.578 4.50366 33.5223 4.47545 33.4598C4.44725 33.3973 4.43297 33.3293 4.43361 33.2607C4.45826 32.9 4.58467 32.5536 4.79818 32.2617L5.62201 32.8038C5.56 32.8977 5.50615 32.9967 5.46104 33.0998L5.69777 33.3199L5.02781 34.023Z" fill="#373331"/>
<path d="M10.4615 15.2263L9.5809 14.7955C9.60369 14.753 9.62042 14.7076 9.63061 14.6605C9.59239 14.4903 9.52078 14.3294 9.41992 14.1871L10.2651 13.6899C10.4631 13.9768 10.5823 14.3107 10.6107 14.6582C10.6052 14.8565 10.5542 15.0509 10.4615 15.2263Z" fill="#373331"/>
<path d="M5.85424 21.441L4.90731 21.1853C4.93692 21.0805 4.95284 20.9723 4.95466 20.8634C4.95066 20.6522 4.898 20.4448 4.80078 20.2573L5.68143 19.8359C5.84148 20.1551 5.92727 20.5063 5.93237 20.8634C5.93218 21.0585 5.90591 21.2528 5.85424 21.441Z" fill="#373331"/>
<path d="M4.80071 20.2572C4.36275 19.3434 3.07729 18.4864 2.16113 17.9206L2.67248 17.085C3.78749 17.7691 5.1416 18.6995 5.68135 19.8358L4.80071 20.2572Z" fill="#373331"/>
<path d="M2.67248 24.6391L2.16113 23.8082C3.20986 23.1667 4.63736 22.1961 4.90724 21.1899L5.85417 21.4456C5.4967 22.769 3.96504 23.8485 2.67248 24.6391Z" fill="#373331"/>
<path d="M5.82622 33.8312L4.90296 33.4998C4.93328 33.4243 4.95088 33.3443 4.95504 33.2631C4.93848 33.0858 4.87918 32.9152 4.78223 32.7659L5.64157 32.2925C5.8199 32.586 5.9209 32.9199 5.93512 33.2631C5.93193 33.4573 5.89508 33.6496 5.82622 33.8312Z" fill="#373331"/>
<path d="M4.78177 32.7638C4.36749 32.0157 3.29035 31.0096 2.16113 30.3183L2.67248 29.4897C3.73541 30.1408 5.06585 31.2629 5.63874 32.2974L4.78177 32.7638Z" fill="#373331"/>
<path d="M2.67248 37.0368L2.16113 36.2011C3.45606 35.4081 4.63499 34.2481 4.9025 33.5L5.82576 33.8314C5.42095 34.9559 3.90822 36.2816 2.67248 37.0368Z" fill="#373331"/>
<path d="M2.67248 12.241L2.16113 11.4053L2.53044 11.1828C3.36374 10.6809 4.22545 10.1625 4.66103 9.48779L5.4896 10.011C4.93801 10.8822 3.97451 11.4621 3.04178 12.0232L2.67248 12.241Z" fill="#373331"/>
<path d="M5.824 46.2691L4.89837 45.9495C4.93289 45.8562 4.95207 45.7578 4.95519 45.6583C4.94283 45.4691 4.88518 45.2856 4.78711 45.1233L5.65355 44.6641C5.82763 44.9673 5.92438 45.3088 5.93526 45.6583C5.93203 45.8667 5.89443 46.073 5.824 46.2691Z" fill="#373331"/>
<path d="M2.67248 49.4368L2.16113 48.6011C3.54129 47.756 4.6421 46.6883 4.89777 45.9497L5.82339 46.2669C5.42568 47.4269 3.93426 48.665 2.67248 49.4368Z" fill="#373331"/>
<path d="M4.7865 45.1139C4.40536 44.4037 3.3661 43.4568 2.16113 42.7087L2.67248 41.873C3.19329 42.1926 4.95458 43.3361 5.65295 44.6547L4.7865 45.1139Z" fill="#373331"/>
<path d="M4.40063 56.6903C3.94847 56.1884 3.28561 55.7931 2.58252 55.3717L2.16113 55.1184L2.67248 54.2827L3.07729 54.5313C3.81116 54.9692 4.57108 55.4238 5.12266 56.0322L4.40063 56.6903Z" fill="#373331"/>
<path d="M70.6793 10.4182L69.9336 9.77905C70.0127 9.68845 70.0847 9.5919 70.149 9.49023L70.9799 10.0087C70.89 10.1525 70.7895 10.2894 70.6793 10.4182Z" fill="#373331"/>
<path d="M69.9336 19.5468C68.9109 18.3631 66.8087 16.3485 65.9541 15.5413L66.6264 14.8311C67.7036 15.8443 69.6613 17.7239 70.6793 18.9123L69.9336 19.5468Z" fill="#373331"/>
<path d="M65.9538 15.5412C65.6153 15.2216 65.3999 15.0252 65.3999 15.0228C65.3492 14.9777 65.3088 14.9222 65.2814 14.8601C65.2541 14.798 65.2404 14.7308 65.2413 14.6629C65.261 14.2149 65.4274 13.7858 65.7147 13.4414L66.5007 14.0261C66.3971 14.1617 66.3171 14.3138 66.2639 14.4759L66.6403 14.8287L65.9538 15.5412Z" fill="#373331"/>
<path d="M66.494 14.0263L65.708 13.4416C66.2051 12.7716 67.0337 12.1537 67.912 11.498C68.6648 10.9369 69.4413 10.3546 69.9337 9.7793L70.6794 10.4185C70.116 11.0766 69.2945 11.6897 68.4991 12.2839C67.7037 12.8781 66.9059 13.4723 66.494 14.0263Z" fill="#373331"/>
<path d="M65.9775 40.3603C65.6248 40.0265 65.3999 39.8206 65.3999 39.8182C65.3492 39.7731 65.3088 39.7176 65.2814 39.6555C65.2541 39.5934 65.2404 39.5262 65.2413 39.4584C65.2533 38.9883 65.4123 38.5338 65.6958 38.1587L66.4959 38.7221C66.376 38.884 66.2898 39.0684 66.2426 39.2642L66.6498 39.6477L65.9775 40.3603Z" fill="#373331"/>
<path d="M66.4955 38.7223L65.6953 38.1588C66.2067 37.4344 67.0991 36.8024 67.9656 36.1892C68.6971 35.6708 69.4546 35.1334 69.9328 34.5747L70.6785 35.2139C70.1199 35.8649 69.3126 36.4354 68.5314 36.9894C67.7502 37.5433 66.9098 38.1375 66.4955 38.7223Z" fill="#373331"/>
<path d="M69.9333 44.3448C68.9509 43.1967 67.0334 41.3549 65.9775 40.3606L66.6499 39.6504C67.7199 40.6589 69.6658 42.5267 70.6743 43.708L69.9333 44.3448Z" fill="#373331"/>
<path d="M66.4769 26.3077L65.6602 25.7656C66.1691 24.9939 67.0948 24.3452 67.9896 23.7416C68.7117 23.2444 69.4621 22.7283 69.9332 22.1768L70.6789 22.8136C70.1226 23.4622 69.3201 24.0162 68.5483 24.5488C67.7268 25.1122 66.8817 25.7017 66.4769 26.3077Z" fill="#373331"/>
<path d="M65.9704 27.9554C65.6224 27.6263 65.3999 27.4204 65.3999 27.4204C65.3492 27.3753 65.3088 27.3198 65.2814 27.2577C65.2541 27.1956 65.2404 27.1284 65.2413 27.0606C65.2492 26.5969 65.3951 26.1461 65.6603 25.7656L66.477 26.3077C66.361 26.4751 66.2804 26.6644 66.2403 26.8641C66.3397 26.9564 66.477 27.0842 66.6427 27.2428L65.9704 27.9554Z" fill="#373331"/>
<path d="M69.9336 31.9448C68.9512 30.7966 67.0289 28.9525 65.9707 27.9558L66.643 27.2456C67.7154 28.2541 69.6661 30.1266 70.6793 31.3103L69.9336 31.9448Z" fill="#373331"/>
<path d="M69.8814 56.6833C68.8895 55.5304 66.9956 53.7217 65.9658 52.7488L66.6381 52.0386C67.6821 53.0234 69.5902 54.8533 70.6224 56.0441L69.8814 56.6833Z" fill="#373331"/>
<path d="M65.9657 52.7485C65.62 52.4218 65.3999 52.2206 65.3999 52.2182C65.3492 52.1731 65.3088 52.1177 65.2814 52.0556C65.2541 51.9935 65.2404 51.9262 65.2413 51.8584C65.2492 51.3947 65.3951 50.9439 65.6603 50.5635L66.477 51.1056C66.361 51.273 66.2804 51.4623 66.2403 51.6619C66.3373 51.7542 66.477 51.8797 66.638 52.036L65.9657 52.7485Z" fill="#373331"/>
<path d="M66.4769 51.1059L65.6602 50.559C66.1691 49.7873 67.0948 49.1505 67.9872 48.5349C68.7116 48.0354 69.4621 47.5194 69.9332 46.9678L70.6789 47.6046C70.1226 48.2532 69.3201 48.8072 68.5483 49.3398C67.7268 49.9104 66.8817 50.4927 66.4769 51.1059Z" fill="#373331"/>
<path d="M69.9335 56.7426L69.8838 56.6858L70.62 56.0371L70.6792 56.1081L69.9335 56.7426Z" fill="#373331"/>
<path d="M71.51 10.2409H0.490037C0.360071 10.2409 0.235429 10.1892 0.143529 10.0973C0.0516288 10.0054 0 9.8808 0 9.75084L0 7.49004C0 7.36007 0.0516288 7.23543 0.143529 7.14353C0.235429 7.05163 0.360071 7 0.490037 7H71.51C71.6399 7 71.7646 7.05163 71.8565 7.14353C71.9484 7.23543 72 7.36007 72 7.49004V9.75084C72 9.8808 71.9484 10.0054 71.8565 10.0973C71.7646 10.1892 71.6399 10.2409 71.51 10.2409ZM0.980075 9.2608H71.0199V7.98007H0.980075V9.2608Z" fill="#373331"/>
<path d="M71.51 59.112H0.490037C0.360071 59.112 0.235429 59.0603 0.143529 58.9684C0.0516288 58.8765 0 58.7519 0 58.6219L0 56.3611C0 56.2312 0.0516288 56.1065 0.143529 56.0146C0.235429 55.9227 0.360071 55.8711 0.490037 55.8711H71.51C71.6399 55.8711 71.7646 55.9227 71.8565 56.0146C71.9484 56.1065 72 56.2312 72 56.3611V58.6219C72 58.7519 71.9484 58.8765 71.8565 58.9684C71.7646 59.0603 71.6399 59.112 71.51 59.112ZM0.980075 58.1343H71.0199V56.8535H0.980075V58.1343Z" fill="#373331"/>
</svg>
