<svg width="72" height="72" viewBox="0 0 72 72" fill="none" xmlns="http://www.w3.org/2000/svg">
<path d="M68.6736 66.6753H3.37793V67.6554H68.6736V66.6753Z" fill="#373331"/>
<path d="M3.36871 69.9422H0.490037C0.360481 69.9422 0.236195 69.8909 0.144363 69.7995C0.0525308 69.7081 0.000625879 69.5841 0 69.4545L0 5.94851H0.980075V68.9645H2.87394V5.94141H3.85875V69.4545C3.85812 69.5841 3.80622 69.7081 3.71439 69.7995C3.62255 69.8909 3.49827 69.9422 3.36871 69.9422Z" fill="#373331"/>
<path d="M71.5103 69.9422H68.6316C68.5017 69.9422 68.377 69.8906 68.2851 69.7987C68.1932 69.7068 68.1416 69.5821 68.1416 69.4522V5.94141H69.1264V68.9645H71.0203V5.94851H72.0004V69.4545C71.9997 69.5841 71.9478 69.7081 71.856 69.7995C71.7642 69.8909 71.6399 69.9422 71.5103 69.9422Z" fill="#373331"/>
<path d="M68.548 7.43066H3.43457V8.41074H68.548V7.43066Z" fill="#373331"/>
<path d="M68.5487 62.6366H3.44707C3.38263 62.6369 3.31877 62.6245 3.25918 62.5999C3.19958 62.5754 3.14543 62.5393 3.09987 62.4938C3.0543 62.4482 3.01822 62.3941 2.9937 62.3345C2.96918 62.2749 2.95672 62.211 2.95704 62.1466V57.4119C2.957 57.284 3.007 57.1611 3.09636 57.0695C3.18571 56.978 3.30733 56.925 3.43524 56.9219H68.5487C68.6786 56.9219 68.8033 56.9735 68.8952 57.0654C68.9871 57.1573 69.0387 57.2819 69.0387 57.4119V62.1466C69.0387 62.2765 68.9871 62.4012 68.8952 62.4931C68.8033 62.585 68.6786 62.6366 68.5487 62.6366ZM3.92528 61.6565H68.0563V57.9067H3.92528V61.6565Z" fill="#373331"/>
<path d="M68.5487 51.7919H3.44707C3.38272 51.7919 3.319 51.7792 3.25955 51.7546C3.20009 51.73 3.14607 51.6939 3.10057 51.6484C3.05506 51.6029 3.01897 51.5488 2.99434 51.4894C2.96971 51.4299 2.95704 51.3662 2.95704 51.3019V46.5672C2.95672 46.5027 2.96918 46.4389 2.9937 46.3793C3.01822 46.3197 3.0543 46.2655 3.09987 46.22C3.14543 46.1744 3.19958 46.1383 3.25918 46.1138C3.31877 46.0893 3.38263 46.0768 3.44707 46.0772H68.5487C68.6786 46.0772 68.8033 46.1288 68.8952 46.2207C68.9871 46.3126 69.0387 46.4372 69.0387 46.5672V51.3019C69.0387 51.4318 68.9871 51.5565 68.8952 51.6484C68.8033 51.7403 68.6786 51.7919 68.5487 51.7919ZM3.92054 50.8118H68.0515V47.062H3.92528L3.92054 50.8118Z" fill="#373331"/>
<path d="M68.5487 40.9472H3.44707C3.38272 40.9472 3.31899 40.9345 3.25954 40.9099C3.20009 40.8852 3.14606 40.8491 3.10056 40.8036C3.05506 40.7581 3.01896 40.7041 2.99433 40.6446C2.96971 40.5852 2.95703 40.5215 2.95703 40.4571V35.7225C2.95703 35.6581 2.96971 35.5944 2.99433 35.5349C3.01896 35.4755 3.05506 35.4215 3.10056 35.3759C3.14606 35.3304 3.20009 35.2943 3.25954 35.2697C3.31899 35.2451 3.38272 35.2324 3.44707 35.2324H68.5487C68.6786 35.2324 68.8033 35.284 68.8952 35.3759C68.9871 35.4678 69.0387 35.5925 69.0387 35.7225V40.4571C69.0387 40.5871 68.9871 40.7117 68.8952 40.8036C68.8033 40.8955 68.6786 40.9472 68.5487 40.9472ZM3.92053 39.9671H68.0515V36.2149H3.92527L3.92053 39.9671Z" fill="#373331"/>
<path d="M68.5487 30.1H3.44707C3.38263 30.1003 3.31877 30.0878 3.25918 30.0633C3.19958 30.0388 3.14543 30.0027 3.09987 29.9572C3.0543 29.9116 3.01822 29.8574 2.9937 29.7979C2.96918 29.7383 2.95672 29.6744 2.95704 29.61V24.8753C2.95704 24.8109 2.96971 24.7472 2.99434 24.6878C3.01897 24.6283 3.05506 24.5743 3.10057 24.5288C3.14607 24.4833 3.20009 24.4472 3.25955 24.4226C3.319 24.3979 3.38272 24.3853 3.44707 24.3853H68.5487C68.6786 24.3853 68.8033 24.4369 68.8952 24.5288C68.9871 24.6207 69.0387 24.7453 69.0387 24.8753V29.61C69.0387 29.7399 68.9871 29.8646 68.8952 29.9565C68.8033 30.0484 68.6786 30.1 68.5487 30.1ZM3.92054 29.1199H68.0515V25.3701H3.92528L3.92054 29.1199Z" fill="#373331"/>
<path d="M68.5487 19.2553H3.44707C3.38272 19.2553 3.319 19.2426 3.25955 19.218C3.20009 19.1933 3.14607 19.1572 3.10057 19.1117C3.05506 19.0662 3.01897 19.0122 2.99434 18.9528C2.96971 18.8933 2.95704 18.8296 2.95704 18.7652V14.0306C2.95672 13.9661 2.96918 13.9023 2.9937 13.8427C3.01822 13.7831 3.0543 13.7289 3.09987 13.6834C3.14543 13.6378 3.19958 13.6017 3.25918 13.5772C3.31877 13.5527 3.38263 13.5402 3.44707 13.5405H68.5487C68.6786 13.5405 68.8033 13.5922 68.8952 13.6841C68.9871 13.776 69.0387 13.9006 69.0387 14.0306V18.7652C69.0387 18.8952 68.9871 19.0198 68.8952 19.1117C68.8033 19.2036 68.6786 19.2553 68.5487 19.2553ZM3.92054 18.2752H68.0515V14.5253H3.92528L3.92054 18.2752Z" fill="#373331"/>
<path d="M7.14011 13.7894H6.1553V12.6057L3.03516 8.20488L3.83295 7.63672L7.04778 12.156C7.10737 12.2387 7.13965 12.338 7.14011 12.44V13.7894Z" fill="#373331"/>
<path d="M7.14014 24.8162H6.15533V22.9603L3.05176 19.0707L3.81641 18.46L7.03124 22.4844C7.10182 22.5715 7.14027 22.6801 7.14014 22.7922V24.8162Z" fill="#373331"/>
<path d="M7.14046 35.6162H6.15565V33.3294L3.07812 29.9346L3.78832 29.2812L7.00316 32.8086C7.08459 32.8989 7.13007 33.016 7.131 33.1376L7.14046 35.6162Z" fill="#373331"/>
<path d="M7.14064 46.5439H6.15583V43.7031L3.09961 40.8245L3.77193 40.1143L6.98677 43.1468C7.03518 43.1925 7.07379 43.2475 7.10024 43.3085C7.1267 43.3696 7.14044 43.4354 7.14064 43.5019V46.5439Z" fill="#373331"/>
<path d="M7.13999 57.3412H6.15518V54.0814L3.125 51.6952L3.7334 50.9258L6.94824 53.4612C7.00644 53.5068 7.05352 53.565 7.08592 53.6314C7.11832 53.6978 7.13519 53.7708 7.13526 53.8447L7.13999 57.3412Z" fill="#373331"/>
<path d="M7.14035 66.9857H6.15554V64.4574L3.16797 62.5635L3.69115 61.7373L6.90835 63.7756C6.97954 63.8191 7.03857 63.8799 7.07996 63.9523C7.12135 64.0247 7.14375 64.1065 7.14508 64.1899L7.14035 66.9857Z" fill="#373331"/>
<path d="M65.8233 13.7894H64.8408V12.44C64.8413 12.338 64.8736 12.2387 64.9331 12.156L68.148 7.63672L68.9458 8.20488L65.8233 12.5963V13.7894Z" fill="#373331"/>
<path d="M65.8233 24.8162H64.8408V22.7897C64.8407 22.6777 64.8791 22.569 64.9497 22.482L68.1646 18.4575L68.9292 19.0683L65.8233 22.9602V24.8162Z" fill="#373331"/>
<path d="M65.8233 35.6162H64.8408V33.1376C64.8417 33.016 64.8872 32.8989 64.9687 32.8086L68.1788 29.2812L68.9055 29.9417L65.828 33.327L65.8233 35.6162Z" fill="#373331"/>
<path d="M65.8233 46.5435H64.8408V43.4873C64.8403 43.4204 64.854 43.3542 64.8809 43.293C64.9078 43.2318 64.9474 43.177 64.9971 43.1322L68.2119 40.0996L68.8842 40.8098L65.8233 43.698V46.5435Z" fill="#373331"/>
<path d="M65.8233 57.3412H64.8408V53.8447C64.8414 53.7709 64.8585 53.6981 64.8909 53.6318C64.9232 53.5654 64.97 53.5071 65.0278 53.4612L68.2427 50.9258L68.8511 51.6952L65.8233 54.0814V57.3412Z" fill="#373331"/>
<path d="M65.8233 66.9856H64.8408V64.1874C64.8419 64.104 64.8642 64.0222 64.9057 63.9497C64.9471 63.8772 65.0062 63.8165 65.0776 63.7731L68.2924 61.7349L68.8156 62.5611L65.8304 64.4549L65.8233 66.9856Z" fill="#373331"/>
<path d="M65.3332 11.9497H6.64941V12.9298H65.3332V11.9497Z" fill="#373331"/>
<path d="M65.3332 22.2998H6.64941V23.2799H65.3332V22.2998Z" fill="#373331"/>
<path d="M65.3332 32.6475H6.64941V33.6275H65.3332V32.6475Z" fill="#373331"/>
<path d="M65.3332 42.9976H6.64941V43.9776H65.3332V42.9976Z" fill="#373331"/>
<path d="M65.3332 53.3472H6.64941V54.3272H65.3332V53.3472Z" fill="#373331"/>
<path d="M65.3332 63.6973H6.64941V64.6773H65.3332V63.6973Z" fill="#373331"/>
<path d="M71.5055 6.43875H0.516405C0.452052 6.43875 0.38833 6.42607 0.328875 6.40144C0.269421 6.37682 0.2154 6.34072 0.169896 6.29522C0.077996 6.20332 0.0263672 6.07867 0.0263672 5.94871V2.49004C0.0263672 2.36007 0.077996 2.23543 0.169896 2.14353C0.261796 2.05163 0.386439 2 0.516405 2H71.5055C71.6355 2 71.7602 2.05163 71.8521 2.14353C71.944 2.23543 71.9956 2.36007 71.9956 2.49004V5.94871C71.9956 6.07867 71.944 6.20332 71.8521 6.29522C71.7602 6.38712 71.6355 6.43875 71.5055 6.43875ZM1.00644 5.45867H71.0202V2.98007H1.00644V5.45867Z" fill="#373331"/>
</svg>
