<svg width="72" height="72" viewBox="0 0 72 72" fill="none" xmlns="http://www.w3.org/2000/svg">
<path d="M9.6373 12.7051H8.65723V19.9846H9.6373V12.7051Z" fill="#373331"/>
<path d="M9.6373 21.8643H8.65723V55.0258H9.6373V21.8643Z" fill="#373331"/>
<path d="M9.6373 56.9082H8.65723V62.3933H9.6373V56.9082Z" fill="#373331"/>
<path d="M15.5768 56.9082H14.5967V62.3933H15.5768V56.9082Z" fill="#373331"/>
<path d="M15.5768 21.8643H14.5967V55.0258H15.5768V21.8643Z" fill="#373331"/>
<path d="M15.5768 12.7051H14.5967V19.9846H15.5768V12.7051Z" fill="#373331"/>
<path d="M21.5162 21.8643H20.5361V55.0258H21.5162V21.8643Z" fill="#373331"/>
<path d="M21.5162 56.9082H20.5361V62.3933H21.5162V56.9082Z" fill="#373331"/>
<path d="M21.5162 12.7051H20.5361V19.9846H21.5162V12.7051Z" fill="#373331"/>
<path d="M27.4566 21.8643H26.4766V55.0258H27.4566V21.8643Z" fill="#373331"/>
<path d="M27.4566 56.9082H26.4766V62.3933H27.4566V56.9082Z" fill="#373331"/>
<path d="M27.4566 12.7051H26.4766V19.9846H27.4566V12.7051Z" fill="#373331"/>
<path d="M33.3961 56.9082H32.416V62.3933H33.3961V56.9082Z" fill="#373331"/>
<path d="M33.3961 21.8643H32.416V55.0258H33.3961V21.8643Z" fill="#373331"/>
<path d="M33.3961 12.7051H32.416V19.9846H33.3961V12.7051Z" fill="#373331"/>
<path d="M39.3355 56.9082H38.3555V62.3933H39.3355V56.9082Z" fill="#373331"/>
<path d="M39.3355 12.7051H38.3555V19.9846H39.3355V12.7051Z" fill="#373331"/>
<path d="M39.3355 21.8643H38.3555V55.0258H39.3355V21.8643Z" fill="#373331"/>
<path d="M57.1549 21.8643H56.1748V55.0258H57.1549V21.8643Z" fill="#373331"/>
<path d="M57.1549 56.9082H56.1748V62.3933H57.1549V56.9082Z" fill="#373331"/>
<path d="M57.1549 12.7051H56.1748V19.9846H57.1549V12.7051Z" fill="#373331"/>
<path d="M45.275 56.9082H44.2949V62.3933H45.275V56.9082Z" fill="#373331"/>
<path d="M45.275 12.7051H44.2949V19.9846H45.275V12.7051Z" fill="#373331"/>
<path d="M45.275 21.8643H44.2949V55.0258H45.275V21.8643Z" fill="#373331"/>
<path d="M51.2144 21.8643H50.2344V55.0258H51.2144V21.8643Z" fill="#373331"/>
<path d="M51.2144 56.9082H50.2344V62.3933H51.2144V56.9082Z" fill="#373331"/>
<path d="M51.2144 12.7051H50.2344V19.9846H51.2144V12.7051Z" fill="#373331"/>
<path d="M63.0943 21.8643H62.1143V55.0258H63.0943V21.8643Z" fill="#373331"/>
<path d="M63.0943 12.7051H62.1143V19.9846H63.0943V12.7051Z" fill="#373331"/>
<path d="M63.0943 56.9082H62.1143V62.3933H63.0943V56.9082Z" fill="#373331"/>
<path d="M68.0895 10.333H3.92773V11.3131H68.0895V10.333Z" fill="#373331"/>
<path d="M68.0895 12.2153H3.92773V13.1954H68.0895V12.2153Z" fill="#373331"/>
<path d="M68.0895 19.4946H3.92773V20.4747H68.0895V19.4946Z" fill="#373331"/>
<path d="M68.0895 21.3745H3.92773V22.3546H68.0895V21.3745Z" fill="#373331"/>
<path d="M68.0895 56.418H3.92773V57.398H68.0895V56.418Z" fill="#373331"/>
<path d="M68.0895 54.5361H3.92773V55.5162H68.0895V54.5361Z" fill="#373331"/>
<path d="M3.92715 64.526H1.0106C0.945642 64.526 0.881334 64.5131 0.821412 64.488C0.761491 64.4629 0.707151 64.4262 0.661553 64.3799C0.615954 64.3337 0.580008 64.2788 0.555803 64.2185C0.531598 64.1583 0.519618 64.0938 0.520559 64.0288V8.99316H1.50063V63.5388H3.43711V8.99316H4.41718V64.0288C4.41812 64.0938 4.40614 64.1583 4.38194 64.2185C4.35773 64.2788 4.32179 64.3337 4.27619 64.3799C4.23059 64.4262 4.17625 64.4629 4.11633 64.488C4.05641 64.5131 3.9921 64.526 3.92715 64.526Z" fill="#373331"/>
<path d="M71.0033 64.5259H68.0867C67.9567 64.5259 67.8321 64.4743 67.7402 64.3824C67.6483 64.2905 67.5967 64.1658 67.5967 64.0358V9.02148H68.5768V63.5387H70.5132V9.06646H71.4933V64.0287C71.4942 64.0937 71.4823 64.1582 71.4581 64.2185C71.4339 64.2787 71.3979 64.3336 71.3523 64.3799C71.3067 64.4261 71.2524 64.4628 71.1925 64.4879C71.1325 64.513 71.0682 64.5259 71.0033 64.5259Z" fill="#373331"/>
<path d="M4.40565 9.36733H0.490089C0.425134 9.36734 0.360826 9.35443 0.300905 9.32936C0.240983 9.30429 0.186643 9.26756 0.141045 9.2213C0.0954465 9.17504 0.0594999 9.12018 0.035295 9.0599C0.0110902 8.99962 -0.000889901 8.93514 5.14704e-05 8.87019V8.82758C5.10641e-05 8.34328 0.192274 7.87879 0.534499 7.53612C0.876725 7.19345 1.34097 7.00063 1.82526 7H3.07758C3.56228 7 4.02713 7.19255 4.36987 7.53529C4.71261 7.87802 4.90516 8.34287 4.90516 8.82758V8.87019C4.90612 8.93594 4.89384 9.00122 4.86905 9.06212C4.84426 9.12303 4.80747 9.17833 4.76086 9.22471C4.71425 9.2711 4.65878 9.30764 4.59775 9.33214C4.53673 9.35664 4.4714 9.36861 4.40565 9.36733ZM1.10796 8.38015H3.78778C3.71241 8.2593 3.60787 8.15932 3.48377 8.08941C3.35968 8.0195 3.22 7.98191 3.07758 7.98007H1.82526C1.68159 7.98049 1.54038 8.01743 1.41491 8.08742C1.28943 8.1574 1.18381 8.25813 1.10796 8.38015Z" fill="#373331"/>
<path d="M71.5101 9.36733H67.5945C67.4646 9.36733 67.3399 9.3157 67.248 9.2238C67.1561 9.1319 67.1045 9.00726 67.1045 8.87729V8.82758C67.1045 8.34287 67.297 7.87802 67.6398 7.53529C67.9825 7.19255 68.4474 7 68.9321 7H70.1726C70.4126 7 70.6502 7.04727 70.8719 7.13912C71.0937 7.23096 71.2951 7.36558 71.4648 7.53529C71.6346 7.70499 71.7692 7.90646 71.861 8.12819C71.9529 8.34993 72.0001 8.58758 72.0001 8.82758V8.87019C72.0011 8.93514 71.9891 8.99962 71.9649 9.0599C71.9407 9.12018 71.9047 9.17504 71.8591 9.2213C71.8135 9.26756 71.7592 9.30429 71.6993 9.32936C71.6394 9.35443 71.575 9.36734 71.5101 9.36733ZM68.2124 8.38015H70.8922C70.8168 8.2593 70.7123 8.15932 70.5882 8.08941C70.4641 8.0195 70.3244 7.98191 70.182 7.98007H68.9415C68.7959 7.9787 68.6524 8.01477 68.5247 8.08483C68.397 8.15489 68.2895 8.25658 68.2124 8.38015Z" fill="#373331"/>
</svg>
