<svg width="72" height="72" viewBox="0 0 72 72" fill="none" xmlns="http://www.w3.org/2000/svg">
<path d="M8.0808 60.6104H0.4968C0.36504 60.6104 0.238677 60.5581 0.145509 60.4649C0.0523413 60.3718 0 60.2454 0 60.1136L0 9.82883C0 9.69707 0.0523413 9.57071 0.145509 9.47754C0.238677 9.38437 0.36504 9.33203 0.4968 9.33203H8.0808C8.14604 9.33203 8.21064 9.34488 8.27092 9.36985C8.33119 9.39481 8.38596 9.43141 8.43209 9.47754C8.47822 9.52367 8.51482 9.57844 8.53978 9.63871C8.56475 9.69899 8.5776 9.76359 8.5776 9.82883V60.1136C8.5776 60.1789 8.56475 60.2435 8.53978 60.3037C8.51482 60.364 8.47822 60.4188 8.43209 60.4649C8.38596 60.5111 8.33119 60.5476 8.27092 60.5726C8.21064 60.5976 8.14604 60.6104 8.0808 60.6104ZM0.9936 59.6168H7.584V10.3256H0.9936V59.6168Z" fill="#373331"/>
<path d="M31.7831 63.0416C31.7434 63.0416 31.7039 63.0368 31.6655 63.0272L9.06466 57.5264C8.95608 57.5011 8.85917 57.44 8.78951 57.353C8.71986 57.2659 8.68152 57.1579 8.68066 57.0464V36.716C8.68066 36.5843 8.73301 36.4579 8.82617 36.3647C8.91934 36.2716 9.04571 36.2192 9.17746 36.2192L31.7879 36.3992C31.9188 36.4005 32.0439 36.4534 32.1361 36.5464C32.2282 36.6395 32.2799 36.7651 32.2799 36.896V62.5448C32.2802 62.6102 32.2675 62.6749 32.2427 62.7353C32.2178 62.7957 32.1813 62.8506 32.1351 62.8968C32.0889 62.943 32.034 62.9796 31.9736 63.0045C31.9131 63.0293 31.8484 63.042 31.7831 63.0416ZM9.67426 56.6504L31.2863 61.9136V37.388L28.7567 37.3688L9.67426 37.2176V56.6504Z" fill="#373331"/>
<path d="M9.17986 35.8401C9.11474 35.8411 9.0501 35.8289 8.98986 35.8041C8.92962 35.7794 8.87505 35.7426 8.82946 35.6961C8.73517 35.6028 8.68166 35.476 8.68066 35.3433V15.2385C8.68214 15.1239 8.7234 15.0133 8.79739 14.9258C8.87138 14.8382 8.97349 14.7791 9.08626 14.7585L31.6799 9.31052C31.7526 9.29275 31.8284 9.29172 31.9016 9.30752C31.9747 9.32332 32.0434 9.35553 32.1023 9.40172C32.1612 9.44852 32.2088 9.50799 32.2416 9.57571C32.2745 9.64343 32.2916 9.71766 32.2919 9.79292V35.1633C32.2919 35.2942 32.2402 35.4199 32.1481 35.5129C32.0559 35.606 31.9308 35.6588 31.7999 35.6601L9.19666 35.8401H9.17986ZM9.67426 15.6393V34.8393L31.2863 34.6689V10.4289L9.67426 15.6393Z" fill="#373331"/>
<path d="M9.17942 35.8402C9.1143 35.8413 9.04965 35.829 8.98941 35.8043C8.92917 35.7795 8.8746 35.7428 8.82902 35.6962C8.73538 35.6027 8.68272 35.4758 8.68262 35.3434V15.1114C8.68349 15.001 8.72095 14.894 8.78914 14.8072C8.85732 14.7203 8.95237 14.6585 9.05942 14.6314L11.061 14.137C11.1345 14.1194 11.211 14.1184 11.285 14.1342C11.3589 14.15 11.4283 14.1821 11.4882 14.2282C11.5475 14.2747 11.5955 14.3341 11.6283 14.4019C11.6612 14.4697 11.6781 14.5441 11.6778 14.6194V35.3194C11.6779 35.4483 11.6279 35.5722 11.5383 35.6649C11.4487 35.7576 11.3266 35.8119 11.1978 35.8162L9.19622 35.833L9.17942 35.8402ZM9.67622 15.5002V34.8394H10.6842V15.2506L9.67622 15.5002Z" fill="#373331"/>
<path d="M11.181 57.7761C11.1406 57.7762 11.1003 57.7714 11.061 57.7617L9.05942 57.2625C8.95237 57.2354 8.85732 57.1736 8.78914 57.0868C8.72095 56.9999 8.68349 56.8929 8.68262 56.7825V36.7185C8.68261 36.6529 8.69562 36.5879 8.72089 36.5273C8.74615 36.4667 8.78318 36.4117 8.82982 36.3655C8.87646 36.3193 8.9318 36.2828 8.99263 36.2581C9.05346 36.2334 9.11857 36.2211 9.18422 36.2217L11.1858 36.2385C11.3146 36.2429 11.4367 36.2971 11.5263 36.3898C11.6159 36.4825 11.6659 36.6064 11.6658 36.7353V57.2793C11.6669 57.355 11.6501 57.43 11.6168 57.4979C11.5834 57.5659 11.5344 57.6251 11.4738 57.6705C11.3907 57.7372 11.2876 57.7744 11.181 57.7761ZM9.67622 56.3913L10.6842 56.6313V37.2249H9.67622V56.3913Z" fill="#373331"/>
<path d="M16.0798 35.7848C15.948 35.7848 15.8217 35.7325 15.7285 35.6393C15.6353 35.5461 15.583 35.4198 15.583 35.288V13.5176C15.5836 13.4068 15.6213 13.2993 15.69 13.2123C15.7587 13.1253 15.8545 13.0638 15.9622 13.0376L18.3022 12.464C18.3751 12.4458 18.4513 12.4444 18.5248 12.46C18.5983 12.4756 18.6673 12.5077 18.7266 12.554C18.7858 12.6003 18.8337 12.6595 18.8667 12.7271C18.8996 12.7946 18.9167 12.8688 18.9166 12.944V35.264C18.9167 35.3929 18.8667 35.5168 18.7771 35.6095C18.6875 35.7022 18.5654 35.7564 18.4366 35.7608L16.0966 35.78L16.0798 35.7848ZM16.5766 13.9064V34.7864H17.923V13.5776L16.5766 13.9064Z" fill="#373331"/>
<path d="M18.4149 59.6865C18.3745 59.6866 18.3342 59.6818 18.2949 59.6721L15.9549 59.0793C15.8479 59.0523 15.7528 58.9905 15.6846 58.9036C15.6165 58.8167 15.579 58.7097 15.5781 58.5993V36.7593C15.5782 36.627 15.6309 36.5001 15.7245 36.4065C15.824 36.3232 15.95 36.2781 16.0797 36.2793L18.4197 36.2985C18.5486 36.3029 18.6706 36.3571 18.7602 36.4498C18.8498 36.5425 18.8998 36.6664 18.8997 36.7953V59.1945C18.9009 59.2703 18.884 59.3452 18.8507 59.4132C18.8173 59.4812 18.7683 59.5403 18.7077 59.5857C18.6239 59.6507 18.521 59.6862 18.4149 59.6865ZM16.5717 58.2153L17.9181 58.5537V37.2825H16.5717V58.2153Z" fill="#373331"/>
<path d="M24.1657 35.72C24.1006 35.721 24.036 35.7088 23.9757 35.684C23.9155 35.6592 23.8609 35.6225 23.8153 35.576C23.7217 35.4824 23.669 35.3555 23.6689 35.2232V11.5304C23.6695 11.4195 23.7072 11.3121 23.7759 11.2251C23.8446 11.1381 23.9404 11.0766 24.0481 11.0504L26.8177 10.3592C26.8909 10.3416 26.967 10.3406 27.0405 10.3564C27.1141 10.3722 27.1831 10.4043 27.2425 10.4504C27.3019 10.4968 27.3498 10.5562 27.3826 10.624C27.4155 10.6918 27.4324 10.7662 27.4321 10.8416V35.2016C27.4322 35.3305 27.3822 35.4544 27.2926 35.5471C27.2031 35.6398 27.081 35.694 26.9521 35.6984L24.1825 35.72H24.1657ZM24.6625 11.9192V34.7192L26.4385 34.7072V11.4848L24.6625 11.9192Z" fill="#373331"/>
<path d="M26.9353 61.8202C26.8949 61.8203 26.8546 61.8154 26.8153 61.8058L24.0457 61.1122C23.9387 61.0851 23.8436 61.0233 23.7755 60.9364C23.7073 60.8496 23.6698 60.7426 23.6689 60.6322V36.8362C23.6689 36.7044 23.7213 36.578 23.8145 36.4849C23.9076 36.3917 24.034 36.3394 24.1657 36.3394L26.9353 36.361C27.0642 36.3653 27.1863 36.4196 27.2758 36.5123C27.3654 36.605 27.4154 36.7289 27.4153 36.8578V61.3234C27.4165 61.3991 27.3997 61.474 27.3663 61.542C27.3329 61.61 27.2839 61.6691 27.2233 61.7146C27.1415 61.7803 27.0403 61.8174 26.9353 61.8202ZM24.6625 60.241L26.4385 60.6874V37.3498H24.6625V60.241Z" fill="#373331"/>
<path d="M8.8227 14.0337H7.8291V35.3505H8.8227V14.0337Z" fill="#373331"/>
<path d="M8.8227 36.709H7.8291V58.0378H8.8227V36.709Z" fill="#373331"/>
<path d="M33.7582 36.9082H32.7646V64.4602H33.7582V36.9082Z" fill="#373331"/>
<path d="M33.7582 7.61377H32.7646V35.1514H33.7582V7.61377Z" fill="#373331"/>
<path d="M9.26181 15.5696C9.1896 15.571 9.11797 15.5564 9.05202 15.527C8.98607 15.4975 8.92741 15.4539 8.88021 15.3992L7.94421 14.2688C7.88852 14.2037 7.85082 14.1251 7.83482 14.0409C7.81882 13.9568 7.82509 13.8698 7.85301 13.7888C7.87921 13.7095 7.92473 13.6379 7.98548 13.5805C8.04623 13.5231 8.12029 13.4817 8.20101 13.46L33.137 7.01603C33.2353 6.99044 33.339 6.99559 33.4343 7.03077C33.5296 7.06596 33.6118 7.1295 33.6698 7.21283C33.7274 7.29649 33.7582 7.39566 33.7582 7.49723C33.7582 7.59879 33.7274 7.69796 33.6698 7.78163L32.189 9.89363C32.1215 9.99392 32.0187 10.0651 31.901 10.0928L9.37941 15.5552C9.34094 15.5647 9.30145 15.5696 9.26181 15.5696ZM9.20661 14.228L9.44661 14.5184L31.4834 9.17123L32.0834 8.31443L9.20661 14.228Z" fill="#373331"/>
<path d="M33.262 37.4049L8.32598 37.2057C8.19506 37.2044 8.06993 37.1515 7.97779 37.0585C7.88566 36.9654 7.83398 36.8398 7.83398 36.7089V35.3505C7.83398 35.2195 7.88566 35.0939 7.97779 35.0008C8.06993 34.9078 8.19506 34.8549 8.32598 34.8537L33.262 34.6545C33.3279 34.6528 33.3935 34.6647 33.4546 34.6895C33.5157 34.7142 33.571 34.7513 33.6172 34.7985C33.7108 34.892 33.7635 35.0189 33.7636 35.1513V36.9081C33.7636 37.0398 33.7112 37.1662 33.6181 37.2593C33.5249 37.3525 33.3985 37.4049 33.2668 37.4049H33.262ZM8.82278 36.2049L32.7652 36.3945V35.6409L8.82278 35.8305V36.2049Z" fill="#373331"/>
<path d="M33.2618 65.06C33.2196 65.0603 33.1776 65.0546 33.137 65.0432L8.20101 58.5992C8.12029 58.5775 8.04623 58.5361 7.98548 58.4787C7.92473 58.4213 7.87921 58.3497 7.85301 58.2704C7.82509 58.1893 7.81882 58.1024 7.83482 58.0182C7.85082 57.934 7.88852 57.8555 7.94421 57.7904L8.88021 56.6792C8.93923 56.6071 9.01746 56.5534 9.10583 56.524C9.19419 56.4947 9.28906 56.4911 9.37941 56.5136L31.901 61.9592C32.0187 61.9869 32.1215 62.0581 32.189 62.1584L33.6698 64.2704C33.7274 64.354 33.7582 64.4532 33.7582 64.5548C33.7582 64.6563 33.7274 64.7555 33.6698 64.8392C33.6252 64.9067 33.5646 64.9621 33.4935 65.0007C33.4223 65.0392 33.3427 65.0595 33.2618 65.06ZM9.20661 57.8312L32.0834 63.7448L31.4834 62.888L9.44661 57.5432L9.20661 57.8312Z" fill="#373331"/>
<path d="M39.3591 58.4743C39.2938 58.4746 39.229 58.462 39.1686 58.4371C39.1082 58.4123 39.0533 58.3757 39.0071 58.3295C38.9609 58.2833 38.9243 58.2284 38.8995 58.168C38.8746 58.1075 38.862 58.0428 38.8623 57.9775V36.7447C38.8623 36.6129 38.9147 36.4866 39.0078 36.3934C39.101 36.3002 39.2274 36.2479 39.3591 36.2479L61.1991 36.2095C61.3307 36.2101 61.4567 36.2626 61.5497 36.3557C61.6427 36.4487 61.6953 36.5747 61.6959 36.7063V56.5471C61.7325 56.6209 61.7503 56.7027 61.7476 56.7851C61.7449 56.8675 61.7218 56.9479 61.6805 57.0192C61.6391 57.0905 61.5807 57.1505 61.5106 57.1937C61.4404 57.237 61.3606 57.2622 61.2783 57.2671H61.2207L39.3807 58.4671L39.3591 58.4743ZM39.8535 37.2391V57.4495L60.7047 56.3095V37.2031L39.8535 37.2391Z" fill="#373331"/>
<path d="M61.1991 35.8496L39.3591 35.8112C39.2273 35.8112 39.101 35.7588 39.0078 35.6657C38.9146 35.5725 38.8623 35.4461 38.8623 35.3144V14.312C38.8626 14.2442 38.8766 14.1771 38.9034 14.1149C38.9302 14.0526 38.9693 13.9964 39.0183 13.9496C39.0674 13.9024 39.126 13.8663 39.1901 13.8436C39.2542 13.8208 39.3225 13.8119 39.3903 13.8176H39.4263L61.2303 14.9936C61.3591 14.9979 61.4812 15.0522 61.5708 15.1449C61.6604 15.2376 61.7104 15.3615 61.7103 15.4904V35.3504C61.7103 35.4821 61.658 35.6085 61.5648 35.7017C61.4716 35.7948 61.3453 35.8472 61.2135 35.8472L61.1991 35.8496ZM39.8511 34.8176L60.7023 34.856V15.9632L39.8511 14.8376V34.8176Z" fill="#373331"/>
<path d="M59.0154 57.3991C58.8838 57.3985 58.7578 57.3459 58.6648 57.2529C58.5717 57.1599 58.5192 57.0339 58.5186 56.9023V36.7087C58.5186 36.577 58.5709 36.4506 58.6641 36.3574C58.7572 36.2643 58.8836 36.2119 59.0154 36.2119H61.1994C61.3309 36.2125 61.4569 36.2651 61.55 36.3581C61.643 36.4512 61.6955 36.5771 61.6962 36.7087V56.5495C61.7328 56.6234 61.7505 56.7051 61.7478 56.7875C61.7451 56.8699 61.7221 56.9503 61.6807 57.0217C61.6393 57.093 61.581 57.1529 61.5108 57.1962C61.4406 57.2394 61.3608 57.2646 61.2786 57.2695H61.221L59.0394 57.3991H59.0154ZM59.5194 37.2055V56.3767L60.7194 56.3119V37.2031L59.5194 37.2055Z" fill="#373331"/>
<path d="M61.1994 35.8495H59.0154C58.8836 35.8495 58.7573 35.7972 58.6641 35.704C58.5709 35.6109 58.5186 35.4845 58.5186 35.3527V15.2287C58.5178 15.1611 58.5312 15.0941 58.5581 15.0321C58.585 14.97 58.6247 14.9144 58.6746 14.8687C58.7227 14.8214 58.7803 14.7847 58.8436 14.7612C58.9069 14.7376 58.9744 14.7276 59.0418 14.7319L61.2282 14.8519C61.357 14.8563 61.4791 14.9106 61.5687 15.0033C61.6582 15.096 61.7083 15.2198 61.7082 15.3487V35.3527C61.7082 35.4845 61.6558 35.6109 61.5627 35.704C61.4695 35.7972 61.3431 35.8495 61.2114 35.8495H61.1994ZM59.5194 34.8535H60.7194V15.8191L59.5194 15.7543V34.8535Z" fill="#373331"/>
<path d="M53.7591 35.8374H51.3855C51.2537 35.8374 51.1274 35.7851 51.0342 35.6919C50.941 35.5987 50.8887 35.4724 50.8887 35.3406V14.8158C50.8879 14.7482 50.9014 14.6812 50.9282 14.6191C50.9551 14.5571 50.9948 14.5014 51.0447 14.4558C51.0934 14.4092 51.151 14.373 51.2142 14.3495C51.2773 14.3259 51.3446 14.3156 51.4119 14.319L53.7855 14.4462C53.9143 14.4506 54.0364 14.5048 54.126 14.5975C54.2156 14.6902 54.2656 14.8141 54.2655 14.943V35.343C54.2649 35.4746 54.2123 35.6006 54.1193 35.6936C54.0263 35.7866 53.9003 35.8392 53.7687 35.8398L53.7591 35.8374ZM51.8799 34.839H53.2599V15.399L51.8799 15.3246V34.839Z" fill="#373331"/>
<path d="M51.3835 57.817C51.252 57.8163 51.126 57.7638 51.0329 57.6708C50.9399 57.5777 50.8873 57.4517 50.8867 57.3202V36.7234C50.8867 36.5916 50.9391 36.4652 51.0322 36.3721C51.1254 36.2789 51.2518 36.2266 51.3835 36.2266H53.7571C53.8887 36.2272 54.0147 36.2797 54.1077 36.3728C54.2007 36.4658 54.2533 36.5918 54.2539 36.7234V57.1954C54.254 57.3243 54.204 57.4481 54.1144 57.5408C54.0248 57.6335 53.9027 57.6878 53.7739 57.6922L51.4003 57.8218L51.3835 57.817ZM51.8803 37.2202V56.7946L53.2603 56.7202V37.2154L51.8803 37.2202Z" fill="#373331"/>
<path d="M45.9108 35.8233H43.4412C43.3094 35.8233 43.183 35.7709 43.0899 35.6778C42.9967 35.5846 42.9444 35.4582 42.9444 35.3265V14.3841C42.9436 14.3165 42.957 14.2494 42.9839 14.1874C43.0108 14.1254 43.0505 14.0697 43.1004 14.0241C43.1492 13.9777 43.2069 13.9416 43.27 13.9181C43.3331 13.8946 43.4003 13.8841 43.4676 13.8873L45.9372 14.0217C46.066 14.026 46.1881 14.0803 46.2776 14.173C46.3672 14.2657 46.4172 14.3896 46.4172 14.5185V35.3193C46.4172 35.451 46.3648 35.5774 46.2717 35.6706C46.1785 35.7637 46.0521 35.8161 45.9204 35.8161L45.9108 35.8233ZM43.938 34.8249H45.414V14.9889L43.938 14.9193V34.8249Z" fill="#373331"/>
<path d="M43.4392 58.2511C43.3076 58.2505 43.1816 58.1979 43.0886 58.1049C42.9956 58.0119 42.943 57.8859 42.9424 57.7543V36.7375C42.9424 36.6058 42.9947 36.4794 43.0879 36.3862C43.1811 36.2931 43.3074 36.2407 43.4392 36.2407H45.9088C46.0403 36.2414 46.1663 36.2939 46.2594 36.3869C46.3524 36.48 46.405 36.606 46.4056 36.7375V57.6175C46.4057 57.7464 46.3556 57.8703 46.2661 57.963C46.1765 58.0557 46.0544 58.11 45.9256 58.1143L43.456 58.2487L43.4392 58.2511ZM43.9384 37.2391V57.2311L45.4144 57.1495V37.2391H43.9384Z" fill="#373331"/>
<path d="M62.2291 58.4239C62.1564 58.424 62.0845 58.4082 62.0185 58.3775C61.9526 58.3468 61.8942 58.302 61.8475 58.2463L60.8179 57.0271C60.7453 56.9374 60.7055 56.8256 60.7051 56.7103V36.7063C60.7051 36.5745 60.7574 36.4482 60.8506 36.355C60.9438 36.2618 61.0701 36.2095 61.2019 36.2095H62.2891C62.4206 36.2117 62.5464 36.263 62.6419 36.3535C62.7355 36.447 62.7882 36.5739 62.7883 36.7063V57.9247C62.7875 58.0501 62.7397 58.1707 62.6544 58.2626C62.5692 58.3546 62.4525 58.4113 62.3275 58.4215H62.2291V58.4239ZM61.6987 56.5279L61.7947 56.6431V37.2031H61.6987V56.5279Z" fill="#373331"/>
<path d="M61.1999 57.2791C61.1346 57.2794 61.0699 57.2668 61.0094 57.2419C60.949 57.2171 60.8941 57.1805 60.8479 57.1343C60.8017 57.0881 60.7652 57.0332 60.7403 56.9728C60.7154 56.9124 60.7028 56.8476 60.7031 56.7823V56.7103C60.7028 56.6078 60.7342 56.5076 60.7931 56.4236C60.8519 56.3397 60.9353 56.2759 61.0318 56.2412C61.1283 56.2065 61.2332 56.2025 61.332 56.2298C61.4309 56.2571 61.5189 56.3142 61.5839 56.3935L61.6415 56.4631C61.6998 56.5347 61.737 56.621 61.7491 56.7125C61.7613 56.8039 61.7478 56.897 61.7103 56.9813C61.6727 57.0655 61.6126 57.1378 61.5365 57.1899C61.4604 57.2421 61.3713 57.2721 61.2791 57.2767H61.1999V57.2791Z" fill="#373331"/>
<path d="M62.2919 35.8518H61.1999C61.0682 35.8518 60.9418 35.7995 60.8486 35.7063C60.7555 35.6132 60.7031 35.4868 60.7031 35.355V15.3486C60.703 15.2309 60.7447 15.1169 60.8207 15.027L61.8359 13.827C61.8859 13.7679 61.9491 13.7212 62.0203 13.6908C62.0916 13.6604 62.169 13.647 62.2463 13.6518H62.3207C62.4468 13.6603 62.565 13.7163 62.6514 13.8085C62.7378 13.9007 62.786 14.0223 62.7863 14.1486V35.355C62.7863 35.4868 62.734 35.6132 62.6408 35.7063C62.5477 35.7995 62.4213 35.8518 62.2895 35.8518H62.2919ZM61.6991 34.8558H61.7951V15.4158L61.6991 15.531V34.8558Z" fill="#373331"/>
<path d="M38.1597 59.8134C38.0315 59.8085 37.9101 59.7544 37.8207 59.6623C37.7313 59.5702 37.6808 59.4473 37.6797 59.319V36.759C37.6797 36.6272 37.732 36.5009 37.8252 36.4077C37.9184 36.3145 38.0447 36.2622 38.1765 36.2622H39.4029C39.5346 36.2622 39.661 36.3145 39.7542 36.4077C39.8473 36.5009 39.8997 36.6272 39.8997 36.759V57.975C39.9 58.0778 39.8682 58.178 39.8089 58.2619C39.7495 58.3458 39.6655 58.4091 39.5685 58.443L38.6349 59.6214C38.5918 59.6754 38.538 59.7199 38.4768 59.7521C38.4157 59.7843 38.3486 59.8035 38.2797 59.8086H38.2101L38.1597 59.8134ZM38.6565 37.2534V57.975L38.8965 57.6798V37.239L38.6565 37.2534Z" fill="#373331"/>
<path d="M39.3933 35.8114H38.1597C38.0317 35.807 37.9103 35.7534 37.8209 35.6618C37.7314 35.5701 37.6809 35.4474 37.6797 35.3194V12.7594C37.6796 12.6916 37.6933 12.6246 37.7201 12.5623C37.7468 12.5001 37.786 12.444 37.8352 12.3975C37.8845 12.3509 37.9427 12.315 38.0063 12.2918C38.07 12.2686 38.1377 12.2586 38.2053 12.2626H38.2845C38.3543 12.2668 38.4224 12.2857 38.4844 12.3179C38.5464 12.3502 38.6009 12.3951 38.6445 12.4498L39.6717 13.7458C39.7435 13.7896 39.8031 13.8509 39.8451 13.9239C39.887 13.9968 39.9099 14.0792 39.9117 14.1634V35.3194C39.9111 35.386 39.8971 35.4519 39.8705 35.5131C39.8439 35.5743 39.8053 35.6295 39.7569 35.6754C39.7085 35.7213 39.6514 35.757 39.5889 35.7803C39.5265 35.8037 39.4599 35.8143 39.3933 35.8114ZM38.6733 34.8178H38.9133V14.3794L38.6733 14.0866V34.8178Z" fill="#373331"/>
<path d="M61.1995 15.8454H61.1731L39.3187 14.6454C39.2477 14.6406 39.1786 14.6206 39.116 14.5866C39.0535 14.5526 38.999 14.5056 38.9563 14.4486L37.7731 12.9558C37.7136 12.8806 37.6772 12.7897 37.6682 12.6942C37.6592 12.5987 37.6781 12.5027 37.7225 12.4177C37.7669 12.3326 37.835 12.2623 37.9185 12.2151C38.002 12.1679 38.0974 12.146 38.1931 12.1518L62.3179 13.551C62.4101 13.5571 62.4989 13.5887 62.5742 13.6422C62.6495 13.6958 62.7085 13.7692 62.7446 13.8543C62.7807 13.9394 62.7924 14.0328 62.7785 14.1242C62.7647 14.2156 62.7257 14.3013 62.6659 14.3718L62.5915 14.4582L61.5787 15.6582C61.5329 15.7151 61.4753 15.7614 61.4098 15.7937C61.3443 15.8261 61.2725 15.8437 61.1995 15.8454ZM39.5995 13.6854L60.9715 14.847L61.2619 14.5038L39.2347 13.2246L39.5995 13.6854Z" fill="#373331"/>
<path d="M38.1597 37.2394C38.0337 37.2352 37.9141 37.1833 37.8249 37.0942C37.7358 37.0051 37.6839 36.8854 37.6797 36.7594V35.3194C37.6784 35.1895 37.7278 35.0641 37.8174 34.97C37.907 34.8759 38.0298 34.8204 38.1597 34.8154L62.2845 34.8586C62.4163 34.8586 62.5426 34.911 62.6358 35.0041C62.729 35.0973 62.7813 35.2237 62.7813 35.3554V36.7042C62.7813 36.836 62.729 36.9624 62.6358 37.0555C62.5426 37.1487 62.4163 37.201 62.2845 37.201L38.1597 37.2394ZM38.6565 35.7994V36.2386L61.7877 36.1978V35.8402L38.6565 35.7994Z" fill="#373331"/>
<path d="M38.1597 59.8975C38.0664 59.8976 37.9749 59.8715 37.8958 59.822C37.8166 59.7726 37.753 59.7019 37.7122 59.618C37.6714 59.5341 37.655 59.4404 37.6649 59.3476C37.6749 59.2549 37.7108 59.1668 37.7685 59.0934L38.9541 57.5983C39.0185 57.5167 39.1067 57.4572 39.2065 57.428C39.3062 57.3987 39.4126 57.4012 39.5109 57.435C39.5365 57.4433 39.5614 57.4538 39.5853 57.4662L61.2309 56.2831C61.305 56.2787 61.3791 56.2916 61.4474 56.3208C61.5157 56.3499 61.5763 56.3945 61.6245 56.4511L61.6605 56.4919L62.5749 57.5767L62.6037 57.6078L62.6661 57.6822C62.7246 57.7532 62.7624 57.8389 62.7754 57.9299C62.7883 58.0209 62.7758 58.1138 62.7393 58.1982C62.7029 58.2826 62.6438 58.3553 62.5686 58.4082C62.4934 58.4612 62.405 58.4923 62.3133 58.4983L38.1885 59.8975H38.1597ZM39.5349 58.4575L39.2445 58.8391L61.2717 57.5598L61.0317 57.2862L39.5349 58.4575Z" fill="#373331"/>
<path d="M39.3591 58.4745C39.2938 58.4748 39.229 58.4622 39.1686 58.4373C39.1082 58.4125 39.0533 58.3759 39.0071 58.3297C38.9609 58.2835 38.9243 58.2286 38.8995 58.1682C38.8746 58.1078 38.862 58.043 38.8623 57.9777V57.8985C38.8626 57.7725 38.9105 57.6513 38.9964 57.5592C39.0823 57.467 39.1999 57.4108 39.3255 57.4017H39.3591L61.1751 56.2137C61.2529 56.2093 61.3306 56.2232 61.4019 56.2545C61.4732 56.2858 61.5361 56.3335 61.5855 56.3937L61.6431 56.4633C61.7013 56.5349 61.7386 56.6212 61.7507 56.7126C61.7629 56.8041 61.7494 56.8972 61.7119 56.9814C61.6743 57.0657 61.6142 57.1379 61.538 57.1901C61.4619 57.2423 61.3729 57.2723 61.2807 57.2769H61.2231L39.3831 58.4769L39.3591 58.4745Z" fill="#373331"/>
<path d="M12.2831 12.853H11.2799V11.7058L7.88867 10.2874L8.27267 9.37061L11.9783 10.9162C12.0688 10.9538 12.1461 11.0174 12.2004 11.0991C12.2546 11.1807 12.2834 11.2766 12.2831 11.3746V12.853Z" fill="#373331"/>
<path d="M10.1697 58.4096L7.8457 59.6772L8.32148 60.5495L10.6455 59.2819L10.1697 58.4096Z" fill="#373331"/>
<path d="M71.4988 60.6105H63.9148C63.783 60.6105 63.6566 60.5581 63.5635 60.4649C63.4703 60.3718 63.418 60.2454 63.418 60.1137V9.82885C63.418 9.76361 63.4308 9.69901 63.4558 9.63874C63.4808 9.57846 63.5173 9.5237 63.5635 9.47756C63.6096 9.43143 63.6644 9.39484 63.7247 9.36987C63.7849 9.3449 63.8495 9.33205 63.9148 9.33205H71.4988C71.5644 9.33142 71.6295 9.3438 71.6904 9.36848C71.7512 9.39317 71.8065 9.42966 71.8532 9.47586C71.8998 9.52205 71.9368 9.57703 71.9621 9.63762C71.9874 9.69821 72.0004 9.76321 72.0004 9.82885V60.1137C72.0004 60.1793 71.9874 60.2443 71.9621 60.3049C71.9368 60.3655 71.8998 60.4205 71.8532 60.4667C71.8065 60.5128 71.7512 60.5493 71.6904 60.574C71.6295 60.5987 71.5644 60.6111 71.4988 60.6105ZM64.4116 59.6169H71.002V10.3257H64.4116V59.6169Z" fill="#373331"/>
<path d="M59.9184 13.6303H58.9248V12.0079C58.924 11.9141 58.95 11.822 58.9997 11.7425C59.0495 11.663 59.1209 11.5993 59.2056 11.5591L63.6984 9.37988L64.1304 10.2727L59.9184 12.3175V13.6303Z" fill="#373331"/>
<path d="M60.8751 57.8367L60.3887 58.7031L63.6722 60.5465L64.1586 59.6801L60.8751 57.8367Z" fill="#373331"/>
<path d="M7.92752 13.2871H0.669922V14.2807H7.92752V13.2871Z" fill="#373331"/>
<path d="M7.92752 17.125H0.669922V18.1186H7.92752V17.125Z" fill="#373331"/>
<path d="M7.92752 20.9648H0.669922V21.9584H7.92752V20.9648Z" fill="#373331"/>
<path d="M7.92752 24.8022H0.669922V25.7958H7.92752V24.8022Z" fill="#373331"/>
<path d="M7.92752 28.6401H0.669922V29.6337H7.92752V28.6401Z" fill="#373331"/>
<path d="M7.92752 32.4775H0.669922V33.4711H7.92752V32.4775Z" fill="#373331"/>
<path d="M7.92752 36.3174H0.669922V37.311H7.92752V36.3174Z" fill="#373331"/>
<path d="M7.92752 40.1553H0.669922V41.1489H7.92752V40.1553Z" fill="#373331"/>
<path d="M7.92752 43.9927H0.669922V44.9863H7.92752V43.9927Z" fill="#373331"/>
<path d="M7.92752 47.833H0.669922V48.8266H7.92752V47.833Z" fill="#373331"/>
<path d="M7.92752 51.6704H0.669922V52.664H7.92752V51.6704Z" fill="#373331"/>
<path d="M7.92752 55.5078H0.669922V56.5014H7.92752V55.5078Z" fill="#373331"/>
<path d="M3.98872 13.9185H2.99512V17.4897H3.98872V13.9185Z" fill="#373331"/>
<path d="M5.88911 21.5215H4.89551V25.2079H5.88911V21.5215Z" fill="#373331"/>
<path d="M3.98872 29.3555H2.99512V32.9267H3.98872V29.3555Z" fill="#373331"/>
<path d="M5.88911 21.5215H4.89551V25.2079H5.88911V21.5215Z" fill="#373331"/>
<path d="M5.88911 36.9585H4.89551V40.6305H5.88911V36.9585Z" fill="#373331"/>
<path d="M3.98872 44.6191H2.99512V48.1903H3.98872V44.6191Z" fill="#373331"/>
<path d="M5.88911 52.2227H4.89551V55.8947H5.88911V52.2227Z" fill="#373331"/>
<path d="M62.5706 15.0583L62.1602 14.1607L63.917 13.3351C63.983 13.3039 64.0551 13.2875 64.1282 13.2871H71.3858V14.2807H64.2266L62.5706 15.0583Z" fill="#373331"/>
<path d="M62.5512 18.7834L62.1816 17.8618L63.9312 17.161C63.99 17.1373 64.0527 17.1251 64.116 17.125H71.3736V18.1186H64.212L62.5512 18.7834Z" fill="#373331"/>
<path d="M62.5293 22.5057L62.2197 21.5625L63.9597 20.9889C64.0101 20.9725 64.0628 20.9644 64.1157 20.9649H71.3733V21.9585H64.1949L62.5293 22.5057Z" fill="#373331"/>
<path d="M62.5076 26.2279L62.2676 25.2679L64.0004 24.8191C64.0413 24.8096 64.0832 24.8047 64.1252 24.8047H71.3828V25.7983H64.1828L62.5076 26.2279Z" fill="#373331"/>
<path d="M62.4812 29.948L62.2988 28.9712L64.0244 28.6496C64.0547 28.6461 64.0853 28.6461 64.1156 28.6496H71.3732V29.6432H64.1612L62.4812 29.948Z" fill="#373331"/>
<path d="M62.4556 33.6656L62.3428 32.6792L64.0588 32.4824H64.1164H71.374V33.476H64.1452L62.4556 33.6656Z" fill="#373331"/>
<path d="M62.4265 37.3806L62.3857 36.3894L64.0945 36.3174H71.3737V37.311H64.1161L62.4265 37.3806Z" fill="#373331"/>
<path d="M71.3735 41.1489H64.1159L62.3975 41.0937L62.4311 40.1025L64.1303 40.1553H71.3735V41.1489Z" fill="#373331"/>
<path d="M71.3739 44.9862H64.0635L62.3691 44.8062L62.4747 43.8174L64.1427 43.995H71.3739V44.9862Z" fill="#373331"/>
<path d="M71.3737 48.8264H64.1161C64.0889 48.8288 64.0616 48.8288 64.0345 48.8264L62.3545 48.5432L62.5177 47.564L64.1473 47.84H71.3641L71.3737 48.8264Z" fill="#373331"/>
<path d="M71.3735 52.6642H64.1159C64.0745 52.6647 64.0332 52.659 63.9935 52.6474L62.3135 52.2178L62.5535 51.2578L64.1711 51.673H71.3711L71.3735 52.6642Z" fill="#373331"/>
<path d="M71.3739 56.5015H64.1163C64.0632 56.5012 64.0105 56.4923 63.9603 56.4751L62.2803 55.9183L62.5923 54.9775L64.1883 55.5079H71.3643L71.3739 56.5015Z" fill="#373331"/>
<path d="M69.0483 13.9185H68.0547V17.4897H69.0483V13.9185Z" fill="#373331"/>
<path d="M67.1469 21.5215H66.1533V25.2079H67.1469V21.5215Z" fill="#373331"/>
<path d="M69.0483 29.3555H68.0547V32.9267H69.0483V29.3555Z" fill="#373331"/>
<path d="M67.1469 21.5215H66.1533V25.2079H67.1469V21.5215Z" fill="#373331"/>
<path d="M67.1469 36.9585H66.1533V40.6305H67.1469V36.9585Z" fill="#373331"/>
<path d="M69.0483 44.6191H68.0547V48.1903H69.0483V44.6191Z" fill="#373331"/>
<path d="M67.1469 52.2227H66.1533V55.8947H67.1469V52.2227Z" fill="#373331"/>
<path d="M33.5421 64.9735L32.9805 64.1551L34.0413 63.4231V8.19914L33.2061 8.10794L33.3165 7.11914L34.5933 7.26074C34.7155 7.27374 34.8286 7.33137 34.911 7.4226C34.9934 7.51382 35.0392 7.63223 35.0397 7.75514V63.6751C35.0394 63.7559 35.0196 63.8354 34.9819 63.9068C34.9443 63.9783 34.89 64.0396 34.8237 64.0855L33.5421 64.9735Z" fill="#373331"/>
</svg>
