<svg width="72" height="72" viewBox="0 0 72 72" fill="none" xmlns="http://www.w3.org/2000/svg">
<path d="M59.0933 60.2651H55.0215V61.2452H59.0933V60.2651Z" fill="#373331"/>
<path d="M59.0933 7.62012H55.0215V8.60019H59.0933V7.62012Z" fill="#373331"/>
<path d="M48.563 60.2651H44.4912V61.2452H48.563V60.2651Z" fill="#373331"/>
<path d="M16.9781 60.2651H12.9062V61.2452H16.9781V60.2651Z" fill="#373331"/>
<path d="M27.5064 60.2651H23.4346V61.2452H27.5064V60.2651Z" fill="#373331"/>
<path d="M38.0357 60.2651H33.9639V61.2452H38.0357V60.2651Z" fill="#373331"/>
<path d="M16.9781 7.62012H12.9062V8.60019H16.9781V7.62012Z" fill="#373331"/>
<path d="M48.563 7.62012H44.4912V8.60019H48.563V7.62012Z" fill="#373331"/>
<path d="M38.0357 7.62012H33.9639V8.60019H38.0357V7.62012Z" fill="#373331"/>
<path d="M27.5064 7.62012H23.4346V8.60019H27.5064V7.62012Z" fill="#373331"/>
<path d="M12.9067 61.8652H6.45098C6.38654 61.8655 6.32268 61.8531 6.26308 61.8286C6.20349 61.804 6.14934 61.768 6.10377 61.7224C6.05821 61.6768 6.02212 61.6227 5.99761 61.5631C5.97309 61.5035 5.96063 61.4396 5.96094 61.3752V7.49004C5.96094 7.36007 6.01257 7.23543 6.10447 7.14353C6.19637 7.05163 6.32101 7 6.45098 7H12.9067C13.0367 7 13.1613 7.05163 13.2532 7.14353C13.3451 7.23543 13.3967 7.36007 13.3967 7.49004V61.3752C13.3967 61.5052 13.3451 61.6298 13.2532 61.7217C13.1613 61.8136 13.0367 61.8652 12.9067 61.8652ZM6.93865 60.8851H12.4167V7.98007H6.93865V60.8851Z" fill="#373331"/>
<path d="M23.4364 61.9906H16.9783C16.8484 61.9906 16.7237 61.939 16.6318 61.8471C16.5399 61.7552 16.4883 61.6306 16.4883 61.5006V7.61308C16.4883 7.48312 16.5399 7.35848 16.6318 7.26658C16.7237 7.17468 16.8484 7.12305 16.9783 7.12305H23.4364C23.5664 7.12305 23.691 7.17468 23.7829 7.26658C23.8748 7.35848 23.9264 7.48312 23.9264 7.61308V61.5006C23.9264 61.6306 23.8748 61.7552 23.7829 61.8471C23.691 61.939 23.5664 61.9906 23.4364 61.9906ZM17.4707 61.0106H22.944V8.10312H17.4684L17.4707 61.0106Z" fill="#373331"/>
<path d="M33.9643 61.9906H27.5086C27.3786 61.9906 27.254 61.939 27.1621 61.8471C27.0702 61.7552 27.0186 61.6306 27.0186 61.5006V7.61308C27.0186 7.48312 27.0702 7.35848 27.1621 7.26658C27.254 7.17468 27.3786 7.12305 27.5086 7.12305H33.9643C34.0943 7.12305 34.2189 7.17468 34.3108 7.26658C34.4027 7.35848 34.4543 7.48312 34.4543 7.61308V61.5006C34.4543 61.6306 34.4027 61.7552 34.3108 61.8471C34.2189 61.939 34.0943 61.9906 33.9643 61.9906ZM27.9986 61.0106H33.4743V8.10312H27.9986V61.0106Z" fill="#373331"/>
<path d="M44.4916 61.9906H38.0359C37.906 61.9906 37.7813 61.939 37.6894 61.8471C37.5975 61.7552 37.5459 61.6306 37.5459 61.5006V7.61308C37.5459 7.48312 37.5975 7.35848 37.6894 7.26658C37.7813 7.17468 37.906 7.12305 38.0359 7.12305H44.4916C44.6212 7.12367 44.7452 7.17558 44.8366 7.26741C44.928 7.35924 44.9793 7.48353 44.9793 7.61308V61.5006C44.9793 61.6302 44.928 61.7544 44.8366 61.8463C44.7452 61.9381 44.6212 61.99 44.4916 61.9906ZM38.526 61.0106H44.0016V8.10312H38.526V61.0106Z" fill="#373331"/>
<path d="M55.0219 61.9906H48.5662C48.4362 61.9906 48.3116 61.939 48.2197 61.8471C48.1278 61.7552 48.0762 61.6306 48.0762 61.5006V7.61308C48.0762 7.48312 48.1278 7.35848 48.2197 7.26658C48.3116 7.17468 48.4362 7.12305 48.5662 7.12305H55.0219C55.1519 7.12305 55.2765 7.17468 55.3684 7.26658C55.4603 7.35848 55.512 7.48312 55.512 7.61308V61.5006C55.512 61.6306 55.4603 61.7552 55.3684 61.8471C55.2765 61.939 55.1519 61.9906 55.0219 61.9906ZM49.0562 61.0106H54.5319V8.10312H49.0562V61.0106Z" fill="#373331"/>
<path d="M65.5516 61.9907H59.0936C58.9636 61.9907 58.8389 61.9391 58.747 61.8472C58.6551 61.7553 58.6035 61.6306 58.6035 61.5007V7.61314C58.6035 7.48317 58.6551 7.35853 58.747 7.26663C58.8389 7.17473 58.9636 7.1231 59.0936 7.1231H65.5516C65.6166 7.12216 65.6811 7.13414 65.7413 7.15834C65.8016 7.18255 65.8565 7.21849 65.9027 7.26409C65.949 7.30969 65.9857 7.36403 66.0108 7.42395C66.0359 7.48387 66.0488 7.54818 66.0488 7.61314V61.5007C66.0488 61.5656 66.0359 61.6299 66.0108 61.6898C65.9857 61.7498 65.949 61.8041 65.9027 61.8497C65.8565 61.8953 65.8016 61.9312 65.7413 61.9554C65.6811 61.9797 65.6166 61.9916 65.5516 61.9907ZM59.5836 61.0106H65.0616V8.10317H59.5836V61.0106Z" fill="#373331"/>
<path d="M8.43758 65.7099H4.38945C4.26231 65.7099 4.14011 65.6606 4.04867 65.5723C3.95723 65.4839 3.90371 65.3635 3.89941 65.2364V14.5756C3.90004 14.446 3.95194 14.322 4.04378 14.2306C4.13561 14.1392 4.25989 14.0879 4.38945 14.0879H6.39221V15.049H4.87949V64.7345H7.95702V61.5221H8.93709V65.2364C8.93276 65.3651 8.87792 65.487 8.78445 65.5756C8.69097 65.6642 8.56636 65.7124 8.43758 65.7099Z" fill="#373331"/>
<path d="M4.36538 25.4866H0.49006C0.425307 25.4866 0.361196 25.4738 0.301431 25.4488C0.241666 25.4239 0.187433 25.3874 0.141867 25.3414C0.0963001 25.2954 0.0603034 25.2408 0.035957 25.1808C0.0116106 25.1208 -0.000602757 25.0566 2.28752e-05 24.9918V21.2728C2.28752e-05 21.1428 0.0516516 21.0181 0.143551 20.9262C0.235451 20.8343 0.360094 20.7827 0.49006 20.7827H4.36538V21.7628H0.980097V24.5184H4.36538V25.4866Z" fill="#373331"/>
<path d="M4.36536 51.8089H0.490037C0.360071 51.8089 0.235428 51.7572 0.143529 51.6653C0.0516288 51.5734 0 51.4488 0 51.3188L0 47.595C0 47.465 0.0516288 47.3404 0.143529 47.2485C0.235428 47.1566 0.360071 47.105 0.490037 47.105H4.36536V48.0851H0.980074V50.8288H4.36536V51.8089Z" fill="#373331"/>
<path d="M67.6114 65.7096H63.5633C63.4333 65.7096 63.3087 65.6579 63.2168 65.566C63.1249 65.4741 63.0732 65.3495 63.0732 65.2195V61.5218H64.0533V64.7342H67.1308V15.0487H65.6205V14.0781H67.6209C67.7504 14.0806 67.8737 14.1343 67.9638 14.2275C68.0539 14.3207 68.1034 14.4457 68.1015 14.5753V65.2361C68.0972 65.3632 68.0436 65.4836 67.9522 65.572C67.8608 65.6603 67.7386 65.7097 67.6114 65.7096Z" fill="#373331"/>
<path d="M71.51 25.4866H67.6016V24.5184H71.02V21.7628H67.6016V20.7827H71.51C71.64 20.7827 71.7646 20.8343 71.8565 20.9262C71.9484 21.0181 72.0001 21.1428 72.0001 21.2728V24.9918C72.0007 25.0566 71.9885 25.1208 71.9641 25.1808C71.9398 25.2408 71.9038 25.2954 71.8582 25.3414C71.8127 25.3874 71.7584 25.4239 71.6986 25.4488C71.6389 25.4738 71.5748 25.4866 71.51 25.4866Z" fill="#373331"/>
<path d="M71.51 51.8089H67.6016V50.8288H71.02V48.0851H67.6016V47.105H71.51C71.64 47.105 71.7646 47.1566 71.8565 47.2485C71.9484 47.3404 72.0001 47.465 72.0001 47.595V51.3188C72.0001 51.4488 71.9484 51.5734 71.8565 51.6653C71.7646 51.7572 71.64 51.8089 71.51 51.8089Z" fill="#373331"/>
</svg>
