<svg width="72" height="72" viewBox="0 0 72 72" fill="none" xmlns="http://www.w3.org/2000/svg">
<path d="M10.8579 60.5678H8.87669C8.74674 60.5678 8.62212 60.5162 8.53023 60.4243C8.43834 60.3324 8.38672 60.2078 8.38672 60.0779V29.6593C8.38667 29.5743 8.40841 29.4908 8.44984 29.4166C8.49128 29.3424 8.55104 29.2801 8.62342 29.2356L10.607 28.0805C10.6815 28.0372 10.766 28.0143 10.8521 28.0142C10.9383 28.014 11.0229 28.0365 11.0976 28.0795C11.1722 28.1224 11.2342 28.1843 11.2773 28.2589C11.3204 28.3334 11.3431 28.4181 11.3431 28.5042V60.0779C11.3431 60.207 11.2922 60.3309 11.2013 60.4227C11.1104 60.5144 10.987 60.5666 10.8579 60.5678ZM9.36666 59.5879H10.3679V29.3563L9.36666 29.941V59.5879Z" fill="#373331"/>
<path d="M62.7114 60.568H60.7302C60.6003 60.568 60.4756 60.5164 60.3837 60.4245C60.2919 60.3326 60.2402 60.208 60.2402 60.0781V28.4121C60.2403 28.3278 60.2621 28.2449 60.3036 28.1716C60.3451 28.0982 60.4048 28.0367 60.4769 27.9931C60.5476 27.9494 60.6286 27.9251 60.7117 27.9226C60.7948 27.9201 60.8771 27.9395 60.9503 27.9789L62.9363 29.0133C63.0154 29.0541 63.0817 29.1159 63.128 29.1919C63.1744 29.2679 63.1989 29.3551 63.199 29.4441V60.0781C63.199 60.2076 63.1477 60.3319 63.0563 60.4237C62.965 60.5155 62.8409 60.5674 62.7114 60.568ZM61.2202 59.5881H62.2214V29.7424L61.2202 29.2193V59.5881Z" fill="#373331"/>
<path d="M66.7047 26.8945L66.4798 26.7549C66.3212 26.646 52.3581 17.1614 35.4411 17.1614C18.524 17.1614 5.24973 26.646 5.11718 26.736L4.54199 25.9359C4.67691 25.8365 18.2068 16.1743 35.4411 16.1743C52.6753 16.1743 66.8751 25.8389 67.0171 25.9359L67.223 26.0637L66.7047 26.8945Z" fill="#373331"/>
<path d="M66.8847 22.3309C66.7451 22.2315 52.8081 12.3895 35.6401 12.3895C18.4721 12.3895 5.00375 22.2315 4.86883 22.3309L4.28418 21.5451C4.4262 21.4386 18.1549 11.4048 35.6448 11.4048C53.1347 11.4048 67.3155 21.4386 67.4599 21.5356L66.8847 22.3309Z" fill="#373331"/>
<path d="M0.489982 23.6046C0.423582 23.6056 0.357632 23.5936 0.295887 23.5691C0.207492 23.5307 0.132334 23.4671 0.0797372 23.3863C0.0271401 23.3055 -0.000582114 23.2111 9.268e-06 23.1147V19.9547C-0.00019484 19.8858 0.0142638 19.8177 0.042424 19.7549C0.0705842 19.692 0.111801 19.6359 0.163334 19.5902C0.307722 19.46 3.78724 16.3947 9.92019 13.2844C15.5821 10.418 24.6572 7 35.742 7C46.8267 7 56.0321 10.418 61.8147 13.2844C68.0826 16.3923 71.6804 19.4553 71.8296 19.5831C71.8829 19.6292 71.9258 19.6862 71.9552 19.7504C71.9846 19.8145 71.9999 19.8842 72 19.9547V23.1147C72.0002 23.2099 71.9727 23.3031 71.9208 23.383C71.8689 23.4628 71.7948 23.5258 71.7077 23.5642C71.6206 23.6027 71.5241 23.6149 71.4301 23.5993C71.3362 23.5838 71.2488 23.5412 71.1786 23.4768C71.0248 23.3443 56.5386 10.3138 35.742 10.3138C14.9454 10.3138 0.965753 23.3324 0.828466 23.4697C0.737313 23.5567 0.616006 23.6051 0.489982 23.6046ZM35.742 9.32678C46.822 9.32678 56.0416 12.9744 61.8265 16.0325C65.0784 17.732 68.1547 19.7482 71.0106 22.0519V20.1867C69.3205 18.8162 55.3314 7.97995 35.742 7.97995C16.1525 7.97995 2.60373 18.8138 0.979955 20.1796V22.0282C3.74537 19.7331 6.73688 17.7251 9.90835 16.0349C15.5726 12.9744 24.6525 9.32678 35.742 9.32678Z" fill="#373331"/>
<path d="M18.0054 28.4852H17.0255V25.6992L13.1909 19.3367V21.867H12.2109V17.5756C12.2111 17.4687 12.2462 17.3648 12.3109 17.2797C12.3757 17.1947 12.4664 17.1331 12.5694 17.1044C12.6724 17.0757 12.7819 17.0815 12.8813 17.1208C12.9807 17.1602 13.0644 17.2309 13.1199 17.3223L17.9344 25.3087C17.9804 25.3852 18.0049 25.4727 18.0054 25.5619V28.4852Z" fill="#373331"/>
<path d="M36.1801 24.7812H35.2001V21.8272L35.1812 16.428H35.167V12.094C35.167 11.9644 35.2183 11.8402 35.3097 11.7483C35.401 11.6565 35.5251 11.6046 35.6546 11.604C35.7841 11.604 35.9084 11.6553 36.0002 11.7467C36.092 11.8381 36.1439 11.9621 36.1446 12.0916L36.1777 21.8272L36.1801 24.7812Z" fill="#373331"/>
<path d="M24.7162 23.2139L22.8794 17.197V18.2101H21.8994V13.9187C21.9063 13.8069 21.9513 13.7009 22.0268 13.6183C22.1024 13.5357 22.2039 13.4815 22.3146 13.4646C22.4252 13.4477 22.5383 13.4692 22.6351 13.5256C22.7318 13.5819 22.8063 13.6697 22.8462 13.7743L25.6417 22.9275L24.7162 23.2139Z" fill="#373331"/>
<path d="M25.6753 23.0698H24.6953V25.9931H25.6753V23.0698Z" fill="#373331"/>
<path d="M54.186 28.4123H53.2061V25.489C53.2082 25.4055 53.2318 25.324 53.2747 25.2523L57.978 17.2328C58.0321 17.1414 58.1146 17.0701 58.2128 17.0296C58.3111 16.9891 58.4198 16.9817 58.5226 17.0084C58.6255 17.0351 58.7169 17.0945 58.783 17.1777C58.8491 17.2609 58.8864 17.3633 58.8893 17.4695V21.7586H57.9093V19.2732L54.186 25.6216V28.4123Z" fill="#373331"/>
<path d="M46.5171 22.9961H45.5371V25.9194H46.5171V22.9961Z" fill="#373331"/>
<path d="M46.4956 23.1334L45.5488 22.8588L48.2354 13.6724C48.2675 13.5591 48.3397 13.4613 48.4385 13.3973C48.5374 13.3333 48.6562 13.3074 48.7727 13.3245C48.8894 13.3415 48.9961 13.3998 49.0735 13.4889C49.1508 13.5779 49.1936 13.6918 49.194 13.8097V18.1011H48.2141V17.2324L46.4956 23.1334Z" fill="#373331"/>
<path d="M11.0631 32.2279L10.5684 31.3805L11.0418 31.1059C11.1364 31.0467 21.8661 24.4546 35.5262 24.4546C49.1863 24.4546 60.4438 31.042 60.5551 31.1083L60.8699 31.3024L60.3586 32.1379L60.0533 31.9486C59.9515 31.887 48.9093 25.4369 35.5309 25.4369C22.1526 25.4369 11.6454 31.8823 11.5412 31.9486L11.0631 32.2279Z" fill="#373331"/>
<path d="M10.9519 29.0133L10.4785 28.1588L10.8525 27.9505C10.9353 27.8913 21.8213 21.2021 35.6802 21.2021C49.5391 21.2021 60.7824 27.8866 60.8937 27.9553L60.3871 28.7932C60.2782 28.7269 49.2621 22.1821 35.6802 22.1821C22.0982 22.1821 11.4514 28.7245 11.3448 28.7908L10.9519 29.0133Z" fill="#373331"/>
<path d="M0.850306 22.7851L0.12793 23.4473L1.9145 25.3963L2.63688 24.7341L0.850306 22.7851Z" fill="#373331"/>
<path d="M5.21835 27.5457L4.49609 28.208L8.51625 32.5922L9.23851 31.9299L5.21835 27.5457Z" fill="#373331"/>
<path d="M5.14862 23.7871L4.39062 24.4082L8.74266 29.7197L9.50065 29.0986L5.14862 23.7871Z" fill="#373331"/>
<path d="M66.5327 22.8378L61.5557 28.5977L62.2971 29.2384L67.2742 23.4785L66.5327 22.8378Z" fill="#373331"/>
<path d="M71.1569 22.7658L69.123 24.7554L69.8083 25.4559L71.8421 23.4663L71.1569 22.7658Z" fill="#373331"/>
<path d="M66.5898 27.2291L62.3682 31.3589L63.0534 32.0594L67.2751 27.9296L66.5898 27.2291Z" fill="#373331"/>
<path d="M4.74615 65.6879H2.27025C2.1403 65.6879 2.01567 65.6362 1.92379 65.5443C1.8319 65.4525 1.78028 65.3278 1.78028 65.1979V22.0968C1.78 22.0214 1.79716 21.9468 1.83041 21.8791C1.86367 21.8114 1.91213 21.7522 1.97201 21.7063L4.45027 19.8127C4.52279 19.757 4.60943 19.7228 4.70039 19.7138C4.79134 19.7048 4.883 19.7215 4.965 19.7618C5.04699 19.8022 5.11606 19.8647 5.16439 19.9423C5.21272 20.0199 5.23839 20.1094 5.23849 20.2008V65.1979C5.23787 65.328 5.18572 65.4527 5.09345 65.5445C5.00119 65.6363 4.87632 65.6879 4.74615 65.6879ZM2.76022 64.7079H4.26091V21.2021L2.76022 22.3383V64.7079Z" fill="#373331"/>
<path d="M69.4815 65.6877H67.0056C66.8756 65.6877 66.751 65.6361 66.6591 65.5442C66.5672 65.4523 66.5156 65.3277 66.5156 65.1977V19.7817H67.4956V64.7078H68.9915V21.4907H69.9715V65.1977C69.9715 65.3277 69.9199 65.4523 69.828 65.5442C69.7361 65.6361 69.6114 65.6877 69.4815 65.6877Z" fill="#373331"/>
<path d="M66.6574 26.5136L58.2143 17.9781L48.8054 18.8941C48.7161 18.9034 48.626 18.8878 48.545 18.8492L35.6495 12.6334L22.4273 18.6338C22.3529 18.6666 22.2718 18.6812 22.1906 18.6764L12.8716 17.8882L5.16225 26.2792L4.45215 25.6165L12.3083 17.0431C12.3591 16.9882 12.4217 16.9456 12.4914 16.9186C12.5612 16.8915 12.6361 16.8807 12.7107 16.8869L22.1338 17.6893L35.4483 11.6463C35.5135 11.6159 35.5846 11.6001 35.6566 11.6001C35.7285 11.6001 35.7996 11.6159 35.8649 11.6463L48.8409 17.9L58.3468 16.9721C58.4192 16.9661 58.4921 16.9759 58.5603 17.0009C58.6286 17.0258 58.6906 17.0653 58.7421 17.1165L67.3486 25.8177L66.6574 26.5136Z" fill="#373331"/>
<path d="M60.3894 32.1565L59.8379 31.6168L53.7168 25.6992L46.0003 26.0732C45.9384 26.0766 45.8765 26.0677 45.818 26.0472L35.7961 22.6505L25.3812 26.2839C25.3241 26.3031 25.2639 26.3119 25.2037 26.3099L17.6955 26.0567L11.2383 31.8535L10.585 31.1244L17.1866 25.1974C17.281 25.1121 17.405 25.0671 17.5322 25.072L25.1492 25.3276L35.6328 21.6753C35.7353 21.6388 35.8474 21.6388 35.9499 21.6753L46.0453 25.1075L53.8801 24.7264C53.9468 24.7234 54.0134 24.7338 54.076 24.7569C54.1386 24.7801 54.196 24.8156 54.2446 24.8613L61.0687 31.4535L60.3894 32.1565Z" fill="#373331"/>
<path d="M6.47604 25.8486H5.49609V29.1009H6.47604V25.8486Z" fill="#373331"/>
<path d="M7.57662 26.9941H6.59668V30.2559H7.57662V26.9941Z" fill="#373331"/>
<path d="M8.70553 28.353H7.72559V31.2148H8.70553V28.353Z" fill="#373331"/>
<path d="M65.8432 24.9727H64.8633V28.9777H65.8432V24.9727Z" fill="#373331"/>
<path d="M64.7426 26.251H63.7627V30.256H64.7426V26.251Z" fill="#373331"/>
<path d="M63.6137 27.4487H62.6338V30.9851H63.6137V27.4487Z" fill="#373331"/>
</svg>
