<svg width="72" height="72" viewBox="0 0 72 72" fill="none" xmlns="http://www.w3.org/2000/svg">
<path d="M32.8778 24.647H29.0049V25.627H32.8778V24.647Z" fill="#373331"/>
<path d="M42.8886 24.647H39.0156V25.627H42.8886V24.647Z" fill="#373331"/>
<path d="M12.8527 24.647H10.0947V25.627H12.8527V24.647Z" fill="#373331"/>
<path d="M22.8661 24.647H18.9932V25.627H22.8661V24.647Z" fill="#373331"/>
<path d="M52.9023 24.647H49.0293V25.627H52.9023V24.647Z" fill="#373331"/>
<path d="M61.9173 24.647H59.041V25.627H61.9173V24.647Z" fill="#373331"/>
<path d="M61.9173 21.1055H59.041V22.0855H61.9173V21.1055Z" fill="#373331"/>
<path d="M22.8661 21.1055H18.9932V22.0855H22.8661V21.1055Z" fill="#373331"/>
<path d="M52.9023 21.1055H49.0293V22.0855H52.9023V21.1055Z" fill="#373331"/>
<path d="M32.8778 21.1055H29.0049V22.0855H32.8778V21.1055Z" fill="#373331"/>
<path d="M71.5102 25.6271H65.7646V24.647H71.0201V22.0855H65.7646V21.1055H71.5102C71.6401 21.1055 71.7648 21.1571 71.8567 21.249C71.9486 21.3409 72.0002 21.4655 72.0002 21.5955V25.1465C71.9977 25.2748 71.945 25.397 71.8534 25.4869C71.7617 25.5768 71.6385 25.6271 71.5102 25.6271Z" fill="#373331"/>
<path d="M42.8886 21.1055H39.0156V22.0855H42.8886V21.1055Z" fill="#373331"/>
<path d="M12.8527 21.1055H10.0947V22.0855H12.8527V21.1055Z" fill="#373331"/>
<path d="M6.24502 25.6273H0.490037C0.360071 25.6273 0.235428 25.5756 0.143529 25.4837C0.0516288 25.3918 0 25.2672 0 25.1372L0 21.5862C0 21.4563 0.0516288 21.3316 0.143529 21.2397C0.235428 21.1478 0.360071 21.0962 0.490037 21.0962H6.24502V22.0857H0.980075V24.6472H6.24502V25.6273Z" fill="#373331"/>
<path d="M52.9023 46.1377H49.0293V47.1178H52.9023V46.1377Z" fill="#373331"/>
<path d="M61.9173 46.1377H59.041V47.1178H61.9173V46.1377Z" fill="#373331"/>
<path d="M42.8886 46.1377H39.0156V47.1178H42.8886V46.1377Z" fill="#373331"/>
<path d="M32.8778 46.1377H29.0049V47.1178H32.8778V46.1377Z" fill="#373331"/>
<path d="M22.8661 46.1377H18.9932V47.1178H22.8661V46.1377Z" fill="#373331"/>
<path d="M61.9173 49.6792H59.041V50.6593H61.9173V49.6792Z" fill="#373331"/>
<path d="M6.24502 50.6595H0.490037C0.360071 50.6595 0.235428 50.6079 0.143529 50.516C0.0516288 50.4241 0 50.2994 0 50.1695L0 46.6185C0 46.4885 0.0516288 46.3638 0.143529 46.2719C0.235428 46.18 0.360071 46.1284 0.490037 46.1284H6.24502V47.1085H0.980075V49.6699H6.24502V50.6595Z" fill="#373331"/>
<path d="M12.8527 46.1377H10.0947V47.1178H12.8527V46.1377Z" fill="#373331"/>
<path d="M32.8778 49.6792H29.0049V50.6593H32.8778V49.6792Z" fill="#373331"/>
<path d="M42.8886 49.6792H39.0156V50.6593H42.8886V49.6792Z" fill="#373331"/>
<path d="M52.9023 49.6792H49.0293V50.6593H52.9023V49.6792Z" fill="#373331"/>
<path d="M71.5102 50.6593H65.7646V49.6792H71.0201V47.1178H65.7646V46.1377H71.5102C71.6401 46.1377 71.7648 46.1893 71.8567 46.2812C71.9486 46.3731 72.0002 46.4978 72.0002 46.6277V50.1787C71.9977 50.307 71.945 50.4293 71.8534 50.5191C71.7617 50.609 71.6385 50.6593 71.5102 50.6593Z" fill="#373331"/>
<path d="M22.8661 49.6792H18.9932V50.6593H22.8661V49.6792Z" fill="#373331"/>
<path d="M12.8527 49.6792H10.0947V50.6593H12.8527V49.6792Z" fill="#373331"/>
<path d="M18.9932 60.2235H12.8523C12.7224 60.2235 12.5977 60.1718 12.5058 60.0799C12.4139 59.988 12.3623 59.8634 12.3623 59.7334V9.8585C12.3625 9.77535 12.3845 9.6937 12.4262 9.62177C12.4641 9.55548 13.3732 8.00488 15.9228 8.00488C18.4724 8.00488 19.3814 9.55075 19.4122 9.61704C19.4548 9.68873 19.4776 9.7704 19.4785 9.85377V59.7334C19.4785 59.8626 19.4275 59.9865 19.3367 60.0783C19.2458 60.17 19.1223 60.2222 18.9932 60.2235ZM13.3424 59.2434H18.5032V10.01C18.2948 9.7425 17.5562 8.98022 15.9228 8.98022C14.2893 8.98022 13.5554 9.73777 13.3424 10.0124V59.2434Z" fill="#373331"/>
<path d="M29.0045 60.2233H22.8636C22.7341 60.2227 22.6101 60.1708 22.5187 60.079C22.4273 59.9871 22.376 59.8628 22.376 59.7333V9.85835C22.3761 9.7752 22.3982 9.69355 22.4399 9.62162C22.4896 9.5506 23.3892 8 25.9341 8C28.479 8 29.3927 9.5506 29.4306 9.61689C29.4723 9.68882 29.4944 9.77047 29.4945 9.85362V59.7333C29.4945 59.8632 29.4429 59.9879 29.351 60.0798C29.2591 60.1717 29.1345 60.2233 29.0045 60.2233ZM23.3537 59.2432H28.5145V10.0099C28.3061 9.74236 27.5675 8.98007 25.9341 8.98007C24.3006 8.98007 23.5667 9.73762 23.3537 10.0122V59.2432Z" fill="#373331"/>
<path d="M39.0162 60.2235H32.8777C32.7478 60.2235 32.6231 60.1718 32.5312 60.0799C32.4393 59.988 32.3877 59.8634 32.3877 59.7334V9.8585C32.3878 9.77535 32.4099 9.6937 32.4516 9.62177C32.4895 9.55548 33.3985 8.00488 35.9482 8.00488C38.4978 8.00488 39.4045 9.55548 39.4423 9.62177C39.4841 9.6937 39.5061 9.77535 39.5063 9.8585V59.7334C39.5063 59.8634 39.4546 59.988 39.3627 60.0799C39.2708 60.1718 39.1462 60.2235 39.0162 60.2235ZM33.3796 59.2434H38.538V10.01C38.3297 9.7425 37.5911 8.98022 35.96 8.98022C34.3289 8.98022 33.5927 9.73777 33.3796 10.0124V59.2434Z" fill="#373331"/>
<path d="M49.0293 60.2235H42.8885C42.7585 60.2235 42.6339 60.1718 42.542 60.0799C42.4501 59.988 42.3984 59.8634 42.3984 59.7334V9.8585C42.3999 9.77553 42.4219 9.69422 42.4624 9.62177C42.5002 9.55548 43.4093 8.00488 45.9589 8.00488C48.5085 8.00488 49.4176 9.55548 49.4555 9.62177C49.4959 9.69422 49.5179 9.77553 49.5194 9.8585V59.7334C49.5194 59.8634 49.4677 59.988 49.3758 60.0799C49.2839 60.1718 49.1593 60.2235 49.0293 60.2235ZM43.3785 59.2434H48.5298V10.01C48.3215 9.7425 47.5829 8.98022 45.9494 8.98022C44.316 8.98022 43.5821 9.73777 43.369 10.0124L43.3785 59.2434Z" fill="#373331"/>
<path d="M59.0416 60.2235H52.9031C52.7732 60.2235 52.6485 60.1718 52.5566 60.0799C52.4647 59.988 52.4131 59.8634 52.4131 59.7334V9.8585C52.4132 9.77535 52.4353 9.6937 52.477 9.62177C52.5149 9.55548 53.4239 8.00488 55.9712 8.00488C58.5184 8.00488 59.4204 9.55075 59.4677 9.61704C59.5095 9.68896 59.5315 9.77061 59.5317 9.85377V59.7334C59.5317 59.8634 59.48 59.988 59.3881 60.0799C59.2962 60.1718 59.1716 60.2235 59.0416 60.2235ZM53.3932 59.2434H58.5516V10.01C58.3433 9.7425 57.6046 8.98022 55.9712 8.98022C54.3377 8.98022 53.6039 9.73777 53.3932 10.0124V59.2434Z" fill="#373331"/>
<path d="M65.7647 63.8832H61.9178C61.7878 63.8832 61.6632 63.8315 61.5713 63.7396C61.4794 63.6477 61.4277 63.5231 61.4277 63.3931V9.34697C61.4277 9.21701 61.4794 9.09236 61.5713 9.00046C61.6632 8.90856 61.7878 8.85693 61.9178 8.85693H65.7647C65.8946 8.85693 66.0193 8.90856 66.1112 9.00046C66.2031 9.09236 66.2547 9.21701 66.2547 9.34697V63.3955C66.2541 63.5251 66.2022 63.6491 66.1104 63.7405C66.0185 63.8319 65.8942 63.8832 65.7647 63.8832ZM62.4078 62.9031H65.2746V9.83701H62.4078V62.9031Z" fill="#373331"/>
<path d="M10.0942 63.8832H6.24492C6.11536 63.8832 5.99108 63.8319 5.89925 63.7405C5.80741 63.6491 5.75551 63.5251 5.75488 63.3955V9.34697C5.75488 9.21701 5.80651 9.09236 5.89841 9.00046C5.99031 8.90856 6.11495 8.85693 6.24492 8.85693H10.0942C10.2242 8.85693 10.3488 8.90856 10.4407 9.00046C10.5326 9.09236 10.5842 9.21701 10.5842 9.34697V63.3955C10.5836 63.5251 10.5317 63.6491 10.4399 63.7405C10.348 63.8319 10.2238 63.8832 10.0942 63.8832ZM6.73496 62.9031H9.60416V9.83701H6.73496V62.9031Z" fill="#373331"/>
</svg>
