<svg width="24" height="24" viewBox="0 0 24 24" fill="none" xmlns="http://www.w3.org/2000/svg">
<path d="M3.37492 11.2853C8.74362 8.89713 12.3235 7.32266 14.1149 6.56189C19.2292 4.38997 20.2919 4.01266 20.9846 4.00012C21.1369 3.99751 21.4776 4.03604 21.6982 4.21881C21.8846 4.3732 21.9358 4.58174 21.9603 4.72805C21.9849 4.87443 22.0154 5.20781 21.9911 5.46828C21.7139 8.44151 20.5148 15.6568 19.9046 18.9869C19.6465 20.396 19.1382 20.8684 18.6461 20.9147C17.5766 21.0151 16.7645 20.1931 15.7287 19.4998C14.1078 18.415 13.1922 17.7396 11.6188 16.6811C9.80054 15.4577 10.9792 14.7853 12.0155 13.6864C12.2866 13.3988 16.9987 9.02266 17.0899 8.62574C17.1013 8.57605 17.1119 8.39097 17.0042 8.29328C16.8966 8.19559 16.7376 8.22897 16.6229 8.25551C16.4604 8.2932 13.871 10.0407 8.85485 13.4979C8.11985 14.0132 7.45416 14.2642 6.85769 14.2511C6.20016 14.2366 4.93531 13.8715 3.995 13.5594C2.84169 13.1766 1.92503 12.9743 2.00484 12.3242C2.04642 11.9856 2.5031 11.6393 3.37492 11.2853Z" fill="white"/>
</svg>
