<svg width="260" height="48" viewBox="0 0 260 48" fill="none" xmlns="http://www.w3.org/2000/svg">
<g clip-path="url(#clip0_1_12957)">
<path d="M20.6624 47.9999L0 34.5002V14.0806L20.6624 27.5795L41.3215 14.0806V34.5002L20.6624 47.9999ZM2.8486 32.9393L20.6608 44.5735L38.4729 32.9393V19.3661L20.6608 31.0003L2.8486 19.3661V32.9393Z" fill="#FF5900"/>
<path d="M3.54985 14.6034L20.6631 3.4232L37.7755 14.6034L40.3957 12.8922L20.6631 0L0.929688 12.8922L3.54985 14.6034Z" fill="#FF5900"/>
<path d="M34.0728 27.0552L20.6626 36.1121L7.2516 27.0552L7.25 34.0187L10.1002 35.8802L10.101 32.4376L20.6626 39.57L31.2234 32.4376V35.881L34.0736 34.0187L34.0728 27.0552Z" fill="#FF5900"/>
<path d="M9.16509 18.226L20.6613 10.7155L32.1567 18.226L34.7768 16.514L20.6613 7.2915L6.54492 16.514L9.16509 18.226Z" fill="#FF5900"/>
<path d="M51.3223 18.2873H55.0135L59.3016 27.1508H59.4121L63.877 18.2873H67.4136V30.5106H64.6949V21.9565H64.5622L60.4289 30.5106H58.108L54.1294 21.9565H53.9968V30.5106H51.3223V18.2873Z" fill="#050505"/>
<path d="M76.2356 20.7408L73.959 26.2446H79.3964L77.1861 20.7408H76.2356ZM74.5115 18.2873H78.9985L84.1929 30.5106H81.2752L80.4795 28.6539H72.9422L72.1465 30.5106H69.1846L74.5115 18.2873Z" fill="#050505"/>
<path d="M98.0956 21.2713L95.9515 22.5091C94.9937 21.1387 93.6307 20.4535 91.8624 20.4535C90.6393 20.4535 89.6594 20.8145 88.9226 21.5366C88.1859 22.2439 87.8175 23.2017 87.8175 24.41C87.8175 25.5889 88.1932 26.5467 88.9447 27.2834C89.6963 28.0055 90.6688 28.3665 91.8624 28.3665C93.6307 28.3665 94.9937 27.6813 95.9515 26.3109L98.0956 27.5487C96.8136 29.7296 94.7506 30.82 91.9066 30.82C89.9173 30.82 88.2816 30.2379 86.9996 29.0738C85.7176 27.9097 85.0766 26.3551 85.0766 24.41C85.0766 22.4649 85.7176 20.9103 86.9996 19.7462C88.2964 18.5821 89.932 18 91.9066 18C94.7506 18 96.8136 19.0904 98.0956 21.2713Z" fill="#050505"/>
<path d="M99.3826 18.2873H112.092V20.7629H107.119V30.5106H104.356V20.7629H99.3826V18.2873Z" fill="#050505"/>
<path d="M113.855 18.2873H124.951V20.785H116.618V23.0396H124.111V25.5373H116.618V27.9687H125.261V30.5106H113.855V18.2873Z" fill="#050505"/>
<path d="M127.324 18.2873H134.53C135.989 18.2873 137.19 18.7368 138.133 19.6357C139.091 20.5198 139.57 21.6692 139.57 23.0838C139.57 24.4984 139.091 25.6404 138.133 26.5098C137.19 27.3645 135.989 27.7918 134.53 27.7918H130.087V30.5106H127.324V18.2873ZM130.087 20.8071V25.272H134.42C135.142 25.272 135.716 25.0805 136.144 24.6973C136.586 24.3142 136.807 23.7764 136.807 23.0838C136.807 22.3912 136.586 21.8386 136.144 21.426C135.716 21.0134 135.142 20.8071 134.42 20.8071H130.087Z" fill="#050505"/>
<path d="M147.165 20.7408L144.889 26.2446H150.326L148.116 20.7408H147.165ZM145.441 18.2873H149.928L155.122 30.5106H152.205L151.409 28.6539H143.872L143.076 30.5106H140.114L145.441 18.2873Z" fill="#050505"/>
<path d="M160.903 22.8407H165.765C166.443 22.8407 166.782 22.5165 166.782 21.8681C166.782 20.9103 165.721 20.4314 163.599 20.4314C162.524 20.4314 161.647 20.5272 160.969 20.7187C160.291 20.8956 159.554 21.2271 158.759 21.7134L157.609 19.7241C159.319 18.5747 161.301 18 163.555 18C165.618 18 167.158 18.361 168.175 19.0831C169.088 19.7167 169.545 20.6156 169.545 21.7797C169.545 22.6491 169.243 23.2827 168.639 23.6806C169.774 24.27 170.341 25.2426 170.341 26.5982C170.341 27.7918 169.788 28.8012 168.683 29.6264C167.622 30.4221 165.92 30.82 163.577 30.82C162.251 30.82 161.087 30.68 160.085 30.4C159.098 30.1201 158.11 29.6411 157.123 28.9633L158.383 26.9077C159.96 27.895 161.735 28.3886 163.71 28.3886C166.289 28.3886 167.578 27.755 167.578 26.4877C167.578 26.0604 167.438 25.7509 167.158 25.5594C166.893 25.3678 166.429 25.272 165.765 25.272H160.903V22.8407Z" fill="#050505"/>
<path d="M178.139 20.7408L175.862 26.2446H181.3L179.089 20.7408H178.139ZM176.415 18.2873H180.902L186.096 30.5106H183.178L182.383 28.6539H174.845L174.05 30.5106H171.088L176.415 18.2873Z" fill="#050505"/>
<path d="M187.87 18.2873H198.435V20.7629H190.611V22.3323H195.672C196.925 22.3323 197.949 22.708 198.745 23.4596C199.555 24.2111 199.961 25.1763 199.961 26.3551C199.961 27.5045 199.555 28.4844 198.745 29.2949C197.934 30.1053 196.91 30.5106 195.672 30.5106H187.87V18.2873ZM190.611 24.7637V28.035H195.474C196.638 28.035 197.22 27.475 197.22 26.3551C197.22 25.2941 196.63 24.7637 195.451 24.7637H190.611Z" fill="#050505"/>
<path d="M205.463 21.4702C204.697 22.1923 204.314 23.1722 204.314 24.41C204.314 25.6478 204.697 26.6351 205.463 27.3719C206.244 28.0939 207.224 28.4549 208.403 28.4549C209.582 28.4549 210.554 28.0939 211.321 27.3719C212.102 26.6351 212.492 25.6478 212.492 24.41C212.492 23.1722 212.102 22.1923 211.321 21.4702C210.554 20.7335 209.582 20.3651 208.403 20.3651C207.224 20.3651 206.244 20.7335 205.463 21.4702ZM213.244 19.7904C214.585 20.984 215.255 22.5238 215.255 24.41C215.255 26.2962 214.585 27.836 213.244 29.0296C211.917 30.2232 210.304 30.82 208.403 30.82C206.502 30.82 204.881 30.2232 203.54 29.0296C202.214 27.836 201.551 26.2962 201.551 24.41C201.551 22.5238 202.214 20.984 203.54 19.7904C204.881 18.5968 206.502 18 208.403 18C210.304 18 211.917 18.5968 213.244 19.7904Z" fill="#050505"/>
<path d="M217.291 18.2873H224.497C225.955 18.2873 227.156 18.7368 228.099 19.6357C229.057 20.5198 229.536 21.6692 229.536 23.0838C229.536 24.4984 229.057 25.6404 228.099 26.5098C227.156 27.3645 225.955 27.7918 224.497 27.7918H220.054V30.5106H217.291V18.2873ZM220.054 20.8071V25.272H224.386C225.108 25.272 225.683 25.0805 226.11 24.6973C226.552 24.3142 226.773 23.7764 226.773 23.0838C226.773 22.3912 226.552 21.8386 226.11 21.426C225.683 21.0134 225.108 20.8071 224.386 20.8071H220.054Z" fill="#050505"/>
<path d="M235.143 21.4702C234.377 22.1923 233.994 23.1722 233.994 24.41C233.994 25.6478 234.377 26.6351 235.143 27.3719C235.924 28.0939 236.904 28.4549 238.083 28.4549C239.262 28.4549 240.234 28.0939 241.001 27.3719C241.782 26.6351 242.172 25.6478 242.172 24.41C242.172 23.1722 241.782 22.1923 241.001 21.4702C240.234 20.7335 239.262 20.3651 238.083 20.3651C236.904 20.3651 235.924 20.7335 235.143 21.4702ZM242.924 19.7904C244.265 20.984 244.935 22.5238 244.935 24.41C244.935 26.2962 244.265 27.836 242.924 29.0296C241.597 30.2232 239.984 30.82 238.083 30.82C236.182 30.82 234.561 30.2232 233.22 29.0296C231.894 27.836 231.231 26.2962 231.231 24.41C231.231 22.5238 231.894 20.984 233.22 19.7904C234.561 18.5968 236.182 18 238.083 18C239.984 18 241.597 18.5968 242.924 19.7904Z" fill="#050505"/>
<path d="M246.971 18.2873H254.84C255.96 18.2873 256.866 18.5894 257.558 19.1936C258.266 19.783 258.619 20.5714 258.619 21.5587C258.619 22.5017 258.302 23.1943 257.669 23.6364C258.862 24.2405 259.459 25.2647 259.459 26.7088C259.459 27.7697 259.076 28.6686 258.31 29.4054C257.544 30.1422 256.586 30.5106 255.436 30.5106H246.971V18.2873ZM249.734 20.7629V22.9954H254.928C255.223 22.9954 255.459 22.8849 255.635 22.6638C255.827 22.4428 255.923 22.1849 255.923 21.8902C255.923 21.5808 255.827 21.3155 255.635 21.0945C255.444 20.8734 255.134 20.7629 254.707 20.7629H249.734ZM249.734 25.4047V28.0129H255.348C255.775 28.0129 256.114 27.895 256.365 27.6592C256.63 27.4087 256.763 27.0919 256.763 26.7088C256.763 26.3109 256.637 25.9941 256.387 25.7583C256.136 25.5225 255.812 25.4047 255.414 25.4047H249.734Z" fill="#050505"/>
</g>
<defs>
<clipPath id="clip0_1_12957">
<rect width="260" height="48" fill="white"/>
</clipPath>
</defs>
</svg>
