<svg width="20" height="20" viewBox="0 0 20 20" fill="none" xmlns="http://www.w3.org/2000/svg">
<g clip-path="url(#clip0_1_9518)">
<path fill-rule="evenodd" clip-rule="evenodd" d="M10.1548 0.0808047C9.6446 0.312528 9.53168 1.14049 9.97064 1.43096C10.13 1.53645 10.2047 1.55363 11.0907 1.68928C15.1305 2.30762 17.1594 4.34927 17.7905 8.43125C17.8343 8.71445 17.8701 9.04959 17.8701 9.17602C17.8701 9.8217 18.1665 10.1612 18.7308 10.1619C19.4422 10.1628 19.6275 9.52405 19.4275 7.76013C19.0341 4.2912 16.2173 1.11194 12.7692 0.245155C11.8173 0.0058549 10.5018 -0.0768672 10.1548 0.0808047ZM2.9309 1.05722C0.55852 1.68994 -0.562213 3.77819 0.276765 6.00258C2.34997 11.4992 6.67043 16.1993 12.1873 18.9598C14.5575 20.1457 15.198 20.2454 16.4445 19.6225C18.4122 18.6392 19.4431 16.5485 18.5592 15.3338C18.2623 14.9258 16.6094 13.6278 15.4394 12.884C14.0586 12.0061 12.9967 12.1617 12.0618 13.379C11.4743 14.1439 11.1539 14.197 10.1409 13.6973C8.3344 12.8063 7.05119 11.5443 6.2483 9.8692C5.69569 8.7162 5.77884 8.30142 6.70304 7.60152C8.13611 6.51626 7.93996 5.35748 5.88394 2.76185C4.67623 1.23716 3.9115 0.795699 2.9309 1.05722ZM10.4672 2.61949C10.1644 2.75701 10.0197 3.02427 10.0206 3.44437C10.0214 3.88188 10.2972 4.12985 10.8885 4.22484C13.7111 4.67813 14.9509 5.96021 15.2513 8.73655C15.3291 9.45574 15.5285 9.6693 16.0986 9.64392C16.7127 9.61658 16.8302 9.44871 16.8482 8.57279C16.8948 6.30988 15.6257 4.2837 13.5006 3.2278C12.4797 2.72057 10.9292 2.40964 10.4672 2.61949ZM11.0655 5.20512C10.6091 5.27207 10.3593 5.52793 10.3052 5.98384C10.25 6.45009 10.5194 6.70006 11.2305 6.84226C12.1065 7.01747 12.5515 7.49787 12.7139 8.44363C12.8411 9.18434 13.2149 9.49089 13.788 9.32428C14.1858 9.20863 14.3555 8.89575 14.3544 8.27986C14.3515 6.62644 12.5917 4.98133 11.0655 5.20512Z" fill="#7F40BD"/>
</g>
<defs>
<clipPath id="clip0_1_9518">
<rect width="20" height="20" fill="white"/>
</clipPath>
</defs>
</svg>
