<svg width="24" height="24" viewBox="0 0 24 24" fill="none" xmlns="http://www.w3.org/2000/svg">
<path d="M17.8126 6.51702L17.5625 7.0515C17.5625 7.0515 16.3767 9.57006 14.9328 11.1567C14.4687 11.6701 14.233 11.8246 13.9767 11.8246C13.7705 11.8246 13.6752 11.6528 13.6752 11.1903V6.3999H9.18578V6.76686C9.18578 7.30134 10.0061 7.4223 10.0061 8.87022V11.8575C10.0061 12.4592 9.97322 12.692 9.68906 12.692C8.93426 12.692 7.14218 10.1055 6.13586 7.16862L5.88578 6.3999H2.95298C2.63426 6.3999 2.39978 6.61686 2.39978 6.93438C2.39978 7.51878 3.08714 10.2217 5.78426 13.8445C7.59362 16.2812 9.97322 17.5997 12.1171 17.5997C13.4249 17.5997 13.7422 17.3828 13.7422 16.8327V14.9631C13.7422 14.4953 13.9267 14.2952 14.1955 14.2952C14.497 14.2952 15.0283 14.3912 16.272 15.614C16.2735 15.614 18.2657 17.5997 18.2657 17.5997H21.1143C21.3658 17.5997 21.6 17.4836 21.6 17.0662C21.6 16.5145 20.8798 15.5302 19.7736 14.3621C19.3219 13.7614 18.5844 13.1098 18.3499 12.8089C18.0156 12.4589 18.1155 12.259 18.3499 11.8918C18.3499 11.8918 20.8798 8.33574 21.1313 7.16838C21.2158 6.75126 21.0312 6.51678 20.5954 6.51678L17.8126 6.51702Z" fill="white"/>
</svg>
