<svg width="20" height="20" viewBox="0 0 20 20" fill="none" xmlns="http://www.w3.org/2000/svg">
<path fill-rule="evenodd" clip-rule="evenodd" d="M5.00294 2.31139C4.81642 2.36331 2.85692 4.33018 2.66399 4.65917C2.06763 5.67604 2.21552 7.05092 3.0936 8.65299C4.56345 11.3348 8.40755 15.221 11.1484 16.796C12.8635 17.7815 14.2809 17.9652 15.3435 17.3396C15.5883 17.1955 17.4839 15.3578 17.6275 15.1254C17.7275 14.9637 17.7375 14.6416 17.6478 14.4724C17.5599 14.3065 14.9713 11.7405 14.8109 11.6603C14.577 11.5433 14.4033 11.5944 12.9717 12.2016L11.624 12.7732L9.4279 10.5764L7.23177 8.37956L7.80271 7.0319C8.42243 5.56901 8.46247 5.42807 8.33044 5.17354C8.28493 5.08585 7.67677 4.44878 6.91009 3.68569C5.40415 2.18678 5.41708 2.19612 5.00294 2.31139ZM13.8405 2.77389C13.5415 2.95612 13.5579 2.77963 13.5579 5.82096C13.5579 8.4612 13.56 8.53932 13.6356 8.66311C13.8705 9.04854 14.4947 9.04854 14.7297 8.66311C14.8511 8.46401 14.8511 3.17792 14.7297 2.97881C14.5609 2.7019 14.1238 2.60116 13.8405 2.77389ZM11.3405 4.02389C11.056 4.19733 11.0579 4.18499 11.0579 5.82096C11.0579 7.21389 11.0617 7.29206 11.1356 7.41311C11.3705 7.79854 11.9947 7.79854 12.2297 7.41311C12.3499 7.21604 12.3499 4.42588 12.2297 4.22881C12.0609 3.9519 11.6238 3.85116 11.3405 4.02389ZM16.3405 4.64889C16.0756 4.81038 16.0579 4.88358 16.0579 5.82096C16.0579 6.59022 16.0644 6.67151 16.1356 6.78811C16.3705 7.17354 16.9947 7.17354 17.2297 6.78811C17.3479 6.59424 17.3479 5.04768 17.2297 4.85381C17.0609 4.5769 16.6238 4.47616 16.3405 4.64889Z" fill="white"/>
<path fill-rule="evenodd" clip-rule="evenodd" d="M5.00294 2.31139C4.81642 2.36331 2.85692 4.33018 2.66399 4.65917C2.06763 5.67604 2.21552 7.05092 3.0936 8.65299C4.56345 11.3348 8.40755 15.221 11.1484 16.796C12.8635 17.7815 14.2809 17.9652 15.3435 17.3396C15.5883 17.1955 17.4839 15.3578 17.6275 15.1254C17.7275 14.9637 17.7375 14.6416 17.6478 14.4724C17.5599 14.3065 14.9713 11.7405 14.8109 11.6603C14.577 11.5433 14.4033 11.5944 12.9717 12.2016L11.624 12.7732L9.4279 10.5764L7.23177 8.37956L7.80271 7.0319C8.42243 5.56901 8.46247 5.42807 8.33044 5.17354C8.28493 5.08585 7.67677 4.44878 6.91009 3.68569C5.40415 2.18678 5.41708 2.19612 5.00294 2.31139ZM13.8405 2.77389C13.5415 2.95612 13.5579 2.77963 13.5579 5.82096C13.5579 8.4612 13.56 8.53932 13.6356 8.66311C13.8705 9.04854 14.4947 9.04854 14.7297 8.66311C14.8511 8.46401 14.8511 3.17792 14.7297 2.97881C14.5609 2.7019 14.1238 2.60116 13.8405 2.77389ZM11.3405 4.02389C11.056 4.19733 11.0579 4.18499 11.0579 5.82096C11.0579 7.21389 11.0617 7.29206 11.1356 7.41311C11.3705 7.79854 11.9947 7.79854 12.2297 7.41311C12.3499 7.21604 12.3499 4.42588 12.2297 4.22881C12.0609 3.9519 11.6238 3.85116 11.3405 4.02389ZM16.3405 4.64889C16.0756 4.81038 16.0579 4.88358 16.0579 5.82096C16.0579 6.59022 16.0644 6.67151 16.1356 6.78811C16.3705 7.17354 16.9947 7.17354 17.2297 6.78811C17.3479 6.59424 17.3479 5.04768 17.2297 4.85381C17.0609 4.5769 16.6238 4.47616 16.3405 4.64889Z" fill="white"/>
</svg>
