<svg width="24" height="24" viewBox="0 0 24 24" fill="none" xmlns="http://www.w3.org/2000/svg">
<path fill-rule="evenodd" clip-rule="evenodd" d="M9.0924 7.462C8.74393 7.81045 8.17897 7.81045 7.83051 7.462C7.48204 7.11354 7.48204 6.54856 7.83051 6.20011L11.3997 2.63094L12.0306 2L12.6615 2.63094L16.2307 6.20011C16.5791 6.54856 16.5791 7.11354 16.2307 7.462C15.8822 7.81045 15.3173 7.81045 14.9689 7.462L12.9229 5.41607V16.3488C12.9229 16.8416 12.5234 17.2411 12.0306 17.2411C11.5378 17.2411 11.1383 16.8416 11.1383 16.3488V5.41607L9.0924 7.462ZM8.01531 12.4822C6.7833 12.4822 5.78458 13.481 5.78458 14.713V17.5385C5.78458 19.0169 6.98306 20.2154 8.46145 20.2154H15.5998C17.0781 20.2154 18.2766 19.0169 18.2766 17.5385V14.713C18.2766 13.481 17.2779 12.4822 16.0459 12.4822C15.5531 12.4822 15.1536 12.0827 15.1536 11.5899C15.1536 11.0972 15.5531 10.6977 16.0459 10.6977C18.2635 10.6977 20.0612 12.4953 20.0612 14.713V17.5385C20.0612 20.0026 18.0638 22 15.5998 22H8.46145C5.99746 22 4 20.0026 4 17.5385V14.713C4 12.4953 5.79772 10.6977 8.01531 10.6977C8.5081 10.6977 8.9076 11.0972 8.9076 11.5899C8.9076 12.0827 8.5081 12.4822 8.01531 12.4822Z" fill="#050505"/>
</svg>
