<svg width="20" height="20" viewBox="0 0 20 20" fill="none" xmlns="http://www.w3.org/2000/svg">
<path d="M10.7714 1.95926L12.8475 5.62354C13.1069 6.05976 13.5395 6.3215 13.972 6.49599L18.0376 7.36847C18.7297 7.54294 18.9891 8.32814 18.4701 8.8516L15.7021 11.9924C15.356 12.3414 15.183 12.8649 15.2695 13.3883L15.7021 17.5761C15.7885 18.2741 15.0965 18.7103 14.491 18.4485L10.6849 16.7037C10.2523 16.5291 9.73333 16.5291 9.3008 16.7037L5.49469 18.4485C4.88917 18.7103 4.19715 18.1868 4.28365 17.5761L4.71617 13.3883C4.80267 12.8649 4.62967 12.4287 4.28365 11.9924L1.51556 8.8516C1.08304 8.32814 1.34255 7.54294 1.94807 7.36847L6.01371 6.49599C6.53273 6.40874 6.87873 6.05976 7.13827 5.62354L9.21433 1.95926C9.56033 1.43578 10.4253 1.43578 10.7714 1.95926Z" fill="#F5B04D"/>
</svg>
